<svg id="圖層_1" data-name="圖層 1" xmlns="http://www.w3.org/2000/svg" viewBox="0 0 146 146"><defs><style>.cls-1{fill:#cccbcb;}</style></defs><path class="cls-1" d="M73,.5A72.5,72.5,0,1,0,145.5,73,72.58,72.58,0,0,0,73,.5Zm50.19,120.58-10.85-10.85-2.23,2.23L121,123.31a69.3,69.3,0,0,1-46.38,19.2V127.18H71.42v15.33A69.27,69.27,0,0,1,25,123.3l10.85-10.84-2.23-2.23L22.8,121.07A69.27,69.27,0,0,1,3.49,74.69H18.94V71.54H3.48A69.31,69.31,0,0,1,22.69,25.05l11,11,2.23-2.24-11-10.95A69.28,69.28,0,0,1,71.42,3.49V19h3.16V3.49A69.29,69.29,0,0,1,121.07,22.8l-11,11L112.34,36l11-11a69.3,69.3,0,0,1,19.22,46.5H127.06v3.15h15.45A69.31,69.31,0,0,1,123.19,121.08Z"/><path class="cls-1" d="M99.54,40.43,74.61,64.92a8.24,8.24,0,0,0-9.67,6.36,8.12,8.12,0,0,0,0,3.18l-.42.41a5,5,0,0,0,7,7.08l.76-.75a8.25,8.25,0,0,0,8.89-6.48,8.44,8.44,0,0,0,.15-2.39l25.27-24.82a5,5,0,1,0-6.95-7.08Z"/></svg>