<?xml version="1.0" encoding="utf-8"?>
<!-- Generator: Adobe Illustrator 26.0.3, SVG Export Plug-In . SVG Version: 6.00 Build 0)  -->
<svg version="1.1" id="圖層_1" xmlns="http://www.w3.org/2000/svg" xmlns:xlink="http://www.w3.org/1999/xlink" x="0px" y="0px"
	 viewBox="0 0 600 42" style="enable-background:new 0 0 600 42;" xml:space="preserve">
<style type="text/css">
	.st0{fill:#BCBBB8;}
</style>
<rect y="-0.6" class="st0" width="600" height="42"/>
<path d="M25.7,11.4h8.9V14h-4.2c-0.3,0.6-0.7,1.2-1.1,1.8h4.2v13.6c0,1.6-0.7,2.4-2.2,2.4h-3.5l-0.3-2.1h-9.4v-6l-1.2-1.4v9.5h-3.2
	v-16h4.6c-0.4-0.6-0.8-1.2-1.2-1.8h-4.4v-2.6H22c-0.2-0.5-0.5-1-0.7-1.4l3.5-0.8C25.2,9.9,25.5,10.6,25.7,11.4z M19.8,18.4h-3v3.5
	C18.3,21.3,19.4,20,19.8,18.4L19.8,18.4z M29,23.2V29c0.3,0,0.5,0,0.5,0c0.6,0,0.9-0.2,0.9-0.6v-6.1h-3.2c-1.9,0-2.8-0.7-2.8-2.2
	v-1.7h-1.8c-0.2,1.2-0.6,2.3-1.2,3.4c-0.4,0.5-0.9,1-1.4,1.4C20,23.2,29,23.2,29,23.2z M25.9,15.8c0.4-0.6,0.8-1.2,1.1-1.8h-6.5
	c0.4,0.6,0.7,1.2,1,1.8H25.9z M26,25.5h-5v1.9h5V25.5z M27.3,19.2c0,0.6,0.2,0.9,0.6,0.9h2.4v-1.7h-3V19.2z"/>
<path d="M47.9,9.5v3.7h1.5V9.5h3.1v3.7h2.1l-1.3-1.1c1-0.7,1.9-1.5,2.7-2.4l2.6,1.6c-0.6,0.7-1.3,1.4-2,2h3.2v2.5h-4.5
	c-0.3,0.6-0.6,1.1-1,1.6h4.9v2.4h-8.7v1.1h8.1V23h-8.2v1.2h9.5v2.4h-6.7c0.5,0.3,1.1,0.6,1.7,0.8c1.8,0.6,3.6,1.1,5.4,1.3l-1.6,2.7
	c-2.1-0.5-4.1-1.3-5.9-2.4c-0.9-0.5-1.7-1.2-2.4-1.9v4.8H47V27c-0.8,0.8-1.8,1.5-2.8,2.1c-1.8,1-3.7,1.7-5.7,2.3l-1.3-2.9
	c2.2-0.3,4.4-1,6.4-2h-6.1v-2.4H47V23h-8.2v-2.1H47v-1.1h-8.8v-2.4h5.1c-0.3-0.6-0.6-1.1-0.9-1.6h-4.7v-2.5h3.2
	c-0.6-0.7-1.2-1.3-1.9-1.9l2.3-1.6c1,0.7,1.9,1.5,2.7,2.3l-1.5,1.1h2.4V9.5H47.9z M50.7,17.3c0.4-0.5,0.7-1.1,1-1.6h-5.9
	c0.3,0.5,0.5,1.1,0.7,1.6H50.7z"/>
<path d="M76,12.5h8.9v3h-9.5v2.7h7.9V27c0,1.7-0.7,2.6-2.2,2.6h-3.7l-0.6-3.2l2.5,0.1c0.6,0,0.8-0.2,0.8-0.7v-4.7h-4.8V32H72V21.1
	h-4.5v8.6h-3.3V18.1h7.7v-2.7h-9.4v-3h9.6c-0.2-0.7-0.5-1.5-0.8-2.2l3.5-0.8C75.5,10.4,75.8,11.4,76,12.5z"/>
<path d="M90.3,14.8V9.5h3v5.3h1.9v3.1h-1.9v5.2c0.6-0.2,1.2-0.5,1.8-0.7v1.1c0.8-0.5,1.6-1.1,2.2-1.8h-2.9v-2.3h15.8v2.3h-9.9
	c-0.2,0.3-0.4,0.7-0.5,1h9.9V25c0,3.5-0.3,5.5-0.9,6.1c-1,0.7-2.2,1-3.4,0.9h-1.2l-0.5-2.8c1,0.1,1.6,0.1,1.7,0.1
	c0.4,0,0.7-0.1,1-0.2c0.3-1.4,0.4-2.8,0.3-4.1h-1c-0.3,1.2-0.9,2.3-1.6,3.3c-1.1,1.5-2.4,2.8-4,3.8L97.9,30c1.4-0.8,2.7-1.7,3.9-2.9
	c0.6-0.6,1.1-1.4,1.4-2.2h-1.3c-0.5,1-1.1,1.9-1.9,2.7c-1.2,1.2-2.7,2.2-4.2,3L94,28.2c1.4-0.4,2.7-1.1,3.8-2
	c0.5-0.4,0.9-0.8,1.3-1.4h-1c-0.8,0.8-1.8,1.4-2.8,1.9l-0.4-0.9c-2.1,0.9-4.3,1.6-6.5,2.2l-0.6-3.4c0.9-0.1,1.7-0.3,2.6-0.6v-6.1H88
	v-3.1C88,14.8,90.3,14.8,90.3,14.8z M108.7,10.1v8.2H96.4v-8.2C96.4,10.1,108.7,10.1,108.7,10.1z M105.7,13.2v-1h-6.4v1H105.7z
	 M105.7,15.2h-6.4v1h6.4V15.2z"/>
<path d="M115.5,19.4c-0.1,1.3-0.3,2.5-0.7,3.7l-2-0.8c0.4-1.1,0.7-2.2,0.8-3.4L115.5,19.4z M117.9,10.3c-0.5,1-1.2,2-1.9,2.9
	c0.3,0,0.5,0,0.6,0h0.5c0.4-0.6,0.8-1.3,1.2-2l2,0.8v-1.3h2.5c-0.1-0.3-0.2-0.6-0.3-0.9l2.5-0.5c0.1,0.4,0.2,0.9,0.3,1.3h2.2v1.9
	h-7.2v-0.2c-1.1,1.6-2.4,3.1-3.9,4.4c0.6,0,1.2,0,1.8,0c-0.1-0.4-0.1-0.7-0.2-1.1l1.7-0.5c0.2,0.9,0.5,2.1,0.8,3.6l-1,0.4
	c0.3,0.8,0.6,1.6,0.8,2.5l0.4,0.2V18h6.1v4.7h-4.7l-0.7,0.9H134v2.2h-2.6c-0.8,1.1-1.8,2-2.9,2.7c2.3,0.4,4.7,0.6,7.1,0.6l-0.8,2.7
	c-3.4-0.1-6.8-0.7-10-1.7c-3.5,1-7.2,1.5-10.9,1.6l-1-2.6c2.9,0,5.8-0.2,8.6-0.5c-1.1-0.6-2.2-1.4-3.1-2.3c-1.3,0.8-2.8,1.5-4.3,2
	l-0.9-2.6c1.6-0.4,3.1-1,4.4-1.8c0.7-0.5,1.3-1.2,1.9-1.9l-1,0.3c-0.1-1-0.4-2.1-0.7-3.1l0.6-0.1c0-0.2,0-0.4-0.1-0.6
	c-1.6,0.1-3.4,0.2-5.2,0.3l-0.3-2h0.8c0.7-0.6,1.4-1.2,2.1-1.9c-0.8,0.2-1.7,0.3-2.5,0.3L113,13c0.3,0,0.5,0,0.8,0.1
	c0.8-1,1.4-2.2,1.7-3.5L117.9,10.3z M117.9,22.8l-1.9,0.1v-3.5l1.5-0.1C117.7,20.4,117.8,21.6,117.9,22.8z M127.1,13.2v1.7h-6.2
	v-1.7H127.1z M127,15.6v1.7h-6.1v-1.7L127,15.6z M124.8,27.6c0.1,0,0.1,0.1,0.2,0c1.1-0.4,2.2-1.1,3.1-1.9h-7
	C122.2,26.6,123.5,27.2,124.8,27.6L124.8,27.6z M124.7,19.7h-1.5V21h1.5V19.7z M129.9,19.4c-0.1,1.2-0.4,2.5-0.9,3.6l-1.9-0.8
	c0.5-1,0.9-2.1,1-3.3L129.9,19.4z M132.2,10.1c-0.5,1.1-1.1,2.1-1.9,3l-0.1,0.1c0.3,0,0.6,0,0.7,0h0.6c0.4-0.6,0.8-1.3,1.2-2
	l2.2,0.9c-1.2,1.7-2.6,3.3-4.1,4.7c0.6,0,1.3,0,1.9,0c-0.1-0.4-0.2-0.8-0.3-1.1l1.7-0.5c0.5,1.1,0.9,2.2,1.2,3.4l-1,0.4
	c0.3,1.1,0.6,2.3,0.8,3.5l-2.1,0.6c-0.1-1.1-0.2-2.3-0.5-3.6l0.8-0.2c-0.1-0.2-0.1-0.3-0.1-0.5c-1.8,0.1-3.6,0.2-5.6,0.3l-0.3-2h0.9
	c0.8-0.6,1.5-1.3,2.2-2c-0.9,0.2-1.7,0.3-2.6,0.4l-0.3-2.1c0.2,0,0.4,0,0.6,0c0.8-1.1,1.5-2.3,1.8-3.6L132.2,10.1z M132.3,23
	l-1.9,0.1v-3.8l1.5-0.1C132.1,20.5,132.3,21.7,132.3,23z"/>
<path d="M150.7,11.7c-1.5,0.3-3,0.6-4.5,0.7v1h5v2.3h-5v0.9h4.5v8h-4.5v0.9h4.4v2.2h-4.4v1c1.6-0.1,3.1-0.2,4.6-0.4
	c1.2-3.2,1.8-6.7,1.7-10.1v-0.8h-1v-2.8h1v-5h2.9v5h4.4l-0.1,9.3c0,3.8-0.4,6-0.9,6.8s-1.8,1.1-3.9,1.1l-0.5-3.3
	c0.3,0.1,0.7,0.1,1.1,0.1c0.3,0,0.6-0.1,0.8-0.3c0.3-0.4,0.4-1.8,0.5-4.2l0.1-6.7h-1.4v0.8c0.1,4.8-0.8,9.6-2.7,14l-1.8-1.5
	c-4.2,0.6-8.4,1-12.7,1.1l-0.5-2.8c1.8,0,3.6,0,5.3-0.1v-1.2h-4.3v-2.2h4.3v-0.9h-4.5v-8h4.5v-0.9H138v-2.3h5.1v-0.8
	c-1.3,0.1-2.6,0.1-4,0.1l-0.8-2.5c3.8,0.1,7.6-0.2,11.3-0.8L150.7,11.7z M143.4,19.7v-1.1h-2v1.1H143.4z M143.4,21.5h-2v1.1h2V21.5z
	 M145.9,19.7h2.1v-1.1h-2.1V19.7z M148.1,21.5H146v1.1h2.1V21.5z"/>
<path d="M166,14.2c-0.1,2.5-0.3,4.6-0.5,6.4L163,20c0.4-2,0.6-4,0.8-6L166,14.2z M169.4,9.5v5.1l1.4-0.5c0.6,1.3,1.2,2.6,1.6,4
	l-2.2,1.1c-0.3-1.1-0.6-2.1-0.9-3.1v16h-3V9.5H169.4z M175,12.9V9.5h3v3.4h5.5V20h1.7v2.7h-4.7c0.4,1.2,0.9,2.4,1.6,3.4
	c0.8,1.2,1.9,2.3,3.2,3l-1.8,3.1c-1.6-1.1-2.9-2.5-3.8-4.2c-0.9-1.7-1.6-3.4-2.1-5.3h-0.2c-0.2,1.2-0.6,2.5-1.1,3.6
	c-1,2.3-2.7,4.3-4.8,5.6l-1.7-2.8c1.8-1,3.1-2.6,3.9-4.4c0.3-0.7,0.5-1.4,0.7-2.1h-3.9V20h4.4c0.1-1.1,0.1-2.2,0.1-3.4v-1h-3.3v-2.7
	L175,12.9z M178,16.6c0,1.2,0,2.4-0.1,3.4h2.8v-4.4H178V16.6z"/>
<path d="M200.4,23.6c-0.6,0.7-1.4,1.2-2.2,1.7l-1.1-1.6c0.9-0.3,1.6-1,2-1.8h-1.5v-3.5h3.5v2.7C201.2,22,200.9,22.9,200.4,23.6z"/>
<path d="M226.4,9.9c2.5,3.2,5.8,5.8,9.6,7.4l-1.5,3.5c-3.7-2.1-7.1-4.8-9.9-8.1c-2.8,3.3-6.1,6-9.9,8l-1.5-3.5
	c3.8-1.6,7.1-4.1,9.6-7.3L226.4,9.9z M227.4,16.5v4.1h5.5v2.9h-5.5v4.9h7.7v3h-21v-3h3.3v-9.1h3.1v9.1h3.6V16.5H227.4z"/>
<path d="M248.8,9.5v3.7h1.5V9.5h3.1v3.7h2.1l-1.3-1.1c1-0.7,1.9-1.5,2.7-2.4l2.6,1.6c-0.6,0.7-1.3,1.4-2,2h3.2v2.5h-4.5
	c-0.3,0.6-0.6,1.1-1,1.6h4.9v2.4h-8.7v1.1h8.1V23h-8.1v1.2h9.5v2.4h-6.7c0.5,0.3,1.1,0.6,1.7,0.8c1.8,0.6,3.6,1.1,5.4,1.3l-1.6,2.7
	c-2.1-0.5-4.1-1.3-5.9-2.4c-0.9-0.5-1.7-1.2-2.4-1.9v4.8H248V27c-0.8,0.8-1.8,1.5-2.8,2.1c-1.8,1-3.7,1.7-5.7,2.3l-1.3-2.9
	c2.2-0.3,4.4-1,6.4-2h-6.1v-2.4h9.5V23h-8.2v-2.1h8.2v-1.1h-8.8v-2.4h5.1c-0.3-0.6-0.6-1.1-0.9-1.6h-4.7v-2.5h3.2
	c-0.6-0.7-1.2-1.3-1.9-1.9l2.3-1.6c1,0.7,1.9,1.5,2.7,2.3l-1.5,1.1h2.5V9.5H248.8z M251.6,17.3c0.4-0.5,0.7-1.1,1-1.6h-5.9
	c0.3,0.5,0.5,1.1,0.7,1.6H251.6z"/>
<path d="M271.1,12.4c-1.1,0.5-2.3,0.9-3.5,1.1l0.1,1.4h2.8v2.5h-2.7l0.1,2.1h2.6V22H268l0.1,2.2h3.1v-6.1h2.8v6.1h1.4v-7h-4.1V9.5
	h2.9v1.4h4.1v2.5h-4.1v1.3h4v9.5h3.5V22h-2.8v-2.5h2.9v-2.1h-2.9v-2.5h3V13h-3.2v-2.7h6.2l-0.4,13.9h1.6V27h-6.4
	c2.1,0.6,4.2,1.3,6.2,2.1l-1.5,3c-2.4-1.3-4.8-2.3-7.4-3.1l1.4-2H271l1.6,1.8c-2.4,1.5-4.9,2.5-7.6,3.2l-1.5-3.1
	c2.2-0.4,4.4-1,6.4-2h-6.5v-2.8h1.9l-0.5-12.9c1.8-0.2,3.6-0.8,5.2-1.6L271.1,12.4z"/>
<path d="M295.5,10.4c-0.7,1.8-1.6,3.5-2.7,5.1l0,0c0.6,0,1.2-0.1,1.8-0.2c0.6-1,1.2-2.1,1.8-3.1l2.5,1.5c-1.6,2.7-3.5,5.3-5.6,7.6
	c0.9-0.1,1.8-0.2,2.7-0.4c-0.2-0.7-0.4-1.3-0.6-1.9l2.1-0.6c0.7,1.6,1.2,3.2,1.6,4.9l-2.5,0.9c-0.1-0.4-0.1-0.7-0.2-1
	c-2.4,0.5-4.8,1-7.2,1.4l-0.5-2.9c0.4,0,0.8,0,1.2,0c1-1.1,1.9-2.2,2.7-3.4c-1.1,0.1-2.2,0.3-3.4,0.4l-0.5-2.7c0.3,0,0.6,0,0.9,0
	c1.3-1.9,2.2-4,2.8-6.2L295.5,10.4z M291.9,25.1c0,2-0.1,4.1-0.4,6.2l-2.7-0.3c0.4-2,0.7-4,0.8-6L291.9,25.1z M295.5,30.1l-2.6,0.4
	c0-1.7-0.1-3.5-0.3-5.4l2.2-0.2C295,26.4,295.3,28.1,295.5,30.1z M299,28.5h0.4V10.4h10.4v18.1h1.2v2.7h-13.3v-1.7l-1,0.4
	c-0.3-1.7-0.6-3.3-1.1-4.9l2.1-0.6C298.1,25.8,298.6,27.1,299,28.5L299,28.5z M306.8,16.5v-3.4h-4.3v3.4H306.8z M306.8,22.5v-3.3
	h-4.3v3.4L306.8,22.5z M306.8,28.5v-3.4h-4.3v3.5L306.8,28.5z"/>
<path d="M316.5,25c0,2.1-0.2,4.2-0.4,6.2l-2.4-0.3c0.4-2,0.7-4,0.8-6.1L316.5,25z M319.6,10.6c-0.6,1.7-1.3,3.4-2.2,5
	c0.4,0,0.9-0.1,1.3-0.2c0.5-1,1-2,1.4-3.1l1.7,1.1v-1.8h2.7c-0.2-0.5-0.4-1-0.6-1.5l2.9-0.3c0.2,0.6,0.4,1.2,0.5,1.8h2.5v2.3h-0.5
	c-0.1,0.8-0.3,1.6-0.5,2.4h1.3V9.8h2.5v6.5h3.4v2.4h-3.3c0,1.8,0.1,3.3,0.2,4.6c0.5-1.2,0.8-2.4,1-3.7l2.3,1.2
	c-0.5,2.2-1.3,4.3-2.5,6.2l-0.1,0.2c0.3,1,0.5,1.5,0.7,1.5c0.4,0,0.6-0.9,0.6-2.7l1.8,1.1c-0.2,2.2-0.7,3.6-1.3,4.1
	c-0.3,0.4-0.7,0.6-1.2,0.7c-0.9,0-1.7-0.7-2.4-2.2c-0.7,0.8-1.4,1.5-2.2,2.2l-2.3-1.7c0.4-0.3,0.8-0.6,1.2-1H325v1.2h-2.6v-1.1
	l-1.8,0.7c-0.2-1.7-0.5-3.4-1-5.1l1.7-0.5c0.4,1.2,0.8,2.4,1.1,3.6v-4.4l-1.8,0.7c0-0.4-0.1-0.8-0.2-1.1c-2,0.5-3.9,1-5.9,1.3
	l-0.5-2.9c0.4,0,0.7,0,1.1,0c0.8-1.1,1.5-2.3,2.2-3.5c-0.9,0.1-1.9,0.3-3,0.4l-0.4-2.6c0.3,0,0.6,0,0.9,0c1-1.9,1.7-3.9,2.1-6
	L319.6,10.6z M319.5,30.4l-2.3,0.3c0-1.8-0.1-3.6-0.3-5.7l2-0.1C319.2,26.4,319.4,28.2,319.5,30.4L319.5,30.4z M330.7,26.7
	c-0.4-2.6-0.6-5.3-0.6-8h-8.8v-2.4h1.8c-0.2-0.9-0.4-1.7-0.6-2.4h-0.4c-1.2,2.6-2.7,5-4.3,7.4c0.7-0.1,1.3-0.2,2-0.3
	c-0.1-0.6-0.3-1.2-0.4-1.7l1.7-0.5c0.4,1.2,0.8,2.4,1.1,3.6v-2.5h7.2v8.5C329.8,27.8,330.3,27.3,330.7,26.7L330.7,26.7z M326.8,23.4
	V22h-2v1.4H326.8z M326.8,26.9v-1.5h-2v1.5H326.8z M326.3,16.3c0.2-0.8,0.4-1.6,0.5-2.4H325c0.2,0.8,0.4,1.6,0.5,2.4H326.3z
	 M336.2,14.9l-2.4,0.9c-0.3-1.3-0.6-2.6-1.1-3.9l2-0.6C335.3,12.5,335.8,13.7,336.2,14.9L336.2,14.9z"/>
<path d="M361.3,21v2.4h-11c-0.1,0.4-0.2,0.8-0.3,1.1h10v5.3c0,1.3-0.9,2-2.7,2H355l-0.4-2.5c1,0.1,1.6,0.1,1.7,0.1
	c0.4,0,0.7-0.2,0.7-0.6v-2.1h-2.9v4.5h-2.9v-4.5h-2.5v4.7h-2.9v-4.7h-2.7v5.2h-3v-7.4h6.3c0.1-0.4,0.2-0.8,0.3-1.1h-8.2V21H361.3z
	 M360,10v2.4h-8.4v1h9.1v5.8h-3.1v-3.9h-6v5.1h-3v-5.1h-6.1v3.8h-3.1v-5.8h9.2v-1h-8.3V10H360z M347.7,16.1v1.6h-4.6v-1.6H347.7z
	 M347.7,18.4V20h-4.6v-1.6H347.7z M357,16.1v1.6h-4.7v-1.6H357z M356.9,18.4V20h-4.6v-1.6H356.9z"/>
<path d="M385.5,10.2v2.6h-6.3v1.5h5.4v6.8h-9.3c-0.2,0.4-0.5,0.8-0.8,1.1h11v2.5H382c-0.6,1-1.4,2-2.2,2.8c2.1,0.5,4,1.1,5.9,1.6
	l-1.8,2.5c-2.2-0.9-4.4-1.7-6.7-2.3c-0.2,0.1-0.4,0.2-0.6,0.3c-3.5,1.4-7.3,2.1-11.1,2.2l-1.2-2.8c2.9,0.1,5.8-0.2,8.6-0.8
	c-2-0.4-4-0.9-6.1-1.3c0.8-0.7,1.5-1.5,2.2-2.3h-4.4v-2.5h6.5c0.3-0.4,0.6-0.8,0.9-1.1h-6.4v-6.8h5.4v-1.5h-6.2v-2.6L385.5,10.2
	L385.5,10.2z M371,16.7h-2.4v2.2h2.4V16.7z M372.6,24.8c-0.3,0.4-0.6,0.8-1,1.1c1.6,0.3,3.2,0.6,4.7,0.9c0.8-0.6,1.5-1.3,2.1-2.1
	h-5.8V24.8z M376.3,12.8h-2.5v1.5h2.5V12.8z M376.3,16.7h-2.5v2.2h2.5V16.7z M381.7,16.7h-2.5v2.2h2.5V16.7z"/>
<path d="M410.8,10.4v2.7h-9v1.1h7.7v10.2h-7.7c0,1.1-0.2,2.2-0.7,3.2c2.5,0.5,5,0.7,7.5,0.7h2.8l-0.9,3.1c-4.9,0-8.6-0.4-11.2-1.3
	c-0.1,0-0.2-0.1-0.3-0.1c-0.6,0.4-1.3,0.7-2,0.9c-2.3,0.7-4.7,1-7.1,0.9l-0.7-2.9c2.1,0,4.2-0.2,6.3-0.6c-1.4-0.8-2.8-1.8-3.9-3
	l1.2-0.9H391V14.3h7.6v-1.2h-8.8v-2.7C389.8,10.4,410.8,10.4,410.8,10.4z M398.7,18.1v-1.2h-4.5v1.2H398.7z M398.7,20.5h-4.5v1.4
	h4.5V20.5z M398,26.7c0.4-0.7,0.6-1.4,0.6-2.2h-4C395.7,25.4,396.8,26.2,398,26.7z M401.8,18.1h4.5v-1.2h-4.5V18.1z M406.4,20.5
	h-4.5v1.4h4.5V20.5z"/>
<path d="M417.1,14.2c-0.1,2.5-0.3,4.6-0.5,6.4l-2.5-0.6c0.4-2,0.6-4,0.8-6L417.1,14.2z M420.5,9.5v5.1l1.4-0.5
	c0.6,1.3,1.2,2.6,1.6,4l-2.2,1.1c-0.3-1.1-0.6-2.2-0.9-3.1v16h-3V9.5H420.5z M426.1,12.9V9.5h3.1v3.4h5.5V20h1.7v2.7h-4.6
	c0.4,1.2,0.9,2.4,1.6,3.4c0.8,1.2,1.9,2.3,3.2,3l-1.8,3.1c-1.6-1.1-2.9-2.5-3.8-4.2s-1.6-3.4-2.1-5.3h-0.2c-0.2,1.2-0.6,2.5-1.1,3.6
	c-1,2.3-2.7,4.3-4.9,5.6l-1.7-2.8c1.8-1,3.1-2.6,4-4.4c0.3-0.7,0.5-1.4,0.7-2.1h-4V20h4.5c0.1-1.1,0.1-2.2,0.1-3.4v-1H423v-2.7
	L426.1,12.9z M429.2,16.6c0,1.2,0,2.4-0.1,3.4h2.8v-4.4h-2.7L429.2,16.6L429.2,16.6z"/>
<path d="M445.6,15.6c-0.5,1.8-1.1,3.5-1.8,5.2h2.6c-0.3,2.2-0.9,4.4-1.8,6.4c0,0.1-0.1,0.2-0.1,0.2c0.5,0.4,1,0.6,1.5,0.8
	c1.1,0.4,3.5,0.6,7.2,0.6c1,0,3.9-0.1,8.7-0.4l-0.5,3.1l-4.4,0.1c-6.2,0-10.2-0.3-11.8-0.9c-0.8-0.3-1.5-0.7-2.1-1.2
	c-0.6,0.9-1.3,1.7-2.1,2.5l-2.1-2.5c1.1-0.9,2-1.9,2.7-3.1c0.6-0.9,1-2,1.2-3.1h-3c0.8-1.7,1.5-3.5,2.1-5.3h-2.8v-2.6h6.5V15.6z
	 M445.8,13.1l-2.6,2c-1.1-1.4-2.3-2.7-3.7-3.8l2.4-1.6C443.3,10.7,444.6,11.8,445.8,13.1z M452.3,10.9V9.5h3.1v1.4h6.4v2.5h-6.4v1.4
	h5.5v6.8h-5.5V22c2.1,0.8,4.2,1.7,6.1,2.8l-1.5,2.4c-1.4-1-3-1.9-4.6-2.6v3.8h-3.1V24c-1.3,1.6-2.9,3-4.8,4l-1.8-2.8
	c2.1-0.7,3.9-1.9,5.4-3.4h-4.3V15h5.5v-1.4H446v-2.5h6.3V10.9z M452.3,17.1h-2.6v2.2h2.6V17.1z M458,17.1h-2.7v2.2h2.7V17.1z"/>
<path d="M472.3,10.4c-0.3,1.1-0.7,2.2-1.2,3.2h3.4v2.7c1.3-2,2.3-4.2,2.8-6.6l3.3,0.5c-0.4,1.3-0.8,2.5-1.3,3.8h7l-0.1,7.2
	c-0.1,4.9-0.7,8-1.6,9.1c-0.7,1-2,1.4-3.9,1.4h-2.3l-0.8-3.3c1.7,0.1,2.7,0.2,3.1,0.2c0.7,0.1,1.4-0.4,1.6-1c0.3-0.9,0.5-3.2,0.6-7
	v-4h-5.2c-0.6,1-1.3,2.1-2.1,3l-1.2-1.8v13.3h-2.9v-1.6h-3.4v1.9h-2.9V13.7h2.4c0.6-1.3,1.2-2.6,1.6-4L472.3,10.4z M471.6,20.2v-3.9
	h-3.4v3.9H471.6z M471.6,27.1v-4.2h-3.4v4.2C468.2,27.1,471.6,27.1,471.6,27.1z M481.4,24.9l-2.6,2c-0.8-2.2-1.8-4.3-3.1-6.2
	l2.4-1.6C479.4,20.9,480.5,22.8,481.4,24.9z"/>
<path d="M495.4,9.8c-0.2,0.3-0.3,0.7-0.5,1h6.1v1.6c0.9-0.8,1.6-1.9,2.1-3l2.7,0.3c-0.2,0.4-0.3,0.7-0.5,1.1h6.4V13h-3.6
	c0.3,0.5,0.5,1.1,0.7,1.6l-2.9,0.3c-0.1-0.6-0.2-1.3-0.4-1.9H504c-0.4,0.5-0.7,1-1.1,1.5l-0.5-0.4c0,0.4,0.1,0.8,0.2,1.1h8.8V20H509
	v4.3h-13.4v1.1H510v6.5h-3.1V31h-11.4v0.9h-3.1v-12h-2.2v-4.7h8.9c-0.1-0.4-0.3-0.8-0.4-1.1l3.3-0.3l-1.2-0.9h-3.4
	c0.2,0.5,0.4,1,0.5,1.5l-2.9,0.3c-0.1-0.6-0.2-1.2-0.4-1.8h-1.2c-0.5,0.8-1.1,1.5-1.7,2.2l-2.4-1.7c1.4-1,2.6-2.4,3.3-4L495.4,9.8z
	 M508.2,18.9v-1.3h-14.9v1.3H508.2z M505.9,22.2V21h-10.3v1.1L505.9,22.2z M506.9,29v-1.2h-11.3V29H506.9z"/>
<path d="M522.7,11.1v2.6h-2.3V18h1.9v2.7h-1.9v4.1c0.8-0.2,1.6-0.5,2.4-0.8v2.9c-2.5,0.9-5,1.6-7.6,2.2l-0.6-3.1
	c0.9-0.1,1.9-0.3,2.8-0.5v-4.8h-2.2V18h2.2v-4.3H515v-2.6H522.7z M536.1,10.6v11.9h-5v1.7h4.6v2.5h-4.6v1.9h6v2.8h-15.4v-2.8h6.5
	v-1.9h-4.6v-2.5h4.6v-1.7h-5V10.6H536.1z M528.2,15.4V13h-2.1v2.4H528.2z M528.2,17.6h-2.1v2.5h2.1V17.6z M531.2,15.4h2.1V13h-2.1
	V15.4z M533.3,17.6h-2.1v2.5h2.1V17.6z"/>
<path d="M553,13h8.6v3h-11.5c0,1-0.1,2-0.2,2.9h9.8l-0.2,4.8c-0.1,3.8-0.7,6.1-1.7,7c-0.8,0.7-2.2,1.1-4.1,1.1h-2.9l-0.8-3.4
	c2,0.1,3.2,0.2,3.7,0.2c0.6,0.1,1.3-0.1,1.7-0.6c0.4-0.6,0.6-2.1,0.7-4.6l0.1-1.7h-6.9c-0.3,1.1-0.7,2.2-1.2,3.3
	c-1.5,2.8-3.7,5.2-6.3,7l-2-3.1c2-1.2,3.7-2.9,4.9-4.9c1.2-2.3,1.8-4.8,1.8-7.4V16h-5.9v-3h8.8c-0.3-1-0.6-2-1-3l3.8-0.4
	C552.5,10.8,552.8,11.9,553,13z"/>
<path d="M571.7,22.8c-0.9,3.1-2.1,6.1-3.8,8.8l-3.2-1.8c1.8-2.4,3.2-5.1,4.1-8L571.7,22.8z M571.4,18.5l-2.3,2.5
	c-1.3-1.3-2.6-2.5-4.1-3.6l2-2.1C568.6,16.2,570,17.3,571.4,18.5L571.4,18.5z M572.8,12.8l-2.2,2.4c-1.2-1.2-2.6-2.4-4-3.4l1.9-2
	C570,10.7,571.4,11.7,572.8,12.8z M577.4,12.9V9.5h3.2v3.4h4.9v2.8h-4.9v3.6h6.5v2.8h-7.5c-0.8,1.9-1.8,3.7-3,5.4
	c1.7-0.1,3.5-0.2,5.4-0.4c-0.5-1-1.1-1.9-1.7-2.8l2.7-0.9c1.7,2.3,3.1,4.7,4.3,7.3l-3,1.4c-0.3-0.9-0.7-1.7-1-2.5
	c-3.9,0.6-7.8,1.1-11.7,1.5l-0.6-3.4c0.6,0,1.3,0,2,0c1.3-1.7,2.3-3.6,3.1-5.5h-4.6v-2.8h5.8v-3.7H573v-2.8
	C573,12.9,577.4,12.9,577.4,12.9z"/>
</svg>
