<?xml version="1.0" encoding="utf-8"?>
<!-- Generator: Adobe Illustrator 26.0.3, SVG Export Plug-In . SVG Version: 6.00 Build 0)  -->
<svg version="1.1" id="圖層_1" xmlns="http://www.w3.org/2000/svg" xmlns:xlink="http://www.w3.org/1999/xlink" x="0px" y="0px"
	 viewBox="0 0 1537.9 847.6" style="enable-background:new 0 0 1537.9 847.6;" xml:space="preserve">
<style type="text/css">
	.st0{fill:#505AA7;}
	.st1{fill:url(#SVGID_1_);}
	.st2{fill:url(#SVGID_00000041267340483484646390000010907261073114356386_);}
	.st3{fill:url(#SVGID_00000129902976422582809250000002036244362388369281_);}
	.st4{fill:url(#SVGID_00000013894875611468650070000012964089222950548116_);}
	.st5{fill:url(#SVGID_00000042003293506385030390000013445289397597207705_);}
	.st6{fill:url(#SVGID_00000075157218989212674310000010819857551035437994_);}
	.st7{fill:url(#SVGID_00000048482456616731251070000018403077217658877830_);}
	.st8{fill:url(#SVGID_00000096776997154595744920000016166925587567485312_);}
	.st9{fill:none;stroke:#EC6D6E;stroke-width:4;stroke-linecap:round;stroke-miterlimit:10;}
	.st10{fill:none;stroke:#EC6D6E;stroke-width:4;stroke-miterlimit:10;stroke-dasharray:5,3;}
	.st11{fill:none;stroke:#7387C3;stroke-width:4;stroke-linecap:round;stroke-miterlimit:10;}
	.st12{fill:#7387C3;}
	.st13{fill:#EC6D6E;}
	.st14{fill:none;stroke:#7387C3;stroke-width:4;stroke-miterlimit:10;stroke-dasharray:5,3;}
	.st15{opacity:0.32;fill:#EC6D6E;enable-background:new    ;}
	.st16{opacity:0.69;fill:#EC6D6E;enable-background:new    ;}
	.st17{opacity:0.32;fill:#7387C3;enable-background:new    ;}
	.st18{opacity:0.69;fill:#7387C3;enable-background:new    ;}
	.st19{fill:#BBBAB7;}
	.st20{fill:none;stroke:#7387C3;stroke-width:4;stroke-miterlimit:10;}
	.st21{fill:none;stroke:#EC6D6E;stroke-width:4;stroke-miterlimit:10;}
	.st22{fill:none;stroke:#505AA7;stroke-width:4;stroke-miterlimit:10;stroke-dasharray:5,3;}
	.st23{fill:none;stroke:#505AA7;stroke-width:4;stroke-miterlimit:10;}
	.st24{fill:none;stroke:#505AA7;stroke-width:3;stroke-miterlimit:10;}
	.st25{fill:none;stroke:#BBBAB7;stroke-width:4;stroke-linecap:round;stroke-linejoin:round;stroke-miterlimit:10;}
	.st26{fill:none;stroke:#BBBAB7;stroke-width:4;stroke-linejoin:round;stroke-miterlimit:10;}
	.st27{fill:none;stroke:#A09E9A;stroke-width:1.2128;stroke-miterlimit:10;}
	.st28{fill:#BBBAB7;stroke:#BBBAB7;stroke-width:2;stroke-linecap:round;stroke-linejoin:round;stroke-miterlimit:10;}
	.st29{fill:none;stroke:#EC6D6E;stroke-width:3;stroke-miterlimit:10;}
	.st30{fill:none;stroke:#A09E9A;stroke-width:3;stroke-miterlimit:10;}
	.st31{fill:none;stroke:#505AA7;stroke-width:3;stroke-linecap:round;stroke-miterlimit:10;}
	.st32{fill:none;stroke:#EC6D6E;stroke-width:3;stroke-linecap:round;stroke-miterlimit:10;}
	.st33{fill:none;stroke:#7387C3;stroke-width:3;stroke-miterlimit:10;}
	.st34{fill:none;stroke:#BBBAB7;stroke-width:3;stroke-linejoin:round;stroke-miterlimit:10;}
	.st35{fill:#E84747;}
	.st36{fill:none;stroke:#505AA7;stroke-width:1.5;stroke-miterlimit:10;}
	.st37{fill:#FFFFFF;}
	.st38{fill:url(#SVGID_00000141421831728437794470000013197640439397045645_);}
	.st39{fill:url(#SVGID_00000075134526901358553820000003457855350010419331_);}
	.st40{fill:url(#SVGID_00000013898921517404447730000017774746902998144665_);}
	.st41{fill:url(#SVGID_00000065774985587108923370000005003285821037389715_);}
	.st42{fill:none;stroke:#EC6D6E;stroke-width:6.729;stroke-linecap:round;stroke-miterlimit:10;}
	.st43{fill:none;stroke:#EC6D6E;stroke-width:6.0346;stroke-miterlimit:10;stroke-dasharray:15.0864,9.0518;}
	.st44{fill:none;stroke:#7387C3;stroke-width:6.729;stroke-linecap:round;stroke-miterlimit:10;}
	.st45{fill:none;stroke:#7387C3;stroke-width:6.0346;stroke-miterlimit:10;stroke-dasharray:15.0864,9.0518;}
	.st46{opacity:0.32;fill:#EC6D6E;}
	.st47{opacity:0.69;fill:#EC6D6E;}
	.st48{opacity:0.32;fill:#7387C3;}
	.st49{opacity:0.69;fill:#7387C3;}
	.st50{fill:none;stroke:#7387C3;stroke-width:6.0346;stroke-miterlimit:10;}
	.st51{fill:none;stroke:#EC6D6E;stroke-width:6.0346;stroke-miterlimit:10;}
	.st52{fill:none;stroke:#505AA7;stroke-width:6.0346;stroke-miterlimit:10;stroke-dasharray:15.0864,9.0518;}
	.st53{fill:none;stroke:#505AA7;stroke-width:6.0346;stroke-miterlimit:10;}
	.st54{fill:none;stroke:#505AA7;stroke-width:3.4699;stroke-miterlimit:10;}
	.st55{fill:none;stroke:#BBBAB7;stroke-width:6.0346;stroke-linecap:round;stroke-linejoin:round;stroke-miterlimit:10;}
	.st56{fill:none;stroke:#BBBAB7;stroke-width:6.0346;stroke-linejoin:round;stroke-miterlimit:10;}
	.st57{fill:none;stroke:#A09E9A;stroke-width:3.6595;stroke-miterlimit:10;}
	.st58{fill:#BBBAB7;stroke:#BBBAB7;stroke-width:6.0346;stroke-linecap:round;stroke-linejoin:round;stroke-miterlimit:10;}
	.st59{fill:none;stroke:#EC6D6E;stroke-width:3.6595;stroke-miterlimit:10;}
	.st60{fill:none;stroke:#505AA7;stroke-width:3.6595;stroke-miterlimit:10;}
	.st61{fill:none;stroke:#505AA7;stroke-width:3.6595;stroke-linecap:round;stroke-miterlimit:10;}
	.st62{fill:none;stroke:#EC6D6E;stroke-width:3.6595;stroke-linecap:round;stroke-miterlimit:10;}
	.st63{fill:none;stroke:#7387C3;stroke-width:3.6595;stroke-miterlimit:10;}
	.st64{fill:none;stroke:#BBBAB7;stroke-width:3.6207;stroke-linejoin:round;stroke-miterlimit:10;}
	.st65{fill:none;stroke:#505AA7;stroke-width:4.5259;stroke-miterlimit:10;}
	.st66{fill:#F8EA96;}
	.st67{opacity:0.54;}
	.st68{fill:#E9EBB5;}
	.st69{clip-path:url(#SVGID_00000159452262548326173150000008682882627319877034_);fill:#409DCF;}
	.st70{fill:#211D1E;}
</style>
<g>
	<g id="圖層_1_1_">
		<path class="st0" d="M1594.1-165.3h-29.8v9.8c0,8.7-1.7,13.4-8,16s-14.3,2.6-24.7,2.6c-1-6-2.9-11.9-5.5-17.4
			c5.7,0.3,13.8,0.3,15.8,0.3s2.9-0.5,2.9-2.2v-9.1H1513c4,3,7.6,6.4,10.9,10.2l-14.7,12.5c-3.9-5.4-12.7-13.2-19.8-18.6l5-4.1
			h-26.9v-15.6h77.5v-3.6c-26.5,0.7-51.8,1.1-70.8,1.2l-0.5-14c12.7,0.1,29.1,0.1,47.1,0.1v-3.5h-38.5v-41.1h38.5v-3.3h-49.5V-260
			h49.5v-7.9h19.7v7.9h49.2v14.9h-49.4v3.3h40.7v41.1h-6.5c5.1,3,10,6.4,14.8,9.9l-12.1,9.9c-1.7-1.5-3.4-2.9-5.2-4.3l-7.6,0.3v4
			h29.8L1594.1-165.3L1594.1-165.3z M1500.9-226.7h19.7v-3.3h-19.7V-226.7z M1520.6-212.4v-3.4h-19.7v3.4H1520.6z M1540.3-230v3.3
			h21v-3.3H1540.3z M1561.3-215.8h-21v3.4h21V-215.8z M1540.3-200.6v3.6h12.8c-1.1-0.7-2.3-1.2-3.5-1.8l2.5-1.8L1540.3-200.6z"/>
		<path class="st0" d="M1703.5-166.4c9.7,5.1,20.4,11.6,26.6,16.5l-15.8,13.8c-7-6.5-22.5-16.1-34-22.3l9.4-8h-13.5v29.4h-20.1
			v-29.4h-19.4l14.8,4.8c-7.9,9.5-21.2,18.2-32.5,23.3c-5.4-4.8-11.1-9.3-17.1-13.2c10.6-3.3,21.4-8.8,27.7-14.9h-26.2v-16.3h52.7
			v-7.9c-12.8,2.8-28.1,4.1-46.5,5.1c-1.4-5.7-3.7-11.2-6.8-16.3c14-0.3,26-0.8,36.2-2.2c-6.3-1.2-12.8-2.3-19.4-3.3
			c3.2-3,6.8-6.5,10.2-10.2h-25.5v-15.4h38.7c2.6-3.4,5.1-6.8,7.2-10.1h-25.1v5.6h-18.5v-21.9h46.9l-1.9-4.4l21.6-4.3
			c1.4,2.6,3.2,5.7,4.7,8.7h48.5v21.9h-18.1l1.5,0.3c-0.4,1.4-1,2.8-1.5,4.1h20.1v15.4h-27.8c-2.2,3.5-4.9,6.6-7.9,9.5
			c14.2,3.5,27,7.2,36.8,10.6l-18.8,13.1c-11.8-4.7-23.9-8.6-36.2-11.6c-5.2,2.1-10.5,3.7-15.8,5h17.5v8.4h53.9v16.3L1703.5-166.4z
			 M1649.8-216.8c6.8,1.2,13.5,2.5,20.1,3.9c2.2-1.3,4.2-2.8,6.2-4.4h-25.6L1649.8-216.8z M1670.9-240.7c-1.9,2.6-4,5.2-6.1,7.9
			h22.3c1.1-2.6,2.1-5.2,2.9-7.9l17.1,3.2v-5.4h-43.7L1670.9-240.7z"/>
		<path class="st0" d="M1866.4-245.3h-20.5c3,2.3,5.8,4.8,8.4,7.6l-9.4,8.3h18v25h-17.4v26.7h-66.4v4.4h73.9v36.8h-20v-3.3h-53.9
			v3.3h-20.4v-67.9h-17.5v-25h7.2c-3.6-4-7.3-7.8-11.3-11.4c8.6-7.8,15.2-17.4,19.6-28.2l17.7,5.2c-0.5,1.2-1.1,2.5-1.7,3.7h27.3
			v11.2c6.1-5.6,10.8-12.5,13.9-20.1l18.2,4.8c-0.5,1.4-1.2,2.8-1.8,4.1h36.1L1866.4-245.3L1866.4-245.3z M1764.4-245.2
			c-3.6,5.5-7.6,10.8-12,15.7h24c-3.4-3.9-7-7.6-11-10.9l5.4-4.8L1764.4-245.2z M1842.6-214.7h-82v4.3h82V-214.7z M1826-196.4h-46.9
			v4.5h46.9V-196.4z M1779.2-159v4.7h53.9v-4.7H1779.2z M1806.1-239.9c-2.3-1.8-4.7-3.7-6.9-5.2h-15c2.2,1.8,4.3,3.9,6.2,6.1
			l-10.3,9.6h13.2c-1.1-2.5-2.2-5-3.5-7.2L1806.1-239.9z M1837.9-229.5c-3.9-3.8-8.1-7.4-12.4-10.8l6.1-5.1h-10.2
			c-2.8,3.8-6,7.4-9.5,10.6c-0.5-0.5-1.2-1.2-2.1-1.9c1.4,2.3,2.6,4.7,3.6,7.2L1837.9-229.5z"/>
		<path class="st0" d="M1922.4-163.9c-15.6,5.4-32.7,10.9-46.4,15.3l-4.4-20.4c4.6-1.1,9.9-2.6,15.8-4.3v-29.4h-13v-18.4h13v-21.1
			h-14.2v-18.5h47.3v18.5h-14.1v21.1h11.6v18.4h-11.6v23.8c4.1-1.4,8.4-2.6,12.5-4L1922.4-163.9z M2004-159.2v18h-88.8v-18h36v-9.9
			h-26.9V-187h26.9v-9.4h-26.5v-65.9h73.5v65.9h-26.5v9.4h27.7v17.9h-27.7v9.9H2004z M1942.8-237.2h10.3v-8.3h-10.3V-237.2z
			 M1942.8-213.2h10.3v-8.4h-10.3V-213.2z M1979.2-245.5h-9.4v8.3h9.4V-245.5z M1979.2-221.6h-9.4v8.4h9.4V-221.6z"/>
		<path class="st0" d="M1224.1-275.7c-12.9,32.1-27.4,59.4-44.8,82c5.5,12.8,13.6,23.4,25,31c-8.8,5.9-21.9,17.6-28.9,25.8
			c-9.5-7.6-17.2-17.2-22.4-28.2c-11.9,10.7-25,19.9-39.2,27.3c-2.2-5.9-10.2-17.8-15-23.2c17.1-7.7,32.5-18.6,45.5-32.1
			c-2.7-13.2-3.5-28-3.2-44l-3.8,3.9c-2.5-4.8-9.1-13.4-14.4-18.9l-3.8,12.1h12.8l-7,25.6h-13.8c-2.4,7.2-4.6,13.7-6.5,19.5h13.5
			l-6.9,25.2h-16c-4.3,10-7.8,16-10.9,19.3c-6.7,7.1-12.3,9.5-19.5,11.1c-6.4,1.3-14.8,1.3-23.7,1.1c1.6-7.6,1.6-18.9-0.4-26.2
			c4.9,0.6,9.9,0.8,14.9,0.6c2.9,0.2,4.9-0.6,7.8-3.7c0.6-0.7,1-1.3,1.7-2.2h-65.4c5.5-12.6,11.6-28.2,17.9-44.7h-13.3l7-25.6h15.7
			c2.5-7.6,5.3-15.2,7.8-22.5c-5.5-5.3-11.4-10.2-17.6-14.5c17.6-15.6,34-41,45.8-66.1l28.8,5.9c-2.4,4.8-4.9,9.8-7.6,14.5h69.7
			l-7.3,26.9h-79c-2.7,4.3-5.6,8.4-8.8,12.4h73.5c0,0-2.6,8.7-3.6,12.1l-3.6,11.5c19.6-20.6,36.5-51.8,49.5-83.5l29.1,4.8
			c-5,11.7-10.7,23.4-16.7,34.7h53.5l-7.7,28.2L1224.1-275.7L1224.1-275.7z M1046.9-214.3c-2.5,6.7-5,13.2-7.4,19.5h13.5
			c-2.2-5-4.7-9.9-7.7-14.5l10.6-5H1046.9z M1056.2-239.9h11.2c-1.3-4.9-3.3-9.5-5.9-13.9l10.7-4.5h-9.7L1056.2-239.9z
			 M1075.7-194.8c1.9-5.4,4.2-11.9,6.7-19.5h-13.5c3.4,4.6,6,9.7,7.8,15.2l-8.8,4.3H1075.7z M1090.3-239.9l5.7-18.4h-12.1
			c2.8,5.2,5.2,11.3,5.8,15.8l-5.9,2.6H1090.3z M1171.5-275.7c-1.7,16.7-2,32.8-0.4,47.3c8.4-14.1,15.7-29.9,22.4-47.3H1171.5z"/>
		
			<linearGradient id="SVGID_1_" gradientUnits="userSpaceOnUse" x1="1228.1555" y1="664.7686" x2="1192.3156" y2="654.2184" gradientTransform="matrix(1 0 0 -1 0 459.6711)">
			<stop  offset="0" style="stop-color:#505AA7"/>
			<stop  offset="0.9463" style="stop-color:#505AA7;stop-opacity:0"/>
		</linearGradient>
		<path class="st1" d="M1304.8-223.9c-7.1,2-14.1,3.7-21.3,5.4l-13.5,49c-3.8,13.7-8.2,21.7-17.2,26.5c-9,5-33.4,6.1-48.3,6.1
			c1.5-7.8,1.5-20.8,0-29.3c7.1,0.4,28.3,0.4,31,0.2c2.7,0,3.8-0.6,4.5-3.5l11.3-41.2l-19.5,4.8l1.5-30.1c7.5-1.3,16.6-3.2,26.4-5.2
			l9.2-33.4h-21.1l7.9-28.8h21.1l10.8-39.5h30.1l-10.8,39.5h18l-7.9,28.8h-18l-7.2,26.5l16.8-3.9L1304.8-223.9z M1370.5-166.9
			c5.8,0.6,11.7,0.9,17.5,0.9c7.9,0,32.4,0,42.8-0.4c-5.5,6.3-12.9,19.1-16.1,26.7h-36.2c-29.5,0-52.7-4.8-65.8-22.5
			c-7.2,9.8-15.7,18.7-25.2,26.2c-3.9-4.8-14.1-13.5-19.8-17.1c18.9-13,32.5-34.7,41.9-59l28.7,3.7c-2.8,6.7-5.9,13.2-9.2,19.5
			c2.8,6.2,7.4,11.3,13.3,14.8l11.2-40.5h-40l6.3-23h40l1.9-6.9h-53.5l6.6-24.1h53.5l1.7-6.3h-40l6.4-23.2h40l1.7-6.1h-49.3
			l6.7-24.3h49.2l4.1-14.7h30.1l-4,14.7h15l-6.7,24.3h-15l-1.7,6.1h47.2l-8.1,29.5h13l-6.6,24.1h-13l-8.2,29.9h-47.2l-2.5,9.1h20.2
			l-6.6,24.1h-20.2L1370.5-166.9z M1390-237.7h17.1l1.9-6.9h-17.1L1390-237.7z M1398.5-268.7h17.1l1.7-6.3h-17.1L1398.5-268.7z"/>
		
			<linearGradient id="SVGID_00000163761419112915215710000003958138861367083444_" gradientUnits="userSpaceOnUse" x1="1462.3054" y1="775.2214" x2="1510.4454" y2="762.3215" gradientTransform="matrix(1 0 0 -1 0 459.6711)">
			<stop  offset="0" style="stop-color:#505AA7"/>
			<stop  offset="0.9463" style="stop-color:#505AA7;stop-opacity:0"/>
		</linearGradient>
		
			<rect x="1396.5" y="-328.7" style="fill:url(#SVGID_00000163761419112915215710000003958138861367083444_);" width="124.5" height="24.4"/>
		
			<linearGradient id="SVGID_00000101792204896488557330000013011248545287812755_" gradientUnits="userSpaceOnUse" x1="1412.9304" y1="654.8727" x2="1457.6003" y2="642.9029" gradientTransform="matrix(1 0 0 -1 0 459.6711)">
			<stop  offset="0" style="stop-color:#505AA7"/>
			<stop  offset="0.9463" style="stop-color:#505AA7;stop-opacity:0"/>
		</linearGradient>
		
			<rect x="1360.6" y="-206" style="fill:url(#SVGID_00000101792204896488557330000013011248545287812755_);" width="115.1" height="24.4"/>
		
			<linearGradient id="SVGID_00000009579422373230161540000004358807425299586441_" gradientUnits="userSpaceOnUse" x1="6070.4146" y1="4132.6343" x2="6124.3647" y2="4118.1743" gradientTransform="matrix(-1 0 0 1 7044.5977 -4357.7378)">
			<stop  offset="0" style="stop-color:#505AA7"/>
			<stop  offset="0.9463" style="stop-color:#505AA7;stop-opacity:0"/>
		</linearGradient>
		
			<rect x="896.4" y="-240.1" style="fill:url(#SVGID_00000009579422373230161540000004358807425299586441_);" width="139.9" height="25.8"/>
	</g>
</g>
<g>
	<g>
		<path class="st0" d="M671.8-254.6h-12.9v4.2c0,3.8-0.7,5.8-3.5,6.9c-2.7,1.1-6.2,1.1-10.7,1.1c-0.3-2.3-1.4-5.4-2.4-7.5
			c2.4,0.1,6,0.1,6.8,0.1c1-0.1,1.2-0.2,1.2-1v-3.9h-13.8c1.9,1.5,3.6,3.1,4.7,4.4l-6.4,5.4c-1.7-2.3-5.5-5.7-8.6-8l2.1-1.8H617
			v-6.7h33.5v-1.5c-11.4,0.3-22.4,0.5-30.6,0.5l-0.2-6.1c5.5,0.1,12.6,0.1,20.4,0.1v-1.5h-16.6v-17.7H640v-1.4h-21.4v-6.4H640v-3.4
			h8.5v3.4h21.3v6.4h-21.3v1.4h17.6v17.7h-2.8c2.4,1.5,4.8,3,6.4,4.3l-5.2,4.3c-0.7-0.6-1.4-1.2-2.3-1.8l-3.3,0.1v1.7h12.9
			L671.8-254.6L671.8-254.6z M631.5-281.2h8.5v-1.4h-8.5V-281.2z M640-275v-1.5h-8.5v1.5H640z M648.5-282.6v1.4h9v-1.4H648.5z
			 M657.6-276.5h-9v1.5h9V-276.5z M648.5-269.9v1.5h5.5c-0.5-0.3-1-0.5-1.5-0.8l1.1-0.8L648.5-269.9L648.5-269.9z"/>
		<path class="st0" d="M719-255.1c4.2,2.2,8.8,5,11.5,7.1l-6.8,6c-3-2.8-9.7-7-14.7-9.6l4-3.5h-5.8v12.7h-8.7v-12.7h-8.3l6.4,2.1
			c-3.4,4.1-9.2,7.9-14.1,10.1c-1.8-1.7-5.3-4.4-7.4-5.7c4.6-1.4,9.2-3.8,12-6.4h-11.3v-7h22.7v-3.4c-5.5,1.2-12.1,1.8-20.1,2.2
			c-0.7-2.6-1.7-5.2-2.9-7c6.1-0.1,11.3-0.4,15.7-1c-2.7-0.5-5.5-1-8.4-1.4c1.4-1.3,2.9-2.8,4.4-4.4h-11v-6.7h16.7
			c1.1-1.5,2.2-2.9,3.1-4.3h-10.8v2.4h-8v-9.5h20.2l-0.8-1.9l9.3-1.8c0.6,1.1,1.4,2.4,2,3.8h21v9.5h-7.8l0.7,0.1
			c-0.2,0.6-0.4,1.2-0.7,1.8h8.7v6.7h-12c-1,1.5-2.1,2.9-3.4,4.1c6.1,1.5,11.7,3.1,15.9,4.6l-8.2,5.5c-4-1.7-9.3-3.4-15.7-5
			c-2.1,0.8-4.3,1.5-6.8,2.1h7.6v3.6h23.3v7H719V-255.1z M695.8-276.9c2.9,0.5,5.8,1.1,8.7,1.7c1-0.6,1.8-1.2,2.7-1.9h-11.1
			L695.8-276.9z M704.9-287.2c-0.8,1.1-1.7,2.3-2.6,3.4h9.6c0.5-1.1,0.9-2.2,1.2-3.4l7.4,1.4v-2.3h-18.9L704.9-287.2z"/>
		<path class="st0" d="M789.4-289.2h-8.9c1.4,1.1,2.8,2.3,3.6,3.3l-4,3.6h7.8v10.8h-7.5v11.6h-28.7v1.9h31.9v15.9H775v-1.4h-23.3
			v1.4h-8.8v-29.4h-7.6v-10.8h3.1c-1.4-1.6-3.6-3.8-4.9-4.9c3.4-3,6.7-7.6,8.5-12.2l7.6,2.3c-0.2,0.5-0.5,1.1-0.7,1.6h11.8v4.8
			c2.6-2.3,4.8-5.5,6-8.7l7.9,2.1c-0.2,0.6-0.5,1.2-0.8,1.8h15.6L789.4-289.2L789.4-289.2z M745.3-289.2c-1.7,2.6-3.5,4.9-5.2,6.8
			h10.4c-1.2-1.5-3.2-3.3-4.8-4.7l2.3-2.1H745.3L745.3-289.2z M779.1-276h-35.4v1.8h35.4V-276z M772-268.1h-20.2v2H772V-268.1z
			 M751.7-252v2H775v-2H751.7z M763.3-286.9c-1-0.8-2-1.6-3-2.3h-6.5c1.1,0.9,2,1.8,2.7,2.6l-4.5,4.2h5.7c-0.5-1.1-1-2.1-1.5-3.1
			L763.3-286.9z M777.1-282.4c-1.5-1.5-3.6-3.3-5.4-4.6l2.6-2.2h-4.4c-1.3,1.8-2.7,3.3-4.1,4.6c-0.2-0.2-0.5-0.5-0.9-0.8
			c0.6,1,1.1,2.1,1.5,3.1L777.1-282.4L777.1-282.4z"/>
		<path class="st0" d="M813.6-254c-6.7,2.3-14.1,4.7-20.1,6.6l-1.9-8.8c2-0.5,4.3-1.1,6.8-1.8v-12.8h-5.6v-7.9h5.6v-9.1h-6.1v-8
			h20.4v8h-6.1v9.1h5v7.9h-5v10.3c1.8-0.6,3.6-1.1,5.4-1.7L813.6-254z M848.8-252v7.8h-38.3v-7.8H826v-4.3h-11.6v-7.7H826v-4h-11.4
			v-28.5h31.7v28.5h-11.4v4h12v7.7h-12v4.3L848.8-252L848.8-252z M822.4-285.7h4.5v-3.6h-4.5V-285.7z M822.4-275.4h4.5v-3.6h-4.5
			V-275.4z M838.1-289.3h-4v3.6h4V-289.3z M838.1-279h-4v3.6h4V-279z"/>
	</g>
	<g>
		<rect x="578.2" y="-265.8" class="st0" width="36.4" height="8.5"/>
		<g>
			<path class="st0" d="M530.8-290c-4.5,11.1-9.5,20.6-15.6,28.5c1.9,4.4,4.7,8.1,8.7,10.8c-3.1,2-7.6,6.1-10,9
				c-3.4-2.7-5.9-5.9-7.8-9.8c-4.1,3.7-8.6,6.9-13.6,9.5c-0.8-2-3.5-6.2-5.2-8.1c6.2-2.8,11.3-6.6,15.8-11.1
				c-0.9-4.6-1.2-9.7-1.1-15.3c-0.4,0.5-0.9,0.9-1.3,1.4c-0.9-1.7-3.2-4.7-5-6.5l-1.3,4.2h4.4l-2.4,8.9h-4.8
				c-0.8,2.5-1.6,4.7-2.3,6.8h4.7l-2.4,8.7h-5.5c-1.5,3.5-2.7,5.6-3.8,6.7c-2.3,2.5-4.3,3.3-6.8,3.8c-2.2,0.5-5.1,0.5-8.2,0.4
				c0.6-2.6,0.5-6.6-0.2-9.1c2.1,0.2,3.9,0.3,5.2,0.2c1,0.1,1.7-0.2,2.7-1.3c0.2-0.2,0.4-0.5,0.6-0.8h-22.7c1.9-4.4,4-9.8,6.2-15.5
				h-4.6l2.4-8.9h5.5c0.9-2.6,1.8-5.3,2.7-7.8c-1.7-1.7-4.5-3.9-6.1-5c6.1-5.4,11.8-14.2,15.9-23l10,2c-0.8,1.7-1.7,3.4-2.6,5h24.2
				l-2.6,9.3h-27.4c-1,1.5-2,2.9-3.1,4.3H499c0,0-0.9,3-1.2,4.2l-1.3,4c6.8-7.2,12.7-18,17.2-29l10.1,1.7c-1.7,4.1-3.7,8.1-5.8,12
				h18.6l-2.7,9.8L530.8-290L530.8-290z M469.3-268.7c-0.9,2.3-1.7,4.6-2.6,6.8h4.7c-0.7-1.7-1.7-3.5-2.7-5l3.7-1.7L469.3-268.7
				L469.3-268.7z M472.5-277.5h3.9c-0.4-1.6-1.2-3.4-2-4.8l3.7-1.6h-3.4L472.5-277.5z M479.3-261.9c0.7-1.9,1.5-4.1,2.3-6.8H477
				c1.2,1.7,2.2,3.8,2.7,5.3l-3.1,1.5H479.3z M484.4-277.5l2-6.4h-4.2c1,1.8,1.8,3.9,2,5.5l-2,0.9H484.4z M512.6-290
				c-0.6,5.8-0.7,11.4-0.1,16.4c2.9-4.9,5.4-10.4,7.8-16.4H512.6z"/>
			<path class="st0" d="M558.8-272c-2.5,0.7-4.9,1.3-7.4,1.9l-4.7,17c-1.3,4.7-2.9,7.5-6,9.2s-11.6,2.1-16.8,2.1
				c0.5-2.7,0.5-7.2,0-10.2c2.5,0.2,9.8,0.2,10.8,0.1c0.9,0,1.3-0.2,1.6-1.2l3.9-14.3l-6.8,1.7l0.5-10.5c2.6-0.5,5.8-1.1,9.2-1.8
				l3.2-11.6H539l2.8-10h7.3l3.8-13.7h10.4l-3.8,13.7h6.2l-2.8,10h-6.2l-2.5,9.2l5.8-1.4L558.8-272z M581.7-252.2
				c2,0.2,4,0.3,6.1,0.3c2.7,0,11.2,0,14.9-0.1c-1.9,2.2-4.5,6.6-5.6,9.3h-12.6c-10.2,0-18.3-1.7-22.8-7.8c-2.6,3.5-5.6,6.6-8.7,9.1
				c-1.3-1.7-4.9-4.7-6.9-5.9c6.6-4.5,11.3-12,14.5-20.5l10,1.3c-1,2.3-2,4.6-3.2,6.8c1,2.3,2.6,3.9,4.6,5.1l3.9-14.1H562l2.2-8H578
				l0.7-2.4h-18.6l2.3-8.4H581l0.6-2.2h-13.9l2.2-8.1h13.9l0.6-2.1h-17.1l2.3-8.4h17.1l1.4-5.1h10.5l-1.4,5.1h5.2l-2.3,8.4h-5.2
				l-0.6,2.1h16.4l-2.8,10.2h4.5l-2.3,8.4h-4.5l-2.9,10.4h-16.4l-0.9,3.2h7l-2.3,8.4h-7L581.7-252.2z M588.4-276.8h5.9l0.7-2.4h-5.9
				L588.4-276.8z M591.4-287.6h5.9l0.6-2.2H592L591.4-287.6z"/>
		</g>
		<rect x="590.7" y="-308.3" class="st0" width="36.4" height="8.5"/>
		<rect x="429.3" y="-277.6" class="st0" width="36.4" height="9"/>
	</g>
</g>
<g>
	<g>
		<path class="st0" d="M2689.6,596.8h-35v11.5c0,10.2-1.9,15.6-9.3,18.7c-7.4,2.8-16.8,3-28.9,3c-0.8-6.1-3.8-14.7-6.5-20.3
			c6.6,0.3,16.2,0.3,18.6,0.3c2.5-0.2,3.4-0.7,3.4-2.5v-10.7h-37.2c5.1,4.1,9.9,8.4,12.7,11.9l-17.3,14.7
			c-4.6-6.3-14.9-15.4-23.3-21.8l5.8-4.9H2541v-18.3h90.8v-4.3c-31.1,0.8-60.8,1.3-83,1.5l-0.7-16.5c14.9,0.2,34.1,0.2,55.3,0.2
			v-4.3h-45.1v-48.2h45.2V503h-58v-17.5h58v-8.9h23.1v9.1h57.9v17.5h-57.9v3.9h47.7v48.2h-7.6c6.6,4.1,12.9,8.3,17.3,11.7
			l-14.1,11.7c-1.7-1.6-3.8-3.3-6.1-5.1l-8.8,0.3v4.8h35v18.3L2689.6,596.8L2689.6,596.8z M2580.3,524.6h23.2v-3.9h-23.1
			L2580.3,524.6L2580.3,524.6z M2603.5,541.5v-4.1h-23.1v4.1H2603.5z M2626.6,520.8v3.9h24.6v-3.9H2626.6z M2651.2,537.4h-24.6v4.1
			h24.6V537.4z M2626.6,555.2v4.3h15c-1.3-0.8-2.7-1.5-4.1-2l2.9-2h-13.9L2626.6,555.2L2626.6,555.2z"/>
		<path class="st0" d="M2817.9,595.4c11.4,6,24,13.6,31.2,19.4l-18.6,16.2c-8.3-7.6-26.3-18.9-39.9-26.1l11-9.3h-15.9V630h-23.6
			v-34.4h-22.6l17.3,5.6c-9.1,11.2-24.9,21.3-38.2,27.3c-4.9-4.6-14.4-11.9-20-15.4c12.4-3.9,25.1-10.4,32.4-17.5h-30.7v-19h61.8
			v-9.1c-15,3.3-32.9,4.9-54.5,6c-1.7-6.9-4.8-14.2-7.9-19c16.5-0.3,30.6-1,42.5-2.5c-7.4-1.5-15-2.7-22.8-3.9
			c3.8-3.6,7.9-7.6,11.9-11.9h-29.9v-18.2h45.5c3-4.1,6-7.9,8.4-11.8h-29.4v6.6h-21.7v-25.7h55l-2.2-5.1l25.3-5.1
			c1.6,3,3.8,6.6,5.5,10.2h56.9v25.5h-21.2l1.7,0.3c-0.5,1.6-1.1,3.3-1.7,4.9h23.6v18.2h-32.5c-2.7,4.3-5.8,7.9-9.1,11.2
			c16.7,4.1,31.7,8.4,43.2,12.4l-22.2,15c-10.9-4.6-25.3-9.1-42.5-13.6c-5.6,2.2-11.8,4.3-18.6,5.8h20.5v9.9h63.2v19L2817.9,595.4
			L2817.9,595.4L2817.9,595.4z M2754.9,536.2c7.9,1.5,15.9,2.8,23.6,4.6c2.5-1.6,5.1-3.3,7.3-5.1h-30.1L2754.9,536.2z M2779.7,508.4
			c-2.2,3-4.8,6.1-7.1,9.1h26.1c1.3-2.8,2.4-6,3.4-9.1l20,3.8v-6.4h-51.2L2779.7,508.4z"/>
		<path class="st0" d="M3009,502.8h-24.1c3.9,3,7.6,6.3,9.9,8.8l-11,9.7h21.2v29.3h-20.3v31.4h-77.9v5.1h86.6v43.2h-23.5v-3.9h-63.2
			v3.9h-24v-79.7h-20.5v-29.3h8.4c-3.9-4.4-9.7-10.4-13.2-13.4c9.1-8.1,18.2-20.7,23-33.1l20.7,6.1c-0.7,1.5-1.3,2.8-1.9,4.4h32
			v13.1c6.9-6.3,12.9-14.9,16.4-23.6l21.3,5.6c-0.7,1.6-1.5,3.3-2,4.9h42.3L3009,502.8L3009,502.8z M2889.3,503
			c-4.6,6.9-9.3,13.2-14.1,18.5h28.1c-3.3-4.1-8.5-9-12.9-12.7l6.3-5.6L2889.3,503L2889.3,503z M2981,538.7h-96.2v5.1h96.2V538.7z
			 M2961.7,560.2h-55v5.3h55V560.2z M2906.7,604v5.5h63.2V604H2906.7z M2938.2,509.2c-2.7-2-5.5-4.4-8.1-6.1h-17.7
			c2.9,2.4,5.5,5.1,7.3,7.1l-12.1,11.4h15.4c-1.3-2.8-2.5-5.8-4.1-8.4L2938.2,509.2z M2975.6,521.4c-4.3-4.3-9.9-9-14.5-12.6l7.1-6
			h-11.9c-3.6,4.9-7.4,9-11.2,12.4c-0.7-0.7-1.5-1.5-2.4-2.2c1.6,2.7,3,5.6,4.3,8.4L2975.6,521.4L2975.6,521.4L2975.6,521.4z"/>
		<path class="st0" d="M3074.5,598.3c-18.3,6.3-38.3,12.7-54.5,18l-5.1-24c5.3-1.3,11.7-3,18.6-5.1v-34.6h-15.2v-21.5h15.2v-24.8
			h-16.6v-21.7h55.5v21.7h-16.5v24.8h13.6v21.5h-13.6v27.9c4.9-1.6,9.9-3,14.7-4.8L3074.5,598.3z M3170.3,603.8V625h-104v-21.2h42.2
			v-11.7H3077v-21h31.6v-11h-31.1V483h86.1v77.2h-31.1v11h32.4v21h-32.5v11.7H3170.3L3170.3,603.8z M3098.5,512.4h12.1v-9.7h-12.1
			V512.4z M3098.5,540.5h12.1v-9.9h-12.1V540.5z M3141.2,502.6h-11v9.7h11V502.6z M3141.2,530.6h-11v9.9h11V530.6z"/>
	</g>
	<g>
		
			<linearGradient id="SVGID_00000158718796314945725340000015267939359935373966_" gradientUnits="userSpaceOnUse" x1="2460.0308" y1="1109.2491" x2="2509.6338" y2="1122.5449" gradientTransform="matrix(1 0 0 1 0 -525.8479)">
			<stop  offset="0" style="stop-color:#505AA7"/>
			<stop  offset="0.9463" style="stop-color:#505AA7;stop-opacity:0"/>
		</linearGradient>
		
			<rect x="2402.3" y="570.1" style="fill:url(#SVGID_00000158718796314945725340000015267939359935373966_);" width="127.1" height="29.6"/>
		<g>
			<path class="st0" d="M2236.7,485.6c-15.5,38.9-33.1,72.1-54.4,99.5c6.6,15.4,16.5,28.4,30.3,37.7c-10.7,7.1-26.6,21.3-35.2,31.3
				c-11.8-9.4-20.7-20.8-27.1-34.2c-14.2,12.9-30.1,24-47.6,33.1c-2.6-7.1-12.3-21.6-18.2-28.2c21.5-9.8,39.5-22.9,55.2-38.9
				c-3.3-16.1-4.4-33.9-3.9-53.4c-1.5,1.6-3,3.1-4.6,4.8c-3-5.8-11.1-16.3-17.5-22.9l-4.7,14.7h15.5l-8.4,31.1h-16.7
				c-2.9,8.6-5.6,16.6-7.9,23.7h16.4l-8.4,30.5h-19.3c-5.2,12.1-9.4,19.4-13.2,23.4c-8.1,8.6-14.9,11.6-23.6,13.4
				c-7.8,1.6-17.9,1.6-28.7,1.3c1.9-9.1,1.8-22.9-0.5-31.9c7.4,0.8,13.6,1.1,18.1,0.8c3.5,0.3,5.9-0.8,9.4-4.5
				c0.8-0.8,1.3-1.6,2-2.6h-79.4c6.6-15.2,14-34.2,21.7-54.3H1970l8.4-31.1h19.1c3-9.1,6.4-18.5,9.4-27.3c-6-6-15.5-13.7-21.3-17.7
				c21.3-18.9,41.3-49.7,55.7-80.3l35,7.1c-2.9,5.8-6,11.8-9.1,17.7h84.6l-8.9,32.6h-95.8c-3.4,5.2-6.9,10.3-10.7,15h89.3
				c0,0-3.1,10.6-4.4,14.7l-4.4,13.9c23.8-25,44.3-62.9,60-101.3l35.3,5.8c-6.1,14.2-13,28.4-20.3,42.2h65l-9.3,34.2h-11.3v0.4
				H2236.7z M2021.6,560c-3,8.2-6,16.1-8.9,23.7h16.4c-2.4-5.8-5.9-12.3-9.3-17.7l12.8-6H2021.6L2021.6,560z M2032.9,529h13.6
				c-1.5-5.5-4.2-11.8-7.1-16.9l13-5.5h-11.8L2032.9,529z M2056.6,583.6c2.3-6.6,5.1-14.5,8.2-23.7h-16.4c4.4,6,7.9,13.1,9.3,18.5
				l-10.8,5.2H2056.6z M2074.3,529l7-22.4h-14.7c3.5,6.3,6.3,13.7,7,19.2l-7.1,3.1L2074.3,529L2074.3,529z M2172.9,485.6
				c-1.9,20.2-2.4,39.7-0.5,57.4c10.2-17.1,19-36.3,27.2-57.4H2172.9z"/>
			
				<linearGradient id="SVGID_00000117636319710314304850000008900430067374714255_" gradientUnits="userSpaceOnUse" x1="2241.5347" y1="1097.0093" x2="2198.0408" y2="1109.8016" gradientTransform="matrix(1 0 0 1 0 -525.8479)">
				<stop  offset="0" style="stop-color:#505AA7"/>
				<stop  offset="0.9463" style="stop-color:#505AA7;stop-opacity:0"/>
			</linearGradient>
			<path style="fill:url(#SVGID_00000117636319710314304850000008900430067374714255_);" d="M2334.6,548.5
				c-8.5,2.3-17.1,4.5-25.8,6.6l-16.4,59.4c-4.6,16.6-10,26.3-20.8,32.1c-11,6-40.5,7.4-58.6,7.4c1.7-9.4,1.7-25.3-0.1-35.5
				c8.5,0.5,34.3,0.5,37.7,0.3c3.3,0,4.6-0.8,5.5-4.3l13.7-50l-23.7,5.8l1.8-36.6c9.1-1.6,20.2-4,32.1-6.3l11.2-40.5h-25.6l9.6-35.1
				h25.6l13.1-48h36.3L2337,452h21.9l-9.7,35.1h-21.8l-8.7,32.1l20.4-4.8L2334.6,548.5z M2414.3,617.6c6.9,0.8,13.9,1.1,21.3,1.1
				c9.6,0,39.2,0,52-0.5c-6.7,7.6-15.6,23.2-19.5,32.3h-43.9c-35.7,0-63.9-5.8-79.8-27.3c-9.1,12.3-19.4,23.2-30.6,31.9
				c-4.8-5.8-17.1-16.3-24.1-20.8c22.9-15.7,39.3-42.2,50.8-71.6l34.8,4.5c-3.4,8.2-7.1,16.1-11.2,23.7c3.6,7.9,9,13.7,16.1,17.9
				l13.5-49.2h-48.6l7.7-27.9h48.6l2.2-8.4h-64.9l8-29.2h65.2l2-7.6h-48.6l7.7-28.1h48.6l2-7.4h-59.7l8.1-29.5h59.7l5-17.9h36.6
				l-5,17.9h18.2l-8.1,29.5h-18.2l-2,7.4h57.3l-9.9,35.8h15.7l-8,29.2h-15.9l-9.8,36h-57.3l-3,11.1h24.4l-8,29.2h-24.5L2414.3,617.6
				z M2438,531.6h20.7l2.3-8.4h-20.7L2438,531.6z M2448.3,493.9h20.8l2-7.6h-20.7L2448.3,493.9z"/>
		</g>
		
			<linearGradient id="SVGID_00000062163285398567778250000016185005829010018750_" gradientUnits="userSpaceOnUse" x1="2513.0127" y1="962.9709" x2="2562.616" y2="976.2667" gradientTransform="matrix(1 0 0 1 0 -525.8479)">
			<stop  offset="0" style="stop-color:#505AA7"/>
			<stop  offset="0.9463" style="stop-color:#505AA7;stop-opacity:0"/>
		</linearGradient>
		
			<rect x="2445.9" y="421.4" style="fill:url(#SVGID_00000062163285398567778250000016185005829010018750_);" width="127.1" height="29.6"/>
		
			<linearGradient id="SVGID_00000163057846354127508910000007503704222617099963_" gradientUnits="userSpaceOnUse" x1="804.1553" y1="-334.549" x2="853.9305" y2="-321.2071" gradientTransform="matrix(-1 0 0 -1 2756.5969 211.7844)">
			<stop  offset="0" style="stop-color:#505AA7"/>
			<stop  offset="0.9463" style="stop-color:#505AA7;stop-opacity:0"/>
		</linearGradient>
		
			<rect x="1881.7" y="528.8" style="fill:url(#SVGID_00000163057846354127508910000007503704222617099963_);" width="127.1" height="31.3"/>
	</g>
</g>
<g>
	<path class="st9" d="M3218.3,714.1h9.9c29.4,0,53.2-23.8,53.2-53.2s-23.8-53.2-53.2-53.2H3208"/>
	<line class="st10" x1="3177" y1="714.1" x2="3218.3" y2="714.1"/>
	<line class="st11" x1="3254.2" y1="714.1" x2="3302.9" y2="714.1"/>
	<circle class="st0" cx="3237.5" cy="636" r="7.8"/>
	<path class="st0" d="M3223.6,673.4l-6.2-2.8c-1.2-0.6-1.8-2-1.2-3.2l10.6-23.1c0.6-1.2,2-1.8,3.2-1.2l6.2,2.8
		c1.2,0.6,1.8,2,1.2,3.2l-10.6,23.1C3226.3,673.4,3224.8,673.9,3223.6,673.4z"/>
	<path class="st0" d="M3206.3,659.5c-0.7,0-1.4-0.2-2-0.8c-1.3-1.1-1.4-3.1-0.3-4.3l9.4-10.9c0.6-0.7,1.6-1.1,2.5-1.1l14.6,1.1
		c1.7,0.1,3,1.6,2.8,3.3c-0.1,1.7-1.6,3-3.3,2.8l-13.1-0.9l-8.4,9.7C3208,659.2,3207.2,659.5,3206.3,659.5z"/>
	<path class="st0" d="M3243.6,659.5c-0.7,0-1.4-0.2-1.9-0.7l-10.3-8.4c-1.3-1.1-1.5-3-0.4-4.3c1.1-1.3,3-1.5,4.3-0.4l8.7,7.1
		l8.1-4.4c1.5-0.8,3.4-0.3,4.2,1.2c0.8,1.5,0.3,3.4-1.2,4.2l-10,5.4C3244.6,659.4,3244.1,659.5,3243.6,659.5z"/>
	<path class="st0" d="M3210.2,687.7h-15.8c-1.7,0-3.1-1.4-3.1-3.1s1.4-3.1,3.1-3.1h14.1l4.4-6.6c0.9-1.4,2.8-1.8,4.3-0.9
		c1.4,0.9,1.8,2.8,0.9,4.3l-5.3,8C3212.2,687.1,3211.2,687.7,3210.2,687.7z"/>
	<path class="st0" d="M3241.4,698.5c-1.4,0-2.7-1-3-2.5l-3.7-18.3l-13.6-6c-1.6-0.7-2.3-2.5-1.6-4.1c0.7-1.6,2.5-2.3,4.1-1.6l15,6.6
		c0.9,0.4,1.6,1.2,1.8,2.2l4,19.8c0.3,1.7-0.7,3.3-2.4,3.6C3241.8,698.5,3241.6,698.5,3241.4,698.5z"/>
	<polygon class="st12" points="3314,714.1 3295.7,703.8 3295.7,724.4 	"/>
	<polygon class="st13" points="3195.7,607.7 3214.1,618 3214.1,597.3 	"/>
</g>
<path class="st14" d="M2354.6,798.7h183.7c11.5,0,20.9-9.4,20.9-20.9l0,0c0-11.5-9.4-20.9-20.9-20.9h-37c-11.5,0-20.9-9.4-20.9-20.9
	l0,0c0-11.5,9.4-20.9,20.9-20.9h629.8"/>
<g>
	<polygon class="st15" points="2374.3,771 2354.7,759.7 2354.7,782.3 	"/>
	<polygon class="st16" points="2397.3,771 2377.7,759.7 2377.7,782.3 	"/>
	<polygon class="st13" points="2420.8,771 2401.2,759.7 2401.2,782.3 	"/>
</g>
<g>
	<polygon class="st17" points="1813.9,551.3 1790.2,537.6 1790.2,564.9 	"/>
	<polygon class="st18" points="1841.8,551.3 1818,537.6 1818,564.9 	"/>
	<polygon class="st12" points="1870.3,551.3 1846.6,537.6 1846.6,564.9 	"/>
</g>
<path class="st14" d="M2211.8,772.4h-321.5c-12.4,0-22.6-10.2-22.6-22.6v-15.3v-3.7v-15.3c0-12.4-10.2-22.6-22.6-22.6h-19.7
	c-12.4,0-22.6-10.2-22.6-22.6v-66.8"/>
<path class="st12" d="M1809.6,614.1H1796c-2.7,0-4.9-2.2-4.9-4.9v-13.6c0-2.7,2.2-4.9,4.9-4.9h13.6c2.7,0,4.9,2.2,4.9,4.9v13.6
	C1814.5,611.9,1812.3,614.1,1809.6,614.1z"/>
<g>
	<g>
		<g>
			<g>
				<circle class="st19" cx="3047.5" cy="334.5" r="14.4"/>
				<path class="st19" d="M3053.6,351h-12.2c-10.9,0-19.8,9-19.8,19.8v10.7h11v-9.8c0-0.7,0.6-1.4,1.4-1.4s1.4,0.6,1.4,1.4v9.8h24.1
					v-9.8c0-0.7,0.6-1.4,1.4-1.4s1.4,0.6,1.4,1.4v9.8h11.3v-10.7C3073.5,360,3064.5,351,3053.6,351z"/>
			</g>
			<g>
				<circle class="st19" cx="3138.8" cy="334.5" r="14.4"/>
				<path class="st19" d="M3144.9,351h-12.2c-10.9,0-19.8,9-19.8,19.8v10.7h11v-9.8c0-0.7,0.6-1.4,1.4-1.4c0.7,0,1.4,0.6,1.4,1.4
					v9.8h24.1v-9.8c0-0.7,0.6-1.4,1.4-1.4s1.4,0.6,1.4,1.4v9.8h11.3v-10.7C3164.7,360,3155.8,351,3144.9,351z"/>
			</g>
			<g>
				<circle class="st0" cx="3092.9" cy="342.4" r="14.4"/>
				<path class="st0" d="M3099,359h-12.2c-10.9,0-19.8,9-19.8,19.8v15.9h11v-15c0-0.7,0.6-1.4,1.4-1.4s1.4,0.6,1.4,1.4v15h24.1v-15
					c0-0.7,0.6-1.4,1.4-1.4s1.4,0.6,1.4,1.4v15h11.3v-15.9C3118.8,367.9,3109.8,359,3099,359z"/>
			</g>
		</g>
	</g>
	<g>
		<polygon class="st0" points="2199.9,293.7 2214.6,267.6 2185.2,267.6 		"/>
		<polygon class="st12" points="2366.8,310.9 2346.8,299.7 2346.8,322.1 		"/>
		<line class="st20" x1="2277.5" y1="310.9" x2="2353.5" y2="310.9"/>
		<path class="st21" d="M2264.8,183.5c4.3-1.9,9.2-2.8,14.2-2.8c20.1,0,36.5,16.3,36.5,36.5c0,15-9,27.8-21.9,33.5"/>
		<polygon class="st13" points="2245,184.1 2272.3,196.5 2269.7,167.1 		"/>
		<line class="st22" x1="2206.6" y1="319.3" x2="2053" y2="319.3"/>
		<path class="st23" d="M2199.6,269.2c0-27.6,22.4-50.1,50.1-50.1c27.6,0,50.1,22.4,50.1,50.1s-22.4,50.1-50.1,50.1h-43.1"/>
	</g>
	<g>
		<rect x="2397.8" y="274.6" class="st24" width="12.3" height="12.3"/>
		<rect x="2496.7" y="274.6" class="st24" width="12.3" height="12.3"/>
		<rect x="2397.8" y="296.7" class="st12" width="12.3" height="12.3"/>
		<rect x="2422.5" y="296.7" class="st24" width="12.3" height="12.3"/>
		<rect x="2447.2" y="296.7" class="st13" width="12.3" height="12.3"/>
		<rect x="2471.9" y="296.7" class="st24" width="12.3" height="12.3"/>
		<rect x="2496.7" y="296.7" class="st12" width="12.3" height="12.3"/>
		<rect x="2447.2" y="318.9" class="st24" width="12.3" height="12.3"/>
		<rect x="2422.5" y="274.6" class="st24" width="12.3" height="12.3"/>
		<rect x="2471.9" y="318.9" class="st12" width="12.3" height="12.3"/>
		<rect x="2471.9" y="274.6" class="st13" width="12.3" height="12.3"/>
		<rect x="2496.7" y="318.9" class="st24" width="12.3" height="12.3"/>
	</g>
	<g>
		<polyline class="st25" points="2521.9,256 2521.9,343 2384.9,343 2384.9,256 		"/>
		<g>
			<polyline class="st26" points="2384.9,258.5 2384.9,236.3 2389.3,236.3 2517.5,236.3 2521.9,236.3 2521.9,258.5 			"/>
		</g>
	</g>
	<g>
		<polyline class="st25" points="2001.6,355.4 2001.6,369.1 1892.6,369.1 1892.6,223.2 1978.4,223.2 2001.6,247.8 2001.6,276.7 		
			"/>
		<path class="st27" d="M1996.1,276.7"/>
		<polygon class="st28" points="2001.6,248.1 1978.4,248.1 1978.4,223.2 		"/>
		<g>
			<rect x="1955.3" y="264.9" class="st29" width="31.4" height="14.1"/>
			<rect x="1931.9" y="299.7" class="st24" width="31.4" height="14.1"/>
			<rect x="1908.5" y="334.5" class="st30" width="31.4" height="14.1"/>
			<path class="st31" d="M1911.5,330.6v-16c0-3.7,3.1-6.9,6.9-6.9h6.5"/>
			<polygon class="st0" points="1930.1,307.8 1922.5,303.4 1922.5,312.1 			"/>
			<path class="st32" d="M1933.9,295.9v-16c0-3.7,3.1-6.9,6.9-6.9h6.5"/>
			<polygon class="st13" points="1952.7,273.1 1945,268.7 1945,277.4 			"/>
		</g>
		<g>
			<circle class="st33" cx="2006.3" cy="323.6" r="31"/>
			<g>
				<line class="st24" x1="2009.3" y1="344.6" x2="2009.9" y2="349.3"/>
				<line class="st24" x1="1993.8" y1="300.3" x2="1996.1" y2="304.5"/>
				<line class="st24" x1="2016.3" y1="342.3" x2="2018.6" y2="346.6"/>
				<line class="st24" x1="1986.6" y1="305.9" x2="1990.2" y2="309.1"/>
				<line class="st24" x1="2022.1" y1="337.7" x2="2025.7" y2="340.9"/>
				<line class="st24" x1="1981.9" y1="313.7" x2="1986.3" y2="315.5"/>
				<line class="st24" x1="2026.1" y1="331.3" x2="2030.6" y2="333.1"/>
				<line class="st24" x1="1980" y1="322.6" x2="1984.8" y2="322.7"/>
				<line class="st24" x1="1981.3" y1="331.6" x2="1985.9" y2="330.1"/>
				<line class="st24" x1="1985.6" y1="339.5" x2="1989.3" y2="336.7"/>
				<line class="st24" x1="1992.4" y1="345.6" x2="1994.8" y2="341.6"/>
				<line class="st24" x1="2000.7" y1="349" x2="2001.7" y2="344.4"/>
			</g>
			<path class="st32" d="M2030.2,323.6c0-13.2-10.6-23.8-23.8-23.8"/>
			<path class="st33" d="M2014.9,287.9h-17c-1.9,0-3.5-1.5-3.5-3.5v-2.6c0-1.9,1.5-3.5,3.5-3.5h17c1.9,0,3.5,1.5,3.5,3.5v2.6
				C2018.1,286.4,2016.7,287.9,2014.9,287.9z"/>
			<polyline class="st33" points="2032.9,306.5 2039.6,299.8 2032.5,292.6 2025.7,299.4 			"/>
			<polyline class="st33" points="1979.9,306.6 1972.9,299.8 1980.1,292.6 1987,299.5 			"/>
			<path class="st13" d="M2006.6,319.2c-2.6-0.2-5,1.8-5.2,4.4s1.8,5,4.4,5.2c2.6,0.2,18-5.2,18-5.2S2009.4,319.4,2006.6,319.2z"/>
		</g>
	</g>
	<path class="st14" d="M3000.1,357h-308.5c-9.6,0-17.4-7.9-17.4-17.4l0,0c0-9.6,7.9-17.4,17.4-17.4h36.8c9.6,0,17.4-7.9,17.4-17.4
		l0,0c0-9.6-7.9-17.4-17.4-17.4h-188.9"/>
	<g>
		<polygon class="st15" points="2691.8,258.5 2671,246.5 2671,270.5 		"/>
		<polygon class="st16" points="2716.3,258.5 2695.4,246.5 2695.4,270.5 		"/>
		<polygon class="st13" points="2741.3,258.5 2720.4,246.5 2720.4,270.5 		"/>
	</g>
	<line class="st34" x1="2395.9" y1="263.2" x2="2510.7" y2="263.2"/>
	<rect x="2396.4" y="250" class="st0" width="15.3" height="5"/>
	<rect x="2421" y="250" class="st0" width="15.3" height="5"/>
	<rect x="2445.9" y="250" class="st0" width="15.3" height="5"/>
	<rect x="2495.1" y="250" class="st12" width="15.3" height="5"/>
	<rect x="2470.6" y="250" class="st0" width="15.3" height="5"/>
	<polyline class="st25" points="2384.9,236.3 2453.4,200.8 2521.9,236.3 	"/>
	<circle class="st12" cx="2453.4" cy="203.6" r="8.4"/>
	<g>
		
			<ellipse transform="matrix(0.2898 -0.9571 0.9571 0.2898 1890.6732 3050.9973)" class="st35" cx="3001.1" cy="251.5" rx="16.7" ry="16.7"/>
	</g>
	<g>
		
			<ellipse transform="matrix(0.2298 -0.9732 0.9732 0.2298 1996.8749 3115.7747)" class="st13" cx="2966.9" cy="296.3" rx="16.7" ry="16.7"/>
	</g>
	<g>
		<circle class="st12" cx="3003.6" cy="322.4" r="16.7"/>
	</g>
	<g>
		<circle class="st36" cx="3092.4" cy="271.8" r="36.3"/>
		<line class="st36" x1="3092.4" y1="246.7" x2="3092.4" y2="225.4"/>
		<line class="st36" x1="3092.4" y1="318.7" x2="3092.4" y2="297.4"/>
		<line class="st36" x1="3067.1" y1="272" x2="3045.9" y2="272"/>
		<line class="st36" x1="3139.1" y1="272" x2="3117.8" y2="272"/>
		<circle class="st13" cx="3092.8" cy="271.8" r="18.7"/>
		<polygon class="st37" points="3089.3,281.6 3080.1,268.1 3084.3,265.2 3091.2,275.4 3102.8,256.5 3107.2,259.1 3093.5,281.4 		"/>
	</g>
</g>
<g>
	<path class="st13" d="M2320,802.4h-25c-1.8,0-3.4-0.8-4.5-2.2l-10.4-13.6l7.1-9.3l10.6,13.8h22.2V802.4z"/>
	<path class="st13" d="M2269.3,772.4l-10.4-13.6h-14.2v-11.3h17c1.8,0,3.4,0.8,4.5,2.2l10.4,13.6L2269.3,772.4z"/>
	<polygon class="st13" points="2336.1,796.7 2312.2,781.5 2312.2,811.9 	"/>
	<path class="st0" d="M2261.6,802.4h-17v-11.3h14.2l31.7-41.4c1.1-1.4,2.7-2.2,4.5-2.2h25v11.3h-22.2l-31.7,41.4
		C2265.1,801.6,2263.4,802.4,2261.6,802.4z"/>
	<polygon class="st0" points="2336.1,753.1 2312.2,768.3 2312.2,737.9 	"/>
</g>
<g>
	<rect x="2595.5" y="694.6" class="st13" width="570.6" height="67.1"/>
	<g>
		<g>
			<path class="st37" d="M2611.9,710.3h9l2.3,16.6l1.5,11.6h0.2c0.7-3.9,1.4-7.8,2.2-11.6l3.7-16.6h7.4l3.8,16.6
				c0.7,3.7,1.4,7.7,2.1,11.6h0.2c0.4-3.9,0.9-7.8,1.4-11.6l2.4-16.6h8.3l-6.3,36.5h-11l-3.3-15.9c-0.6-2.8-1.1-5.7-1.4-8.5h-0.2
				c-0.4,2.7-0.9,5.7-1.4,8.5l-3.2,15.9h-10.8L2611.9,710.3z"/>
			<path class="st37" d="M2659.7,728.3c0-12,6.8-18.8,16.7-18.8c10,0,16.7,6.8,16.7,18.8s-6.8,19.1-16.7,19.1
				C2666.5,747.5,2659.7,740.3,2659.7,728.3z M2684.2,728.3c0-7.1-3-11.2-7.8-11.2s-7.8,4.2-7.8,11.2c0,7.1,2.9,11.6,7.8,11.6
				C2681.2,739.9,2684.2,735.5,2684.2,728.3z"/>
			<path class="st37" d="M2719.7,746.8l-6.7-12.9h-4.2v12.9h-8.8v-36.5h13.4c7.8,0,14.3,2.7,14.3,11.5c0,5.4-2.5,8.8-6.3,10.6
				l8.1,14.5L2719.7,746.8L2719.7,746.8z M2708.7,727h3.9c4.2,0,6.4-1.8,6.4-5.3s-2.2-4.6-6.4-4.6h-3.9V727z"/>
			<path class="st37" d="M2734.7,710.3h8.8v14.4h0.1l10.4-14.4h9.6l-11,14.6l13.1,21.9h-9.6l-8.6-15l-4,5.4v9.6h-8.8V710.3z"/>
			<path class="st37" d="M2766,742.2l5-6c2.6,2.2,6,3.7,8.9,3.7c3.2,0,4.8-1.2,4.8-3.2c0-2.1-2-2.8-5.2-4.1l-4.7-2
				c-3.8-1.5-7.4-4.7-7.4-10c0-6.1,5.5-11,13.3-11c4.2,0,8.7,1.6,11.9,4.8l-4.4,5.5c-2.4-1.8-4.7-2.8-7.5-2.8c-2.7,0-4.4,1.1-4.4,3
				c0,2,2.3,2.8,5.5,4.1l4.6,1.8c4.5,1.8,7.2,4.9,7.2,10c0,6.1-5.1,11.4-13.9,11.4C2774.8,747.5,2769.7,745.7,2766,742.2z"/>
			<path class="st37" d="M2799.6,710.3h8.8v13.9h12v-13.9h8.7v36.5h-8.7v-15h-12v15h-8.8V710.3z"/>
			<path class="st37" d="M2836,728.3c0-12,6.8-18.8,16.7-18.8c10,0,16.7,6.8,16.7,18.8s-6.8,19.1-16.7,19.1
				C2842.8,747.5,2836,740.3,2836,728.3z M2860.5,728.3c0-7.1-3-11.2-7.8-11.2s-7.8,4.2-7.8,11.2c0,7.1,2.9,11.6,7.8,11.6
				C2857.5,739.9,2860.5,735.5,2860.5,728.3z"/>
			<path class="st37" d="M2876.2,710.3h12.8c8,0,14.7,2.8,14.7,11.9c0,8.7-6.7,12.5-14.4,12.5h-4.3v12.1h-8.8V710.3L2876.2,710.3z
				 M2888.9,727.7c4.3,0,6.3-2,6.3-5.6c0-3.7-2.4-5-6.6-5h-3.6v10.6H2888.9z"/>
			<path class="st37" d="M2953.1,718.8v5h-9.4l-0.3,3.6h-28.3l0.5-3.6h-7.8v-5h8.4l0.4-3.5h27.9l-0.3,3.5H2953.1z M2942.3,744.8
				c3.5,1,6.9,2,9.3,2.7l-4.9,4.3c-3.4-1.3-9.3-3.3-14.9-4.8l2.1-2.2h-7.9l3,2.2c-4.2,2.2-11.2,4.1-17.2,4.9
				c-0.8-1.3-2.5-3.4-3.7-4.8c3.7-0.4,7.9-1.3,11.2-2.3h-5.2v-16.4h32.6v16.4L2942.3,744.8L2942.3,744.8z M2915.5,717.7h-6.4v-9.1
				h17.5c-0.3-0.9-0.7-1.8-1.1-2.6l6.2-1.7c0.7,1.3,1.5,2.8,2,4.2h17.9v9.1h-6.7V714h-29.4V717.7z M2921,732.8h18.5v-1H2921V732.8z
				 M2921,737.1h18.5V736H2921V737.1z M2921,741.4h18.5v-1.1H2921V741.4z M2921.8,724h4.9l0.1-1h-4.9L2921.8,724z M2922.5,718.6
				l-0.1,0.9h4.9l0.1-0.9H2922.5z M2937.2,724l0.1-1h-4.6l-0.1,1H2937.2z M2937.7,718.6h-4.5l-0.1,0.9h4.5L2937.7,718.6z"/>
			<path class="st37" d="M2973.2,707.2c-1.2,3.3-2.7,6.7-4.5,10v34.2h-7.2v-23.2c-0.7,0.8-1.4,1.6-2.1,2.3c-0.6-1.8-2.6-5.9-3.8-7.7
				c4.3-4.3,8.3-11,10.7-17.8L2973.2,707.2z M2989.6,719.5v4.1h12v6.5h-12v4.4h12.6v6.6h-12.6v10.4h-7.4v-32h-0.9
				c-2,3.5-4.1,6.7-6.2,9.1c-1.1-1.3-3.9-3.9-5.4-5c4.3-4.3,8.1-11.4,10.3-18.4l6.9,1.8c-0.6,1.9-1.4,3.8-2.2,5.7h18.3v6.8
				L2989.6,719.5L2989.6,719.5z"/>
			<path class="st37" d="M3051.3,741.1v7.2H3006v-7.2h18.2v-23.9h-15.4v-7.5h39.6v7.5h-16v23.9H3051.3z"/>
			<path class="st37" d="M3071.4,707.2c-1.2,3.3-2.7,6.7-4.5,10v34.2h-7.2v-23.2c-0.7,0.8-1.4,1.6-2.1,2.3c-0.6-1.8-2.6-5.9-3.8-7.7
				c4.3-4.3,8.3-11,10.7-17.8L3071.4,707.2z M3087.8,719.5v4.1h12v6.5h-12v4.4h12.6v6.6h-12.6v10.4h-7.4v-32h-0.9
				c-2,3.5-4.1,6.7-6.2,9.1c-1.1-1.3-3.9-3.9-5.4-5c4.3-4.3,8.1-11.4,10.3-18.4l6.9,1.8c-0.6,1.9-1.4,3.8-2.2,5.7h18.3v6.8
				L3087.8,719.5L3087.8,719.5z"/>
			<path class="st37" d="M3133.9,719.6v5h13.9c0,0,0,2-0.1,2.8c-0.5,13.2-1.1,18.8-2.8,20.8c-1.3,1.7-2.7,2.3-4.6,2.6
				c-1.6,0.2-4.1,0.3-6.8,0.2c-0.1-2.1-1-5.1-2.3-7.1c2.3,0.2,4.4,0.2,5.5,0.2c0.8,0,1.3-0.1,1.9-0.7c0.8-0.9,1.3-4.4,1.7-12.3h-6.9
				c-0.9,7.1-4,14.8-13.2,20.3c-1.2-1.6-3.6-3.7-5.4-5c10.3-6.4,11.8-14.7,11.8-20.9v-6h-6.7v3.4h-4.1v9.9c1.5-0.5,2.9-1,4.4-1.5
				l1.4,6.7c-5.7,2.3-12,4.6-17,6.5l-1.6-7.5c1.7-0.5,3.7-1.1,5.9-1.8v-12.3h-5v-6.7h5v-10.4h6.9v10.4h4v-3.5h12.6
				c-0.4-2-1.3-4.8-2-7l6.7-1.6c0.9,2.3,2,5.4,2.5,7.4l-4.8,1.3h14.8v6.8H3133.9z"/>
		</g>
	</g>
</g>
<rect x="635.1" y="671.7" class="st13" width="718.7" height="84.5"/>
<g>
	<g>
		<path class="st37" d="M655.7,691.5H667l2.9,21l1.9,14.6h0.2c0.9-4.9,1.8-9.8,2.7-14.6l4.7-21h9.3l4.8,21c0.9,4.7,1.7,9.6,2.7,14.6
			h0.3c0.6-4.9,1.2-9.8,1.7-14.6l3-21h10.5l-8,46h-13.9l-4.1-20c-0.7-3.5-1.4-7.2-1.8-10.7h-0.3c-0.6,3.5-1.1,7.2-1.8,10.7l-4,20
			h-13.7L655.7,691.5z"/>
		<path class="st37" d="M715.9,714.2c0-15.1,8.5-23.6,21.1-23.6c12.6,0,21.1,8.6,21.1,23.6c0,15.1-8.5,24.1-21.1,24.1
			C724.4,738.3,715.9,729.3,715.9,714.2z M746.8,714.2c0-8.9-3.8-14.2-9.8-14.2c-6.1,0-9.8,5.3-9.8,14.2c0,9,3.7,14.6,9.8,14.6
			C743.1,728.8,746.8,723.2,746.8,714.2z"/>
		<path class="st37" d="M791.5,737.5l-8.5-16.2h-5.3v16.2h-11.1v-46h16.9c9.8,0,18,3.3,18,14.5c0,6.7-3.2,11.1-7.9,13.3l10.3,18.2
			H791.5z M777.7,712.5h4.9c5.3,0,8-2.3,8-6.6s-2.8-5.8-8-5.8h-4.9V712.5z"/>
		<path class="st37" d="M810.4,691.5h11.1v18.2h0.2l13-18.2h12.1l-13.9,18.4l16.5,27.6h-12.1l-10.8-18.9l-5,6.8v12.1h-11.1V691.5z"
			/>
		<path class="st37" d="M849.8,731.7l6.2-7.6c3.3,2.8,7.5,4.7,11.2,4.7c4.1,0,6-1.5,6-4c0-2.7-2.5-3.5-6.5-5.2l-5.9-2.5
			c-4.8-1.9-9.3-5.9-9.3-12.6c0-7.7,6.9-13.9,16.7-13.9c5.3,0,10.9,2,15,6.1l-5.5,6.9c-3-2.3-5.9-3.5-9.5-3.5
			c-3.4,0-5.5,1.4-5.5,3.8c0,2.5,2.9,3.5,7,5.1l5.8,2.3c5.7,2.3,9.1,6.1,9.1,12.6c0,7.7-6.4,14.4-17.6,14.4
			C861,738.3,854.5,736.1,849.8,731.7z"/>
		<path class="st37" d="M892.2,691.5h11.1V709h15.1v-17.5h10.9v46h-10.9v-18.9h-15.1v18.9h-11.1V691.5z"/>
		<path class="st37" d="M938,714.2c0-15.1,8.5-23.6,21.1-23.6c12.6,0,21.1,8.6,21.1,23.6c0,15.1-8.5,24.1-21.1,24.1
			C946.5,738.3,938,729.3,938,714.2z M968.9,714.2c0-8.9-3.8-14.2-9.8-14.2c-6.1,0-9.8,5.3-9.8,14.2c0,9,3.7,14.6,9.8,14.6
			C965.1,728.8,968.9,723.2,968.9,714.2z"/>
		<path class="st37" d="M988.7,691.5h16.1c10.1,0,18.5,3.6,18.5,15c0,10.9-8.5,15.8-18.2,15.8h-5.4v15.3h-11.1V691.5z M1004.6,713.5
			c5.4,0,8-2.5,8-7c0-4.6-3-6.2-8.3-6.2h-4.5v13.3H1004.6z"/>
		<path class="st37" d="M1085.5,702.2v6.2h-11.8l-0.4,4.6h-35.6l0.6-4.6h-9.8v-6.2h10.6l0.6-4.5h35.2l-0.4,4.5H1085.5z
			 M1071.9,734.9c4.5,1.2,8.7,2.5,11.7,3.5l-6.2,5.4c-4.3-1.7-11.7-4.1-18.8-6.1l2.7-2.8h-10l3.8,2.8c-5.3,2.8-14.2,5.1-21.6,6.1
			c-1.1-1.7-3.2-4.3-4.7-6c4.6-0.5,10-1.6,14.2-2.9h-6.5v-20.7h41.1v20.7H1071.9z M1038.1,700.8h-8v-11.4h22
			c-0.4-1.1-0.9-2.2-1.4-3.2l7.9-2.1c0.9,1.6,1.9,3.6,2.5,5.3h22.5v11.4h-8.4v-4.6h-37V700.8z M1045,719.8h23.3v-1.3H1045V719.8z
			 M1045,725.2h23.3v-1.4H1045V725.2z M1045,730.7h23.3v-1.4H1045V730.7z M1046.1,708.7h6.2l0.2-1.3h-6.2L1046.1,708.7z M1046.9,702
			l-0.1,1.2h6.1l0.1-1.2H1046.9z M1065.4,708.7l0.1-1.3h-5.8l-0.2,1.3H1065.4z M1066.1,702h-5.6l-0.1,1.2h5.6L1066.1,702z"/>
		<path class="st37" d="M1110.8,687.6c-1.5,4.1-3.5,8.4-5.7,12.6v43.1h-9.1v-29.2c-0.9,1.1-1.7,2-2.6,2.9c-0.8-2.2-3.3-7.4-4.8-9.7
			c5.4-5.4,10.5-13.9,13.5-22.4L1110.8,687.6z M1131.4,703.1v5.1h15.1v8.2h-15.1v5.6h15.9v8.3h-15.9v13h-9.3v-40.3h-1.2
			c-2.5,4.5-5.1,8.4-7.9,11.5c-1.4-1.7-4.9-4.9-6.8-6.3c5.4-5.4,10.2-14.3,12.9-23.2l8.7,2.3c-0.8,2.4-1.7,4.8-2.8,7.2h23.1v8.5
			H1131.4z"/>
		<path class="st37" d="M1209.2,730.2v9.1h-57.1v-9.1h22.9v-30.1h-19.4v-9.4h49.8v9.4h-20.1v30.1H1209.2z"/>
		<path class="st37" d="M1234.5,687.6c-1.5,4.1-3.5,8.4-5.7,12.6v43.1h-9.1v-29.2c-0.9,1.1-1.7,2-2.6,2.9c-0.8-2.2-3.3-7.4-4.8-9.7
			c5.4-5.4,10.5-13.9,13.5-22.4L1234.5,687.6z M1255.1,703.1v5.1h15.1v8.2h-15.1v5.6h15.9v8.3h-15.9v13h-9.3v-40.3h-1.2
			c-2.5,4.5-5.1,8.4-7.9,11.5c-1.4-1.7-4.9-4.9-6.8-6.3c5.4-5.4,10.2-14.3,12.9-23.2l8.7,2.3c-0.8,2.4-1.7,4.8-2.8,7.2h23.1v8.5
			H1255.1z"/>
		<path class="st37" d="M1313.3,703.3v6.2h17.5c0,0-0.1,2.5-0.2,3.6c-0.7,16.6-1.4,23.6-3.5,26.2c-1.7,2.2-3.4,2.8-5.8,3.2
			c-2,0.3-5.2,0.4-8.5,0.3c-0.1-2.7-1.3-6.4-2.8-8.9c2.8,0.2,5.6,0.3,7,0.3c1.1,0,1.7-0.2,2.4-0.9c1.1-1.1,1.7-5.6,2.2-15.5h-8.7
			c-1.1,8.9-5.1,18.6-16.6,25.6c-1.5-2-4.5-4.6-6.8-6.2c13-8,14.8-18.5,14.8-26.3v-7.5h-8.4v4.3h-5.1v12.5c1.9-0.6,3.7-1.3,5.5-1.9
			l1.7,8.4c-7.2,2.8-15.1,5.8-21.5,8.2l-2-9.4c2.1-0.6,4.7-1.4,7.5-2.3v-15.5h-6.2v-8.5h6.2V686h8.7v13.1h5.1v-4.5h15.8
			c-0.6-2.5-1.6-6.1-2.5-8.8l8.5-2c1.1,2.9,2.5,6.9,3.1,9.3l-6,1.6h18.7v8.6H1313.3z"/>
	</g>
</g>
<g>
	<g>
		<path class="st0" d="M822.5,587.3h-38.8v12.8c0,11.3-2.2,17.4-10.4,20.8c-8.3,3.2-18.7,3.4-32.2,3.4c-0.9-6.8-4.1-16.3-7.2-22.6
			c7.4,0.4,18,0.4,20.7,0.4c2.9-0.2,3.8-0.7,3.8-2.9v-11.9h-41.5c5.7,4.5,11,9.3,14.2,13.3L711.9,617c-5-7-16.5-17.2-25.9-24.3
			l6.5-5.4h-35V567h101v-4.7c-34.5,0.9-67.5,1.4-92.3,1.6l-0.7-18.3c16.5,0.2,37.9,0.2,61.4,0.2v-4.7h-50.1v-53.5h50.1v-4.3h-64.5
			v-19.4h64.5v-10.2h25.7v10.2h64.3v19.4h-64.3v4.3h53v53.5H797c7.4,4.5,14.4,9.2,19.2,12.9L800.4,567c-2-1.8-4.1-3.6-6.8-5.6
			l-9.9,0.4v5.2h38.8V587.3z M701.1,507.2h25.7v-4.3h-25.7V507.2z M726.8,525.9v-4.5h-25.7v4.5H726.8z M752.5,502.9v4.3h27.3v-4.3
			H752.5z M779.8,521.4h-27.3v4.5h27.3V521.4z M752.5,541.2v4.7h16.7c-1.4-0.9-3.1-1.6-4.5-2.3l3.2-2.3H752.5z"/>
		<path class="st0" d="M965.2,585.9c12.6,6.6,26.6,15.1,34.7,21.6l-20.7,18c-9.2-8.4-29.3-21-44.4-29.1l12.2-10.4h-17.6v38.3h-26.2
			v-38.3H878l19.2,6.3c-10.2,12.4-27.7,23.7-42.4,30.4c-5.4-5-16-13.3-22.3-17.2c13.8-4.3,27.8-11.5,36.1-19.4h-34.1v-21.2h68.6
			v-10.2c-16.7,3.6-36.6,5.4-60.5,6.6c-2-7.7-5.2-15.8-8.8-21.2c18.3-0.4,34-1.1,47.2-2.9c-8.3-1.6-16.7-3.1-25.3-4.3
			c4.1-4,8.8-8.4,13.3-13.3h-33.2v-20.1h50.5c3.4-4.5,6.6-8.8,9.3-13.1h-32.7v7.4h-24.1V465h61.1l-2.5-5.7l28.2-5.6
			c1.8,3.4,4.1,7.4,6.1,11.3H995v28.6h-23.5l2,0.4c-0.5,1.8-1.3,3.6-2,5.4h26.2v20.1h-36.3c-3.1,4.7-6.5,8.8-10.2,12.4
			c18.5,4.5,35.2,9.3,48,13.8l-24.6,16.7c-12-5-28.2-10.2-47.2-15.1c-6.3,2.5-13.1,4.7-20.7,6.5h22.8v11h70.2v21.2H965.2z
			 M895.1,520.1c8.8,1.6,17.6,3.2,26.2,5c2.9-1.8,5.6-3.6,8.1-5.7H896L895.1,520.1z M922.6,489.1c-2.5,3.4-5.2,6.8-7.9,10.2h29.1
			c1.4-3.2,2.7-6.6,3.8-10.2l22.3,4.1v-7h-56.9L922.6,489.1z"/>
		<path class="st0" d="M1177.5,483h-26.8c4.3,3.4,8.4,7,11,9.9l-12.2,10.8h23.5v32.5h-22.6V571h-86.6v5.7h96.3v48H1134v-4.3h-70.2
			v4.3h-26.6v-88.6h-22.8v-32.5h9.3c-4.3-4.9-10.8-11.5-14.7-14.9c10.2-9,20.1-23,25.5-36.8l23,6.8c-0.7,1.6-1.4,3.2-2.2,4.9h35.6
			v14.6c7.7-7,14.4-16.5,18.1-26.2l23.7,6.3c-0.7,1.8-1.6,3.6-2.3,5.4h47.1V483z M1044.5,483.1c-5,7.7-10.4,14.7-15.6,20.5h31.3
			c-3.6-4.5-9.5-10.1-14.4-14.2l7-6.3H1044.5z M1146.4,522.8h-106.9v5.6h106.9V522.8z M1124.8,546.7h-61.1v5.9h61.1V546.7z
			 M1063.8,595.4v6.1h70.2v-6.1H1063.8z M1098.8,490c-3.1-2.3-6.1-4.9-9-6.8h-19.6c3.2,2.7,6.1,5.6,8.1,7.9l-13.5,12.6h17.2
			c-1.4-3.2-2.9-6.5-4.5-9.3L1098.8,490z M1140.3,503.6c-4.7-4.7-11-10.1-16.2-14l7.9-6.6h-13.3c-4,5.4-8.3,10.1-12.4,13.8
			c-0.7-0.7-1.6-1.6-2.7-2.5c1.8,3.1,3.4,6.3,4.7,9.3H1140.3z"/>
		<path class="st0" d="M1250.4,589.1c-20.3,7-42.6,14.2-60.5,19.9l-5.7-26.6c5.9-1.4,12.9-3.4,20.7-5.6v-38.4h-16.9v-23.9h16.9
			v-27.5h-18.5V463h61.6v24.1h-18.3v27.5h15.1v23.9h-15.1v31.1c5.4-1.8,11-3.4,16.3-5.2L1250.4,589.1z M1356.8,595.2v23.5h-115.7
			v-23.5h46.9v-12.9h-35v-23.4h35v-12.2h-34.5v-85.9h95.8v85.9h-34.5v12.2h36.1v23.4h-36.1v12.9H1356.8z M1277,493.6h13.5v-10.8
			H1277V493.6z M1277,524.8h13.5v-11H1277V524.8z M1324.4,482.8h-12.2v10.8h12.2V482.8z M1324.4,513.9h-12.2v11h12.2V513.9z"/>
	</g>
	<g>
		
			<linearGradient id="SVGID_00000180355135809598077710000004312469859991780248_" gradientUnits="userSpaceOnUse" x1="590.1542" y1="565.1993" x2="632.9747" y2="576.6771">
			<stop  offset="0" style="stop-color:#505AA7"/>
			<stop  offset="0.9463" style="stop-color:#505AA7;stop-opacity:0"/>
		</linearGradient>
		
			<rect x="540.3" y="553.8" style="fill:url(#SVGID_00000180355135809598077710000004312469859991780248_);" width="109.7" height="25.5"/>
		<g>
			<path class="st0" d="M397.3,480.7c-13.5,33.6-28.6,62.2-46.9,85.9c5.7,13.4,14.2,24.5,26.2,32.5c-9.2,6.1-23,18.4-30.3,27
				c-10.2-8.2-17.9-17.9-23.5-29.5c-12.2,11.1-25.9,20.7-41.1,28.6c-2.3-6.1-10.7-18.6-15.7-24.3c18.6-8.4,34.2-19.8,47.6-33.6
				c-2.8-13.9-3.7-29.3-3.3-46.1c-1.3,1.4-2.6,2.7-3.9,4.1c-2.6-5-9.6-14.1-15.1-19.8l-4,12.7h13.4l-7.4,26.8h-14.4
				c-2.5,7.5-4.9,14.3-6.8,20.4h14.1l-7.2,26.4h-16.7c-4.5,10.5-8.2,16.8-11.4,20.2c-7,7.5-12.9,10-20.4,11.6
				c-6.7,1.4-15.5,1.4-24.8,1.1c1.7-8,1.7-19.8-0.5-27.5c6.4,0.7,11.8,0.9,15.6,0.7c3,0.2,5.1-0.7,8.1-3.9c0.7-0.7,1.1-1.4,1.8-2.3
				h-68.6c5.7-13.2,12.1-29.5,18.8-46.8h-13.9l7.4-26.8H191c2.7-8,5.5-15.9,8.1-23.6c-5.2-5.2-13.5-11.8-18.4-15.2
				c18.4-16.4,35.6-42.9,48-69.3l30.1,6.1c-2.5,5-5.2,10.2-8,15.2h73l-7.7,28.2h-82.7c-2.9,4.5-6,8.9-9.2,12.9h77
				c0,0-2.7,9.1-3.7,12.7l-3.8,12c20.5-21.6,38.2-54.3,51.8-87.5l30.4,5c-5.3,12.3-11.2,24.5-17.5,36.3h56.1l-8.1,29.5H397.3z
				 M211.7,545c-2.6,7-5.2,13.9-7.7,20.4h14.1c-2.2-5-5.1-10.7-8.1-15.2l11.1-5.2H211.7z M221.4,518.2h11.8
				c-1.3-4.8-3.6-10.2-6.1-14.5l11.2-4.8h-10.1L221.4,518.2z M241.9,565.5c2-5.7,4.4-12.5,7-20.4h-14.1c3.7,5.2,6.8,11.4,8.1,15.9
				l-9.3,4.5H241.9z M257.2,518.2l6-19.3h-12.7c3,5.5,5.5,11.8,6,16.6l-6.2,2.7H257.2z M342.2,480.7c-1.7,17.5-2.1,34.3-0.4,49.5
				c8.8-14.8,16.4-31.4,23.5-49.5H342.2z"/>
			
				<linearGradient id="SVGID_00000118373169624883676480000009327857819578560653_" gradientUnits="userSpaceOnUse" x1="401.5445" y1="554.6967" x2="363.9976" y2="565.7399">
				<stop  offset="0" style="stop-color:#505AA7"/>
				<stop  offset="0.9463" style="stop-color:#505AA7;stop-opacity:0"/>
			</linearGradient>
			<path style="fill:url(#SVGID_00000118373169624883676480000009327857819578560653_);" d="M481.8,535c-7.4,2-14.7,3.9-22.3,5.7
				l-14.1,51.3c-3.9,14.3-8.6,22.7-18,27.7c-9.4,5.2-35,6.4-50.6,6.4c1.5-8.2,1.5-21.8-0.1-30.7c7.4,0.5,29.6,0.5,32.5,0.2
				c2.8,0,4-0.7,4.8-3.6l11.9-43.2l-20.5,5l1.6-31.6c7.9-1.4,17.4-3.4,27.6-5.4l9.6-35h-22.1l8.3-30.2h22.2l11.4-41.3h31.3
				L484,451.7h18.8l-8.3,30.2h-18.8l-7.6,27.7l17.6-4.1L481.8,535z M550.7,594.8c5.9,0.7,12,0.9,18.4,0.9c8.2,0,33.9,0,44.9-0.5
				c-5.8,6.6-13.5,20-16.9,27.9h-37.9c-30.9,0-55.2-5-68.9-23.6c-7.9,10.7-16.8,20-26.4,27.5c-4-5-14.7-14.1-20.7-18
				c19.8-13.6,34-36.3,43.8-61.8l30,3.9c-2.9,7-6.2,13.9-9.6,20.4c3.1,6.8,7.8,11.8,13.9,15.4l11.7-42.5H491l6.6-24.1h41.9l2-7.3
				h-56.1l6.9-25.2h56.1l1.8-6.6h-41.9l6.7-24.3H557l1.7-6.4h-51.6l7-25.4h51.6l4.2-15.4h31.6l-4.2,15.4h15.7l-7,25.4h-15.7
				l-1.7,6.4H638l-8.5,30.9h13.7l-6.9,25.2h-13.7l-8.6,31.4h-49.5l-2.6,9.5H583l-6.9,25.2h-21.1L550.7,594.8z M571.1,520.5H589
				l2-7.3h-17.9L571.1,520.5z M580,488h17.9l1.8-6.6h-17.9L580,488z"/>
		</g>
		
			<linearGradient id="SVGID_00000078042188253911507820000008636985970048139187_" gradientUnits="userSpaceOnUse" x1="635.9048" y1="438.8732" x2="678.7256" y2="450.351">
			<stop  offset="0" style="stop-color:#505AA7"/>
			<stop  offset="0.9463" style="stop-color:#505AA7;stop-opacity:0"/>
		</linearGradient>
		
			<rect x="578" y="425.3" style="fill:url(#SVGID_00000078042188253911507820000008636985970048139187_);" width="109.7" height="25.5"/>
		
			<linearGradient id="SVGID_00000036938344701789414920000006987925471168130488_" gradientUnits="userSpaceOnUse" x1="2853.6702" y1="-12.9335" x2="2896.6394" y2="-1.4158" gradientTransform="matrix(-1 0 0 -1 3005.6289 520.3073)">
			<stop  offset="0" style="stop-color:#505AA7"/>
			<stop  offset="0.9463" style="stop-color:#505AA7;stop-opacity:0"/>
		</linearGradient>
		
			<rect x="90.9" y="518.1" style="fill:url(#SVGID_00000036938344701789414920000006987925471168130488_);" width="109.7" height="27"/>
	</g>
</g>
<g>
	<path class="st42" d="M1414.8,709.7h12.4c37,0,67-30,67-67c0-37-30-67-67-67h-25.5"/>
	<line class="st43" x1="1362.7" y1="709.7" x2="1414.8" y2="709.7"/>
	<line class="st44" x1="1459.9" y1="709.7" x2="1521.3" y2="709.7"/>
	<circle class="st0" cx="1438.9" cy="611.3" r="9.9"/>
	<path class="st0" d="M1417.6,656.6L1417.6,656.6c-3.7-1.7-5.3-6.1-3.6-9.7l9.8-21.3c1.7-3.7,6.1-5.3,9.7-3.6l0,0
		c3.7,1.7,5.3,6.1,3.6,9.7l-9.8,21.3C1425.6,656.6,1421.2,658.3,1417.6,656.6z"/>
	<path class="st0" d="M1399.6,640.9c-0.9,0-1.8-0.3-2.5-0.9c-1.6-1.4-1.8-3.8-0.4-5.5l11.9-13.7c0.8-0.9,2-1.4,3.2-1.3l18.4,1.3
		c2.1,0.2,3.7,2,3.6,4.1c-0.2,2.1-2,3.7-4.1,3.6l-16.5-1.2l-10.6,12.2C1401.8,640.5,1400.7,640.9,1399.6,640.9z"/>
	<path class="st0" d="M1446.6,641c-0.9,0-1.7-0.3-2.5-0.9l-12.9-10.6c-1.7-1.4-1.9-3.8-0.5-5.4c1.4-1.7,3.8-1.9,5.4-0.5l10.9,9
		l10.3-5.6c1.9-1,4.2-0.3,5.3,1.5c1,1.9,0.3,4.2-1.5,5.2l-12.6,6.8C1447.9,640.8,1447.2,641,1446.6,641z"/>
	<path class="st0" d="M1404.5,676.4h-19.9c-2.1,0-3.9-1.7-3.9-3.9s1.7-3.9,3.9-3.9h17.8l5.5-8.4c1.2-1.8,3.6-2.3,5.4-1.1
		c1.8,1.2,2.3,3.6,1.1,5.4l-6.6,10.1C1407,675.7,1405.8,676.4,1404.5,676.4z"/>
	<path class="st0" d="M1443.9,690.1c-1.8,0-3.4-1.3-3.8-3.1l-4.6-23l-17.1-7.6c-2-0.9-2.8-3.1-2-5.1c0.9-2,3.1-2.8,5.1-2l18.9,8.4
		c1.1,0.5,2,1.5,2.2,2.8l5,25c0.4,2.1-0.9,4.1-3,4.6C1444.4,690.1,1444.2,690.1,1443.9,690.1z"/>
	<polygon class="st12" points="1535.3,709.7 1512.2,696.6 1512.2,722.7 	"/>
	<polygon class="st13" points="1386.3,575.6 1409.4,588.6 1409.4,562.6 	"/>
</g>
<path class="st45" d="M345.2,786.4h231.5c14.5,0,26.3-11.9,26.3-26.3l0,0c0-14.5-11.9-26.3-26.3-26.3h-46.6
	c-14.5,0-26.3-11.9-26.3-26.3l0,0c0-14.5,11.9-26.3,26.3-26.3h87.2"/>
<g>
	<polygon class="st46" points="370,751.5 345.3,737.3 345.3,765.8 	"/>
	<polygon class="st47" points="399,751.5 374.3,737.3 374.3,765.8 	"/>
	<polygon class="st13" points="428.6,751.5 404,737.3 404,765.8 	"/>
</g>
<g>
	<polygon class="st48" points="30.2,474.7 0.3,457.5 0.3,492 	"/>
	<polygon class="st49" points="65.3,474.7 35.4,457.5 35.4,492 	"/>
	<polygon class="st12" points="101.2,474.7 71.3,457.5 71.3,492 	"/>
</g>
<path class="st45" d="M180.3,753.3h-53.9c-15.6,0-28.4-12.8-28.4-28.4v-19.2V701v-19.2c0-15.6-12.8-28.4-28.4-28.4H44.7
	c-15.6,0-28.4-12.8-28.4-28.4v-84.2"/>
<path class="st12" d="M16.2,553.9L16.2,553.9c-8.1,0-14.7-6.6-14.7-14.7l0,0c0-8.1,6.6-14.7,14.7-14.7h0c8.1,0,14.7,6.6,14.7,14.7
	l0,0C30.9,547.3,24.3,553.9,16.2,553.9z"/>
<g>
	<g>
		<g>
			<g>
				<circle class="st19" cx="1243.3" cy="329.1" r="17"/>
				<path class="st19" d="M1250.5,348.8h-14.4c-12.9,0-23.4,10.5-23.4,23.4v12.7h13v-11.6c0-0.9,0.7-1.6,1.6-1.6
					c0.9,0,1.6,0.7,1.6,1.6v11.6h28.5v-11.6c0-0.9,0.7-1.6,1.6-1.6c0.9,0,1.6,0.7,1.6,1.6v11.6h13.4v-12.7
					C1273.9,359.3,1263.4,348.8,1250.5,348.8z"/>
			</g>
			<g>
				<circle class="st19" cx="1351.4" cy="329.1" r="17"/>
				<path class="st19" d="M1358.6,348.8h-14.4c-12.9,0-23.4,10.5-23.4,23.4v12.7h13v-11.6c0-0.9,0.7-1.6,1.6-1.6
					c0.9,0,1.6,0.7,1.6,1.6v11.6h28.5v-11.6c0-0.9,0.7-1.6,1.6-1.6s1.6,0.7,1.6,1.6v11.6h13.4v-12.7
					C1382,359.3,1371.5,348.8,1358.6,348.8z"/>
			</g>
			<g>
				<circle class="st0" cx="1297" cy="338.5" r="17"/>
				<path class="st0" d="M1304.2,358.2h-14.4c-12.9,0-23.4,10.5-23.4,23.4v18.8h13v-17.7c0-0.9,0.7-1.6,1.6-1.6
					c0.9,0,1.6,0.7,1.6,1.6v17.7h28.5v-17.7c0-0.9,0.7-1.6,1.6-1.6c0.9,0,1.6,0.7,1.6,1.6v17.7h13.4v-18.8
					C1327.6,368.7,1317.1,358.2,1304.2,358.2z"/>
			</g>
		</g>
	</g>
	<g>
		<polygon class="st0" points="453.7,280.9 471.1,249.9 436.3,249.9 		"/>
		<polygon class="st12" points="651.3,301.2 627.7,287.9 627.7,314.5 		"/>
		<line class="st50" x1="545.6" y1="301.2" x2="635.6" y2="301.2"/>
		<path class="st51" d="M530.6,150.5c5.2-2.2,10.9-3.4,16.8-3.4c23.9,0,43.2,19.4,43.2,43.2c0,17.7-10.7,32.9-25.9,39.6"/>
		<polygon class="st13" points="507.2,151 539.5,165.7 536.5,131 		"/>
		<line class="st52" x1="461.6" y1="311.2" x2="370.7" y2="311.2"/>
		<path class="st53" d="M453.4,251.9c0-32.7,26.5-59.3,59.3-59.3c32.7,0,59.3,26.5,59.3,59.3s-26.5,59.3-59.3,59.3h-51.1"/>
	</g>
	<g>
		<rect x="688.1" y="258.2" class="st54" width="14.6" height="14.6"/>
		<rect x="805.1" y="258.2" class="st54" width="14.6" height="14.6"/>
		<rect x="688.1" y="284.4" class="st12" width="14.6" height="14.6"/>
		<rect x="717.4" y="284.4" class="st54" width="14.6" height="14.6"/>
		<rect x="746.6" y="284.4" class="st13" width="14.6" height="14.6"/>
		<rect x="775.9" y="284.4" class="st54" width="14.6" height="14.6"/>
		<rect x="805.1" y="284.4" class="st12" width="14.6" height="14.6"/>
		<rect x="746.6" y="310.7" class="st54" width="14.6" height="14.6"/>
		<rect x="717.4" y="258.2" class="st54" width="14.6" height="14.6"/>
		<rect x="775.9" y="310.7" class="st12" width="14.6" height="14.6"/>
		<rect x="775.9" y="258.2" class="st13" width="14.6" height="14.6"/>
		<rect x="805.1" y="310.7" class="st54" width="14.6" height="14.6"/>
	</g>
	<g>
		<polyline class="st55" points="835.1,236.1 835.1,339.2 672.8,339.2 672.8,236.1 		"/>
		<g>
			<polyline class="st56" points="672.8,239.2 672.8,213 678,213 829.8,213 835.1,213 835.1,239.2 			"/>
		</g>
	</g>
	<g>
		<polyline class="st55" points="324.4,354 324.4,370.2 195.4,370.2 195.4,197.3 297.1,197.3 324.4,226.5 324.4,260.8 		"/>
		<path class="st57" d="M317.9,260.8"/>
		<polygon class="st58" points="324.4,226.8 297.1,226.8 297.1,197.3 		"/>
		<g>
			<rect x="269.7" y="246.8" class="st59" width="37.1" height="16.7"/>
			<rect x="242" y="287.9" class="st60" width="37.1" height="16.7"/>
			<rect x="214.3" y="329.1" class="st57" width="37.1" height="16.7"/>
			<path class="st61" d="M217.7,324.4v-18.9c0-4.4,3.6-8,8-8h7.7"/>
			<polygon class="st0" points="239.8,297.4 230.9,292.3 230.9,302.6 			"/>
			<path class="st62" d="M244.4,283.4v-18.9c0-4.4,3.6-8,8-8h7.7"/>
			<polygon class="st13" points="266.5,256.5 257.5,251.3 257.5,261.6 			"/>
		</g>
		<g>
			<circle class="st63" cx="330.1" cy="316.2" r="36.7"/>
			<g>
				<line class="st60" x1="333.5" y1="341.1" x2="334.3" y2="346.7"/>
				<line class="st60" x1="315.3" y1="288.7" x2="317.9" y2="293.6"/>
				<line class="st60" x1="341.9" y1="338.4" x2="344.6" y2="343.3"/>
				<line class="st60" x1="306.8" y1="295.3" x2="311" y2="299.1"/>
				<line class="st60" x1="348.8" y1="332.9" x2="353" y2="336.7"/>
				<line class="st60" x1="301.1" y1="304.5" x2="306.3" y2="306.6"/>
				<line class="st60" x1="353.5" y1="325.4" x2="358.7" y2="327.5"/>
				<line class="st60" x1="298.9" y1="315" x2="304.5" y2="315.2"/>
				<line class="st60" x1="300.4" y1="325.7" x2="305.8" y2="323.9"/>
				<line class="st60" x1="305.5" y1="335.2" x2="310" y2="331.7"/>
				<line class="st60" x1="313.5" y1="342.4" x2="316.5" y2="337.6"/>
				<line class="st60" x1="323.5" y1="346.4" x2="324.7" y2="340.8"/>
			</g>
			<path class="st62" d="M358.3,316.2c0-15.6-12.6-28.2-28.2-28.2"/>
			<path class="st63" d="M340.1,273.9H320c-2.2,0-4.1-1.8-4.1-4.1v-3.1c0-2.2,1.8-4.1,4.1-4.1h20.1c2.2,0,4.1,1.8,4.1,4.1v3.1
				C344.2,272.1,342.3,273.9,340.1,273.9z"/>
			<polyline class="st63" points="361.6,296 369.5,288 361.1,279.6 353.1,287.5 			"/>
			<polyline class="st63" points="298.7,296.2 290.6,288 299,279.6 307.1,287.7 			"/>
			<path class="st13" d="M330.5,311c-3.1-0.2-5.9,2.1-6.1,5.2c-0.2,3.1,2.1,5.9,5.2,6.1c3.1,0.2,21.3-6.1,21.3-6.1
				S333.6,311.2,330.5,311z"/>
		</g>
	</g>
	<path class="st45" d="M1195.7,355.9H952.6c-11.3,0-20.6-9.3-20.6-20.6v0c0-11.3,9.3-20.6,20.6-20.6h43.6c11.3,0,20.6-9.3,20.6-20.6
		v0c0-11.3-9.3-20.6-20.6-20.6H834.8"/>
	<g>
		<polygon class="st46" points="952.7,239.2 928.1,224.9 928.1,253.4 		"/>
		<polygon class="st47" points="981.7,239.2 957,224.9 957,253.4 		"/>
		<polygon class="st13" points="1011.3,239.2 986.7,224.9 986.7,253.4 		"/>
	</g>
	<line class="st64" x1="685.9" y1="244.8" x2="821.8" y2="244.8"/>
	<rect x="686.5" y="229.1" class="st0" width="18.1" height="5.9"/>
	<rect x="715.6" y="229.1" class="st0" width="18.1" height="5.9"/>
	<rect x="745" y="229.1" class="st0" width="18.1" height="5.9"/>
	<rect x="803.4" y="229.1" class="st12" width="18.1" height="5.9"/>
	<rect x="774.2" y="229.1" class="st0" width="18.1" height="5.9"/>
	<polyline class="st55" points="672.8,213 753.9,170.8 835.1,213 	"/>
	<circle class="st12" cx="753.9" cy="174" r="9.9"/>
	<g>
		<circle class="st35" cx="1188.3" cy="230.9" r="19.8"/>
	</g>
	<g>
		<circle class="st13" cx="1147.8" cy="283.9" r="19.8"/>
	</g>
	<g>
		<circle class="st12" cx="1191.2" cy="314.8" r="19.8"/>
	</g>
	<g>
		<circle class="st65" cx="1296.4" cy="254.8" r="42.9"/>
		<line class="st65" x1="1296.4" y1="225.1" x2="1296.4" y2="199.9"/>
		<line class="st65" x1="1296.4" y1="310.3" x2="1296.4" y2="285.1"/>
		<line class="st65" x1="1266.5" y1="255.1" x2="1241.3" y2="255.1"/>
		<line class="st65" x1="1351.6" y1="255.1" x2="1326.4" y2="255.1"/>
		<circle class="st13" cx="1296.8" cy="254.9" r="22.1"/>
		<polygon class="st37" points="1292.6,266.4 1281.8,250.5 1286.8,247.1 1295,259.2 1308.7,236.7 1313.9,239.8 1297.7,266.3 		"/>
	</g>
</g>
<g>
	<path class="st13" d="M301.7,791.1h-31.5c-2.2,0-4.3-1-5.7-2.8l-13.1-17.1l9-11.8l13.3,17.4h28V791.1z"/>
	<path class="st13" d="M237.8,753.3l-13.2-17.2h-17.9v-14.3h21.4c2.2,0,4.3,1,5.7,2.8l13.1,17.1L237.8,753.3z"/>
	<polygon class="st13" points="322,783.9 291.8,764.8 291.8,803.1 	"/>
	<path class="st0" d="M228.1,791.1h-21.4v-14.3h17.9l39.9-52.2c1.4-1.8,3.5-2.8,5.7-2.8h31.5v14.3h-28l-39.9,52.2
		C232.5,790,230.4,791.1,228.1,791.1z"/>
	<polygon class="st0" points="322,729 291.8,748.1 291.8,709.8 	"/>
</g>
<g>
	<g>
		<g>
			<g>
				
					<image style="overflow:visible;opacity:0.2;enable-background:new    ;" width="222" height="211" xlink:href="D938A08C.png"  transform="matrix(1.2338 0 0 1.2338 1679.897 -8.3299)">
				</image>
				<g>
					<polygon class="st66" points="1869.4,230.6 1700.2,157 1748.9,47.3 1765.7,12.2 1932.6,85 1917.9,120.9 					"/>
				</g>
			</g>
			<g class="st67">
				<polygon class="st68" points="1917.9,120.9 1748.9,47.3 1765.7,12.2 1932.6,85 				"/>
			</g>
		</g>
		<g>
			<g>
				<g>
					<g>
						<g>
							<defs>
								<polygon id="SVGID_00000022531148785753204040000016042922296181891491_" points="1904.8,54.5 1907.6,61.6 1899.5,70.3 
									1875.8,94.1 1875.9,101.8 1887.1,106.9 1922.1,73.9 1922.1,80.4 1953.1,55.5 1939.2,41.2 1926,39.9 								"/>
							</defs>
							<clipPath id="SVGID_00000094587085007933298260000003129593923104698809_">
								<use xlink:href="#SVGID_00000022531148785753204040000016042922296181891491_"  style="overflow:visible;"/>
							</clipPath>
							<path style="clip-path:url(#SVGID_00000094587085007933298260000003129593923104698809_);fill:#409DCF;" d="M1871.2,110.6
								c-9.6-10,0-19.2,5.8-24.8l24.7-23.6c0.6-0.6,1.8-0.6,2.4,0c0.6,0.6,0.6,1.8,0,2.4l-24.7,23.6c-8.7,8.4-11.9,13.6-5.7,20.2
								c2.2,2.2,4.4,3.3,6.6,3.3c3.1-0.1,5.2-2.5,5.2-2.6l0.1-0.1l42.1-40c4.9-4.7,5.7-8.9,2.2-12.5c-3.6-3.7-8.1-1.3-8.8-0.9
								L1892.5,83c-7.9,7.5-9.4,9.9-5.9,13.6c1,1.1,2.1,1.6,3.2,1.6c2.5,0,4.6-2.4,4.6-2.4l22.5-21.3c0.6-0.6,1.8-0.6,2.4,0
								c0.6,0.6,0.6,1.8,0,2.2L1896.9,98c0,0-3,3.2-7,3.3c-2.1,0-4-0.9-5.6-2.6c-6.2-6.6-0.9-11.6,6-18.2l28.9-27.5
								c2.5-1.6,8.4-3.6,13,1.2c4.7,4.9,4,11.2-2.4,17.1l-41.9,40c-0.6,0.6-3.3,3.4-7.4,3.6C1877,115.1,1874,113.6,1871.2,110.6z"/>
						</g>
					</g>
				</g>
			</g>
		</g>
	</g>
	<g>
		<g>
			<g>
				<path class="st70" d="M1751,135.2c1,2.1,2.5,4.4,4.3,5.9c-1,0.3-2.6,1.1-3.4,1.8c-1.2-1.5-2.4-3.2-3.2-5l-1,2.2l-5.3-2.4
					l-0.9,1.9l9.7,4.3l-1.2,2.9l-22.5-9.9l1.2-2.9l9.3,4.1l0.9-1.9l-5.2-2.2l0.7-1.9c-1.9,0.6-4.1,1-6,1c-0.1-1-0.6-2.8-1.1-3.7
					c2.5,0.1,5.3-0.3,7.5-1.1l-5.7-2.5l1.2-2.9l5.6,2.5l3.8-8.8l-4.1-1.8l1.2-2.9l4.1,1.8l1-2.2l3.4,1.5l-1,2.2l9.3,4.1l1-2.2
					l3.6,1.6l-1,2.2l4.1,1.8l-1.2,2.9l-4.1-1.8l-3.8,8.8l5.5,2.4l-1.2,2.9L1751,135.2z M1748.2,136.8c-0.6-1.1-0.9-2.2-1-3.3
					l-8.4-3.6c-1,0.6-2.1,1.1-3.2,1.5l4.3,1.9l0.7-1.9l3.6,1.6l-0.7,1.9L1748.2,136.8z M1739.4,126.8l9.3,4.1l0.6-1.3l-9.3-4.1
					L1739.4,126.8z M1741.2,123l9.3,4.1l0.6-1.2l-9.3-4.1L1741.2,123z M1743.4,118l-0.6,1.2l9.3,4.1l0.6-1.2L1743.4,118z"/>
				<path class="st70" d="M1759.1,147.3l-1,2.1l-2.5-1.1l4.1-9.3c-0.6,0.6-1.2,0.9-1.9,1.2c0.3-1,0.7-3.4,0.7-4.6
					c2.8-1.8,5.5-4.9,7.8-8.4l-2.9-1.2l1.3-3.2l8.9,4l-1.3,3.2l-3.2-1.5c-1.2,1.9-2.6,3.7-4.1,5.3l4.4,1.9l-5.9,13.5L1759.1,147.3z
					 M1765.7,137.7l-1.9-0.9l-3.2,7.4l1.9,0.9L1765.7,137.7z M1774.8,154.5c0.6,0.3,1.1,0.6,1.6,0.9c0.9,0.4,4.6,1.9,5.8,2.5
					c-0.7,0.6-1.8,1.8-2.2,2.5l-5-2.2c-3.6-1.6-5.9-3.4-6.5-7.1c-1.3,1.3-3.1,2.2-5.2,2.6c-0.1-0.9-0.6-2.4-1-3.2
					c3.8-0.6,5.7-3.7,7.4-7l3.1,1.3c-0.6,1-1.1,2.1-1.8,3c-0.1,1.8,0.3,3.1,0.9,4.1l3.1-7.1l-6.9-3l1.2-2.9l14.6,6.3l0.6,0.1
					l1.9,1.8c-1.2,1.3-2.8,2.9-3.8,3.8l-2.2-2.1c0.4-0.4,0.7-0.7,1.1-1.2l-3.2-1.5l-1.1,2.5l4.9,2.1l-1.2,2.8l-4.9-2.1L1774.8,154.5
					z M1774.1,136.3c-1.2,0.9-2.6,1.6-3.7,1.9c0-0.9-0.3-2.2-0.6-3c1.6-0.4,3.6-1.6,5-3l-2.1-0.9l1.1-2.6l2.8,1.2l1.2-2.9l2.9,1.2
					l-1.2,2.9l2.2,1l-1.1,2.6l-2.2-1l-0.1,0.4c0.4,0.6,1.6,2.6,1.9,3.2l-2.5,1.2c-0.1-0.6-0.3-1.2-0.6-1.9l-1.9,4.1l-2.9-1.2
					L1774.1,136.3z M1782.2,139.9c-1.2,0.9-2.6,1.5-3.7,1.8c0-0.7-0.3-2.1-0.4-2.9c1.8-0.3,3.7-1.5,5.5-2.9l-2.1-1l1.1-2.6l2.5,1.1
					l1.2-2.9l3,1.2l-1.2,2.9l3.2,1.5l-1.1,2.6l-2.8-1.2c0,2.1,0.4,4.5,1.3,5.9c-0.7,0.3-1.9,0.7-2.8,1.1c-0.4-1-0.6-2.2-0.7-3.6
					l-1.5,3.2l-3-1.2L1782.2,139.9z"/>
				<path class="st70" d="M1809.2,142.8c-2.5,5.6-6.3,16.6,1.6,27.7c-1,0.4-3.1,1.2-4.1,1.9c-4.5-6.3-5-13.3-4.5-19.3
					c-5.2,5.6-10.9,8.9-17.2,9.7c-0.4-1-1.2-3.2-1.9-4.4c7.4-0.4,13.5-4.6,18.5-11.5l1.6,1.1c0.3-1.2,0.6-2.4,1-3.3l-6.7-3l1.6-3.6
					L1809.2,142.8z"/>
				<path class="st70" d="M1829.9,164.9l-7.8-3.4l-6.6,14.9l-3.4-1.5l11.5-26.3l11.2,4.9L1829.9,164.9z M1827.8,160.6l0.7-1.8
					l-4.5-1.9l-0.7,1.8L1827.8,160.6z M1825.8,152.8l-0.7,1.6l4.5,1.9l0.7-1.6L1825.8,152.8z M1838.7,181.6
					c-0.9,1.9-1.8,2.9-3.2,2.9s-3.4-0.7-6.3-1.9c0.3-1.1,0.6-3,0.4-4.1c1.9,1,4,1.9,4.6,2.1s0.9,0.1,1.1-0.4l4.7-10.7l-8.1-3.4
					l5-11.4l11.5,5L1838.7,181.6z M1841.1,166.6l0.7-1.8l-4.7-2.1l-0.7,1.8L1841.1,166.6z M1838.9,158.6l-0.7,1.6l4.7,2.1l0.7-1.6
					L1838.9,158.6z"/>
				<path class="st70" d="M1850.4,186.6c-3.3-0.6-7-1.2-9.7-1.9l0.7-3.4c1,0.3,2.2,0.6,3.6,0.9l3-6.9l-2.5-1.1l1.3-3.1l2.5,1.1
					l2.9-6.3l-2.9-1.2l1.3-3.2l9,4l-1.3,3.2l-3-1.3l-2.9,6.3l2.4,1l-1.3,3.1l-2.4-1l-2.8,6.2l2.9,0.6L1850.4,186.6z M1862,179.1
					c-2.6,6-5.7,11-12.9,12.1c-0.1-1-0.6-2.6-1-3.4c5.6-0.7,8.2-4.4,10.3-8.8h-1.6c0.1-2.1,0-5.7-0.3-8.4l3,0.1
					c0.1,1.5,0.3,3.1,0.4,4.7l4.6-10.4l3.1,1.3L1862,179.1z M1868.7,194.7l-1.5,3.2l-12.3-5.5l1.5-3.2l5.2,2.2l3.4-8.1l-3.3-1.5
					l1.3-3.1l3.3,1.5l3.2-7.2l-3.7-1.6l1.3-3.2l10.3,4.5l-1.3,3.2l-3.2-1.3l-3.2,7.2l2.9,1.2l-1.3,3.1l-2.9-1.2l-3.4,8.1
					L1868.7,194.7z"/>
			</g>
		</g>
		<g>
			<g>
				<path class="st70" d="M1751.4,101.3l6.2-3.1c1.3,2.8,3.4,5,5.8,6.2c2.6,1.1,4.4,0.7,4.9-0.9c0.7-1.8-0.6-3-2.8-5.2l-3.1-3.2
					c-2.6-2.6-4.4-6.5-2.5-10.7c2.2-4.9,8.4-7,14.7-4.3c3.4,1.5,6.5,4.4,7.9,8.1l-5.5,2.9c-1.2-2.4-2.8-4-5-4.9
					c-2.2-1-4-0.6-4.6,0.9c-0.7,1.6,0.9,3.1,3,5.2l3.1,3.1c3,3.1,4.1,6.5,2.2,10.7c-2.1,4.9-8.2,7.4-15.3,4.4
					C1756.9,108.7,1753.2,105.4,1751.4,101.3z"/>
				<path class="st70" d="M1779.2,104.4c3.3-7.4,10.9-9.4,17.1-6.7c2.8,1.2,4.5,3.1,5.6,5.3l-5.3,3.1c-0.6-1.3-1.3-2.1-2.4-2.5
					c-3.1-1.3-6,0.1-7.7,4c-1.6,3.7-0.6,7,2.1,8.2c1.5,0.6,3.1,0.6,4.6,0.1l0.6,5.8c-3,1-6.2,0.6-8.5-0.6
					C1779,118.4,1776,111.8,1779.2,104.4z"/>
				<path class="st70" d="M1805.8,102.6l5.7,2.5l-1.2,4.1l0.1,0.1c3-2.2,6-2.6,8.4-1.6c1.3,0.6,1.9,1.1,2.5,1.8l-3.8,5.6
					c-0.7-0.6-1.3-1-2.4-1.5c-1.6-0.7-4.3-0.6-6.7,1.9l-5.7,12.9l-7.1-3.1L1805.8,102.6z"/>
				<path class="st70" d="M1816.7,124.1l6-14l7.1,3.1l-5.7,13.1c-1.3,3.1-0.9,4.4,0.9,5.2c1.6,0.7,2.9,0.6,4.9-0.6l6.5-14.8l7.1,3.1
					l-9.9,22.6l-5.7-2.5l0.9-3.3l-0.1-0.1c-2.9,1.3-5.6,1.9-8.7,0.6C1814.9,134.2,1814.3,129.7,1816.7,124.1z"/>
				<path class="st70" d="M1848.1,121.2l5.7,2.5l-0.7,3.1l0.1,0.1c2.8-1,5.3-1.8,8.4-0.4c3.1,1.3,4.5,3.4,4.6,6.5
					c2.9-1.1,5.7-1.9,8.7-0.6c4.9,2.1,5.5,6.6,3,12.3l-6,14l-7.1-3.1l5.7-13.1c1.3-3.1,1-4.4-0.9-5c-1-0.6-2.6-0.4-4.5,0.6
					l-6.6,15.1l-7.1-3.1l5.7-13.1c1.3-3.1,1-4.4-0.9-5c-1-0.6-2.6-0.4-4.5,0.6l-6.6,15.1l-7.1-3.1L1848.1,121.2z"/>
			</g>
		</g>
	</g>
</g>
</svg>
