<svg id="圖層_1" data-name="圖層 1" xmlns="http://www.w3.org/2000/svg" viewBox="0 0 640 800"><defs><style>.cls-1{fill:#dedede;}.cls-2{fill:#6c8fdd;}.cls-3{fill:#fff;}.cls-4{fill:#5b73b7;}.cls-5{fill:#87a0d8;}.cls-6{fill:#f48d7e;}.cls-7{fill:#e5bab5;}.cls-8{fill:#52a1d8;}.cls-9{fill:#96d0ea;}.cls-10{fill:#2555a5;}.cls-11{fill:#ef5353;}.cls-12{fill:#b2b2b3;}.cls-13{fill:#283558;}.cls-14{fill:#e2847e;}.cls-15{fill:#ffedc5;}.cls-16{fill:#293856;}</style></defs><ellipse class="cls-1" cx="320" cy="335.39" rx="292" ry="278"/><polyline class="cls-2" points="508.99 273.91 153 273.91 153 253.68 508.99 253.68 508.99 273.91"/><path class="cls-3" d="M153,273.91V491.26H366.17a31.39,31.39,0,0,1,25.39-12.91H509V273.91Z"/><path class="cls-3" d="M376.25,358.36a18.64,18.64,0,1,1-18.64-18.63,18.65,18.65,0,0,1,18.64,18.63Z"/><path class="cls-4" d="M201.61,318.18a18.58,18.58,0,0,1,6.09,1,18.63,18.63,0,1,0-24.17,13.19A18.61,18.61,0,0,1,201.61,318.18Z"/><path class="cls-5" d="M207.7,319.21a18.59,18.59,0,0,0-24.17,13.19C185.43,333.07,200,329,207.7,319.21Z"/><path class="cls-4" d="M254.61,315.18a18.58,18.58,0,0,1,6.09,1,18.63,18.63,0,1,0-24.17,13.19A18.61,18.61,0,0,1,254.61,315.18Z"/><path class="cls-5" d="M260.7,316.21a18.59,18.59,0,0,0-24.17,13.19C238.43,330.07,253,326,260.7,316.21Z"/><path class="cls-4" d="M304.61,326.18a18.58,18.58,0,0,1,6.09,1,18.63,18.63,0,1,0-24.17,13.19A18.61,18.61,0,0,1,304.61,326.18Z"/><path class="cls-5" d="M310.7,327.21a18.59,18.59,0,0,0-24.17,13.19C288.43,341.07,303,337,310.7,327.21Z"/><path class="cls-6" d="M369.61,315.18a18.58,18.58,0,0,1,6.09,1,18.63,18.63,0,1,0-24.17,13.19A18.61,18.61,0,0,1,369.61,315.18Z"/><path class="cls-7" d="M375.7,316.21a18.59,18.59,0,0,0-24.17,13.19C353.43,330.07,368,326,375.7,316.21Z"/><path class="cls-8" d="M478.61,318.18a18.58,18.58,0,0,1,6.09,1,18.63,18.63,0,1,0-24.17,13.19A18.61,18.61,0,0,1,478.61,318.18Z"/><path class="cls-9" d="M484.7,319.21a18.59,18.59,0,0,0-24.17,13.19C462.43,333.07,477,329,484.7,319.21Z"/><path class="cls-4" d="M201.61,365.51a18.58,18.58,0,0,1,6.09,1,18.89,18.89,0,0,0,.55-4.41,18.64,18.64,0,1,0-24.72,17.6A18.62,18.62,0,0,1,201.61,365.51Z"/><path class="cls-5" d="M207.7,366.55a18.56,18.56,0,0,0-24.17,13.19C185.43,380.4,200,376.33,207.7,366.55Z"/><path class="cls-6" d="M309.61,399.18a18.58,18.58,0,0,1,6.09,1,18.63,18.63,0,1,0-24.17,13.19A18.61,18.61,0,0,1,309.61,399.18Z"/><path class="cls-7" d="M315.7,400.21a18.59,18.59,0,0,0-24.17,13.19C293.43,414.07,308,410,315.7,400.21Z"/><path class="cls-6" d="M361.61,364.18a18.58,18.58,0,0,1,6.09,1,18.63,18.63,0,1,0-24.17,13.19A18.61,18.61,0,0,1,361.61,364.18Z"/><path class="cls-7" d="M367.7,365.21a18.59,18.59,0,0,0-24.17,13.19C345.43,379.07,360,375,367.7,365.21Z"/><path class="cls-8" d="M479.61,364.18a18.58,18.58,0,0,1,6.09,1,18.63,18.63,0,1,0-24.17,13.19A18.61,18.61,0,0,1,479.61,364.18Z"/><path class="cls-9" d="M485.7,365.21a18.59,18.59,0,0,0-24.17,13.19C463.43,379.07,478,375,485.7,365.21Z"/><path class="cls-6" d="M354.61,454.18a18.58,18.58,0,0,1,6.09,1,18.63,18.63,0,1,0-24.17,13.19A18.61,18.61,0,0,1,354.61,454.18Z"/><path class="cls-7" d="M360.7,455.21a18.59,18.59,0,0,0-24.17,13.19C338.43,469.07,353,465,360.7,455.21Z"/><path class="cls-6" d="M194.61,426.18a18.58,18.58,0,0,1,6.09,1,18.63,18.63,0,1,0-24.17,13.19A18.61,18.61,0,0,1,194.61,426.18Z"/><path class="cls-7" d="M200.7,427.21a18.59,18.59,0,0,0-24.17,13.19C178.43,441.07,193,437,200.7,427.21Z"/><path class="cls-6" d="M357.61,411.18a18.58,18.58,0,0,1,6.09,1,18.63,18.63,0,1,0-24.17,13.19A18.61,18.61,0,0,1,357.61,411.18Z"/><path class="cls-7" d="M363.7,412.21a18.59,18.59,0,0,0-24.17,13.19C341.43,426.07,356,422,363.7,412.21Z"/><path class="cls-6" d="M300.61,446.84a18.58,18.58,0,0,1,6.09,1,18.63,18.63,0,1,0-24.17,13.19A18.62,18.62,0,0,1,300.61,446.84Z"/><path class="cls-7" d="M306.7,447.88a18.56,18.56,0,0,0-24.17,13.19C284.43,461.73,299,457.67,306.7,447.88Z"/><path class="cls-8" d="M480.61,412.18a18.58,18.58,0,0,1,6.09,1,18.63,18.63,0,1,0-24.17,13.19A18.61,18.61,0,0,1,480.61,412.18Z"/><path class="cls-9" d="M486.7,413.21a18.59,18.59,0,0,0-24.17,13.19C464.43,427.07,479,423,486.7,413.21Z"/><path class="cls-8" d="M429.61,364.18a18.58,18.58,0,0,1,6.09,1,18.63,18.63,0,1,0-24.17,13.19A18.61,18.61,0,0,1,429.61,364.18Z"/><path class="cls-9" d="M435.7,365.21a18.59,18.59,0,0,0-24.17,13.19C413.43,379.07,428,375,435.7,365.21Z"/><path class="cls-8" d="M432.61,404.18a18.58,18.58,0,0,1,6.09,1,18.63,18.63,0,1,0-24.17,13.19A18.61,18.61,0,0,1,432.61,404.18Z"/><path class="cls-9" d="M438.7,405.21a18.59,18.59,0,0,0-24.17,13.19C416.43,419.07,431,415,438.7,405.21Z"/><path class="cls-8" d="M433.61,449.18a18.58,18.58,0,0,1,6.09,1,18.63,18.63,0,1,0-24.17,13.19A18.61,18.61,0,0,1,433.61,449.18Z"/><path class="cls-9" d="M439.7,450.21a18.59,18.59,0,0,0-24.17,13.19C417.43,464.07,432,460,439.7,450.21Z"/><path class="cls-3" d="M169.75,263.79a4.55,4.55,0,1,1-4.55-4.54,4.55,4.55,0,0,1,4.55,4.54Z"/><path class="cls-10" d="M185.46,263.79a4.55,4.55,0,1,1-4.55-4.54,4.55,4.55,0,0,1,4.55,4.54Z"/><path class="cls-11" d="M201.17,263.79a4.55,4.55,0,1,1-4.55-4.54,4.54,4.54,0,0,1,4.55,4.54Z"/><path class="cls-12" d="M453.56,235.86H286.44A31.42,31.42,0,0,1,255,204.44V186.85a31.41,31.41,0,0,1,31.41-31.41H453.56A31.41,31.41,0,0,1,485,186.85v17.59a31.42,31.42,0,0,1-31.41,31.42"/><polygon class="cls-3" points="462.94 196.39 337 196.39 337 190.43 462.94 190.43 462.94 196.39 462.94 196.39"/><polygon class="cls-3" points="462.94 209.89 337 209.89 337 203.93 462.94 203.93 462.94 209.89 462.94 209.89"/><polygon class="cls-3" points="360.79 223.39 337 223.39 337 217.43 360.79 217.43 360.79 223.39 360.79 223.39"/><path class="cls-12" d="M286.65,122.33a15.07,15.07,0,0,0-15.08-15.07H223.1A15.07,15.07,0,0,0,208,122.33v8.44a15.08,15.08,0,0,0,15.07,15.08h48.47a15.08,15.08,0,0,0,15.08-15.08v-8.44Z"/><path class="cls-3" d="M237.79,126.55a2.95,2.95,0,1,1-2.94-2.94,2.95,2.95,0,0,1,2.94,2.94Z"/><path class="cls-3" d="M250.24,126.55a2.95,2.95,0,1,1-3-2.94,2.95,2.95,0,0,1,3,2.94Z"/><path class="cls-3" d="M262.69,126.55a2.95,2.95,0,1,1-2.95-2.94,2.95,2.95,0,0,1,2.95,2.94Z"/><path class="cls-3" d="M336.8,170.22h2.4l.2,1.16h.08a5.32,5.32,0,0,1,3.3-1.44c2.76,0,4.4,2.26,4.4,5.7,0,3.84-2.3,6.06-4.76,6.06a4.16,4.16,0,0,1-2.78-1.22l.08,1.84v3.4H336.8Zm7.36,5.46c0-2.14-.68-3.32-2.22-3.32a3.16,3.16,0,0,0-2.22,1.16v4.92a3.13,3.13,0,0,0,2,.84C343.12,179.28,344.16,178.12,344.16,175.68Z"/><path class="cls-3" d="M349,175.84c0-3.64,2.54-5.9,5.22-5.9,3.08,0,4.68,2.26,4.68,5.36a5.46,5.46,0,0,1-.14,1.34h-6.9a2.94,2.94,0,0,0,3.1,2.8,4.62,4.62,0,0,0,2.52-.78l1,1.8a7.07,7.07,0,0,1-3.92,1.24C351.42,181.7,349,179.52,349,175.84Zm7.38-1.14c0-1.52-.68-2.48-2.12-2.48a2.53,2.53,0,0,0-2.44,2.48Z"/><path class="cls-3" d="M361.3,170.22h2.4l.2,2H364a3.88,3.88,0,0,1,3.18-2.26,3.17,3.17,0,0,1,1.32.24l-.52,2.54a3.53,3.53,0,0,0-1.16-.18c-.88,0-1.94.58-2.58,2.2v6.68H361.3Z"/><path class="cls-3" d="M368.8,180.12l1.34-1.84a4.86,4.86,0,0,0,3,1.22c1.12,0,1.62-.48,1.62-1.18s-1.16-1.22-2.34-1.68c-1.42-.54-3.06-1.4-3.06-3.26,0-2,1.64-3.44,4.16-3.44a6.27,6.27,0,0,1,3.82,1.38L376,173.1a4.31,4.31,0,0,0-2.42-1c-1,0-1.48.44-1.48,1.08,0,.82,1.1,1.12,2.28,1.56,1.48.56,3.12,1.3,3.12,3.38s-1.54,3.54-4.46,3.54A7.06,7.06,0,0,1,368.8,180.12Z"/><path class="cls-3" d="M379.06,175.84c0-3.74,2.58-5.9,5.38-5.9s5.38,2.16,5.38,5.9-2.58,5.86-5.38,5.86S379.06,179.54,379.06,175.84Zm7.76,0c0-2.12-.86-3.5-2.38-3.5s-2.38,1.38-2.38,3.5.86,3.46,2.38,3.46S386.82,177.94,386.82,175.84Z"/><path class="cls-3" d="M392.28,170.22h2.4l.2,1.48H395a5.16,5.16,0,0,1,3.64-1.76c2.42,0,3.46,1.68,3.46,4.5v7h-2.94V174.8c0-1.72-.48-2.34-1.58-2.34a3.22,3.22,0,0,0-2.34,1.26v7.7h-2.92Z"/><path class="cls-3" d="M404.54,178.38c0-2.4,1.94-3.66,6.44-4.14,0-1.1-.52-1.94-1.9-1.94a6.33,6.33,0,0,0-3.08,1.06l-1.06-1.94a9,9,0,0,1,4.68-1.48c2.84,0,4.3,1.7,4.3,4.94v6.54h-2.4l-.22-1.2h-.06a5.27,5.27,0,0,1-3.38,1.48A3.18,3.18,0,0,1,404.54,178.38Zm6.44-.08V176c-2.72.36-3.64,1.1-3.64,2.1s.62,1.26,1.48,1.26A3,3,0,0,0,411,178.3Z"/><path class="cls-12" d="M569.68,543.35H402.56a31.4,31.4,0,0,0-31.41,31.41v39.58a31.42,31.42,0,0,0,31.41,31.42H569.68a31.42,31.42,0,0,0,31.41-31.42V574.76A31.41,31.41,0,0,0,569.68,543.35Z"/><polygon class="cls-3" points="577.37 599.25 467 599.25 467 593.29 577.37 593.29 577.37 599.25 577.37 599.25"/><path class="cls-3" d="M468.64,568.44H471l.2,1.16h.08a5.32,5.32,0,0,1,3.3-1.44c2.77,0,4.41,2.26,4.41,5.7,0,3.84-2.3,6.06-4.77,6.06a4.18,4.18,0,0,1-2.78-1.22l.08,1.84v3.4h-2.92ZM476,573.9c0-2.14-.68-3.32-2.22-3.32a3.16,3.16,0,0,0-2.23,1.16v4.92a3.13,3.13,0,0,0,2,.84C475,577.5,476,576.34,476,573.9Z"/><path class="cls-3" d="M480.82,574.06c0-3.64,2.54-5.9,5.22-5.9,3.08,0,4.69,2.26,4.69,5.36a5.46,5.46,0,0,1-.14,1.34h-6.91a3,3,0,0,0,3.11,2.8,4.64,4.64,0,0,0,2.52-.78l1,1.8a7.07,7.07,0,0,1-3.93,1.24C483.26,579.92,480.82,577.74,480.82,574.06Zm7.39-1.14c0-1.52-.68-2.48-2.13-2.48a2.53,2.53,0,0,0-2.44,2.48Z"/><path class="cls-3" d="M493.14,568.44h2.4l.2,2h.08a3.88,3.88,0,0,1,3.18-2.26,3.22,3.22,0,0,1,1.33.24l-.52,2.54a3.59,3.59,0,0,0-1.17-.18c-.88,0-1.94.58-2.58,2.2v6.68h-2.92Z"/><path class="cls-3" d="M500.64,578.34,502,576.5a4.86,4.86,0,0,0,3,1.22c1.12,0,1.62-.48,1.62-1.18s-1.16-1.22-2.34-1.68c-1.42-.54-3.06-1.4-3.06-3.26,0-2,1.64-3.44,4.16-3.44a6.24,6.24,0,0,1,3.82,1.38l-1.32,1.78a4.31,4.31,0,0,0-2.42-1c-1,0-1.48.44-1.48,1.08,0,.82,1.1,1.12,2.28,1.56,1.48.56,3.13,1.3,3.13,3.38s-1.55,3.54-4.47,3.54A7.06,7.06,0,0,1,500.64,578.34Z"/><path class="cls-3" d="M510.9,574.06c0-3.74,2.58-5.9,5.39-5.9s5.38,2.16,5.38,5.9-2.59,5.86-5.38,5.86S510.9,577.76,510.9,574.06Zm7.77,0c0-2.12-.87-3.5-2.38-3.5s-2.39,1.38-2.39,3.5.86,3.46,2.39,3.46S518.67,576.16,518.67,574.06Z"/><path class="cls-3" d="M524.12,568.44h2.4l.2,1.48h.08a5.16,5.16,0,0,1,3.64-1.76c2.43,0,3.47,1.68,3.47,4.5v7H531V573c0-1.72-.48-2.34-1.58-2.34a3.22,3.22,0,0,0-2.34,1.26v7.7h-2.92Z"/><path class="cls-3" d="M536.38,576.6c0-2.4,1.94-3.66,6.44-4.14,0-1.1-.52-1.94-1.9-1.94a6.33,6.33,0,0,0-3.08,1.06l-1.06-1.94a9,9,0,0,1,4.68-1.48c2.84,0,4.3,1.7,4.3,4.94v6.54h-2.4l-.22-1.2h-.06a5.27,5.27,0,0,1-3.38,1.48A3.18,3.18,0,0,1,536.38,576.6Zm6.44-.08v-2.26c-2.72.36-3.64,1.1-3.64,2.1s.62,1.26,1.48,1.26A3,3,0,0,0,542.82,576.52Z"/><polygon class="cls-3" points="577.37 612.75 467 612.75 467 606.79 577.37 606.79 577.37 612.75 577.37 612.75"/><polygon class="cls-3" points="528.88 626.25 467 626.25 467 620.29 528.88 620.29 528.88 626.25 528.88 626.25"/><path class="cls-10" d="M607.23,553.19a12.57,12.57,0,1,1-12.57-12.57,12.57,12.57,0,0,1,12.57,12.57Z"/><path class="cls-3" d="M598.91,556.21V559h-7.33v-2.74h2.3v-5.55h-2.3v-2.07a8.74,8.74,0,0,0,4.16-1.92h1v9.54Z"/><path class="cls-1" d="M207.12,732.74c-49,0-153.35-3.15-153.35-7.51S158.15,717,207.12,717s115.75,3.53,115.75,7.9-66.79,7.89-115.75,7.89"/><path class="cls-13" d="M208.63,520s14.32,91.75,15.09,99-5.64,23.86,3.19,74.33l11.76.59c.6-21.8,1.63-60,1.78-68.91.19-12.58,2.55-79.25,2.55-79.25S215.84,502.58,208.63,520Z"/><polygon class="cls-14" points="240.54 716 228.92 714.12 226.91 693.38 238.67 693.97 240.54 716 240.54 716"/><path class="cls-13" d="M178.28,544.26s4.28,29.36,5.76,67.39c1.3,33.35-5.76,33.51.27,80.41h11.46c.51-30.83,1.25-30.74,13.78-155.8,0,0-24.26-9.53-31.27,8Z"/><polygon class="cls-14" points="184.31 713.28 195.77 714.65 195.77 692.06 184.31 692.06 184.31 713.28 184.31 713.28"/><path class="cls-15" d="M276.68,495.51s5.3-4,5.77-4.21,10.7-9.63,11.36-10a68.41,68.41,0,0,1,8.48-3c.67,0,9.06,2.44,9.06,2.44a1.12,1.12,0,0,1-.62,1.79c-1.49.54-.55,1-1,1.42s-7.15.82-7.15.82l-4,1.6-.42,1.36,9.14-.83a.84.84,0,0,1,.14,1.33c-.72.71-9.6,2.58-9.6,2.58s-4.9,3.82-6.06,4.63a29.36,29.36,0,0,1-4.85,2L282,503.18l-5.32-7.67Z"/><path class="cls-3" d="M227.82,709.51c-.81.22-3,14.54-1.68,15.28s37.85,1.31,40-.77c1.11-1.1-.08-5.92-.84-6.13a84.9,84.9,0,0,1-24.36-11.36s-3.62,1.3-3.19,3.23l.43.81s-2.28,2.12-4.48,1.92-3.79-3.54-5.85-3Z"/><path class="cls-3" d="M182.23,713.78A5.88,5.88,0,0,1,183.9,711c.62-.6.88-1,1.58-2.88.62-1.71,3-2.23,4.49-2.29h.11c1.48.06,3.87.58,4.49,2.29.7,1.89,1,2.28,1.58,2.88a5.88,5.88,0,0,1,1.67,2.75c.14,1,1.06,12.16-1.1,12.34-1,.08-3.88-.09-6.64,0H190c-2.76-.05-5.6.12-6.64,0-2.16-.18-1.24-11.37-1.1-12.34Z"/><path class="cls-15" d="M211.13,374.05c7.65-1.93,18.22-.39,20.4,12.44,1.53,9,3.36,24.57-2.31,26.56-2.51.88-12.13,0-12.13,0l2,10.68H201.5l2.89-15.3s-18.48-28,6.74-34.38Z"/><path class="cls-16" d="M225.93,375.74l-11.57,17c-2.05-3.84-5.15-2.83-6.78.28-2,3.82,2.52,7.09,2.1,8.37s-4.29,6.9-5.29,7-20.14-8.56-11.34-30.46c4.06-10.1,21.48-13.64,32.88-2.23Z"/><path class="cls-16" d="M213.45,358.74c1.42,6.07-1.49,10.74-7,12s-9-2.09-10.38-8.16.44-11.31,6-12.6,10,2.66,11.44,8.73Z"/><path d="M234,388.26h0c.15,0,.43.37.56,1.57a16.89,16.89,0,0,1-.12,3.95c-.43,3.22-1.37,5.2-1.85,5.2h0c-.15,0-.43-.37-.56-1.56a16.86,16.86,0,0,1,.12-3.95c.43-3.23,1.37-5.21,1.85-5.21Zm-1.39,11.18c1,0,1.93-2.82,2.3-5.6s.22-5.89-.83-6H234c-1,0-1.92,2.82-2.3,5.6a17.81,17.81,0,0,0-.12,4.06c.13,1.23.45,1.89.95,2Z"/><path d="M229.72,388.29h0c.14,0,.43.37.56,1.57a17,17,0,0,1-.13,3.95c-.43,3.23-1.36,5.21-1.85,5.21h0c-.14,0-.43-.38-.56-1.57a18,18,0,0,1,.12-3.95c.44-3.23,1.38-5.21,1.86-5.21Zm-1.4,11.18c1,0,1.93-2.82,2.3-5.6s.23-5.88-.83-6h-.07c-1,0-1.93,2.82-2.3,5.6a17.25,17.25,0,0,0-.12,4.06c.13,1.24.45,1.9.94,2Z"/><path d="M230.74,392.43a1.09,1.09,0,0,1,.91-.54,1,1,0,0,1,.59.2l.26-.37a1.47,1.47,0,0,0-.85-.28,1.54,1.54,0,0,0-1.29.75l.38.24Z"/><polygon points="227.73 393.04 227.75 392.59 211.54 392.04 211.53 392.49 227.73 393.04 227.73 393.04"/><path class="cls-11" d="M232.05,421.23l-63.83-13.61s-11,34.45,16.32,36.06c16.38,1,34.94-3.66,43.38-10.42,5.65-4.54,4.13-12,4.13-12"/><path class="cls-11" d="M182.75,429.44c-3.87,26.64-10.48,129.4-10.48,129.4,12.73,13.68,74.75.55,74.75.55s-4.59-89.64-13.94-129.14c-2.58-10.88-45.29-15.58-50.33-.81"/><path class="cls-11" d="M179.57,435.05s-33.23,51.26-25.5,67.37S192,525,192,525l-3.12-81.23-9.34-8.7"/><path class="cls-6" d="M191.08,444.53c-.73,0-1.45,0-2.14,0a35.52,35.52,0,0,1-13.35-3c4.31,4.74,9,6.83,13.52,7.32a20.64,20.64,0,0,0,2.22.12c11.89,0,22.35-10,22.35-10A50.61,50.61,0,0,1,191.08,444.53Z"/><path class="cls-11" d="M230.29,424s19.25,5.76,29.38,73.94c2.55,0,18.83-7.17,18.83-7.17l7.35,12.09s-47,38.85-53.23,20.71c-6.28-18.33-6.22-37.48-7.31-50.81-1-12.54,5-48.76,5-48.76Z"/><rect class="cls-8" x="390" y="565" width="63" height="61" rx="12"/><path class="cls-13" d="M441.37,585l.11-.44a20.46,20.46,0,0,0-6.13-.54,13,13,0,0,0-2.39-3,23.2,23.2,0,0,0-10-7.74,26.17,26.17,0,0,0-6.35-1.81l-.05.44a27,27,0,0,1,6.23,1.79,23.54,23.54,0,0,1,8.31,5.72c-6.64-5.14-18-8.74-23.25-6.53-.67,3.21,3.8,6.93,3.68,7.36-1.65-.22-3.3-2.7-4.35-4.15-4,5.23-2.95,8.51-.66,10.52-1.85,2-2.78,5-2.78,8.58v.68c-.87,0-.84,2.2,0,2.2h.18a14.81,14.81,0,0,1,.28,2.43c0,2-.4,3.31-.42,4.41-.05,4.48,4.52,14.72,9.55,14.72,4,0,9.87-3.62,13.19-7.51a6.34,6.34,0,0,0,3.7.48c5.2-4.33,8.68-13.5,8.68-19.43,0-3.23-.39-7.32-2.89-8.7A19.25,19.25,0,0,1,441.37,585Z"/><polygon class="cls-13" points="422 604.83 442 624.83 409.6 626 422 604.83"/><rect class="cls-6" x="275" y="170.81" width="51" height="49.38" rx="9.71"/><path class="cls-7" d="M286.62,189l-.08-.36a16.15,16.15,0,0,1,5-.43,10.89,10.89,0,0,1,1.94-2.46,18.75,18.75,0,0,1,8.09-6.26,21.55,21.55,0,0,1,5.14-1.47l0,.36a22.06,22.06,0,0,0-5,1.45,19,19,0,0,0-6.72,4.63c5.38-4.17,14.58-7.08,18.82-5.29.54,2.6-3.08,5.61-3,6,1.34-.18,2.68-2.19,3.52-3.36,3.28,4.23,2.4,6.89.54,8.51a10.1,10.1,0,0,1,2.25,6.95v.55c.7,0,.68,1.79,0,1.79h-.14a12.78,12.78,0,0,0-.24,2c0,1.62.34,2.68.35,3.57,0,3.63-3.66,11.91-7.73,11.92-3.22,0-8-2.93-10.68-6.08a5.18,5.18,0,0,1-3,.39c-4.2-3.51-7-10.93-7-15.74,0-2.61.32-5.91,2.34-7A16.11,16.11,0,0,0,286.62,189Z"/><polygon class="cls-7" points="302.31 205.05 286.12 221.24 312.35 222.19 302.31 205.05"/></svg>