<svg id="圖層_1" data-name="圖層 1" xmlns="http://www.w3.org/2000/svg" viewBox="0 0 640 800"><defs><style>.cls-1{fill:#dedede;}.cls-2{fill:#fff;}.cls-3{fill:#283558;}.cls-4{fill:#e5bab5;}.cls-5{fill:#c9918d;}.cls-6{fill:#96d0ea;}.cls-7{fill:#52a1d8;}.cls-8{fill:#d4cfcf;}.cls-9{fill:#e3847c;}.cls-10{fill:#5b73b7;}.cls-11{fill:#d77a76;}.cls-12{fill:#c7706f;}.cls-13{fill:#7798e0;}.cls-14{fill:#e4837a;}.cls-15{fill:#ca706f;}.cls-16{fill:#293657;}.cls-17{fill:#e2847e;}.cls-18{fill:#ffedc5;}.cls-19{fill:#293856;}.cls-20{fill:#ef5353;}.cls-21{fill:#f48d7e;}</style></defs><ellipse class="cls-1" cx="320" cy="335.39" rx="292" ry="278"/><path class="cls-2" d="M326.44,450.54v-2.36a107.2,107.2,0,1,0-88.92-47.28l-2,1.32a109.59,109.59,0,1,1,90.87,48.32Z"/><polygon class="cls-2" points="552.01 450.54 44.98 450.54 44.98 448.18 552.01 448.18 552.01 450.54 552.01 450.54"/><path class="cls-2" d="M433,251.15l-1.69-1.64a51.16,51.16,0,1,0-83.63-15.75l-2.17.93A53.54,53.54,0,1,1,433,251.15Z"/><polygon class="cls-2" points="440.13 250.35 427.68 255.03 430.43 242.01 440.13 250.35 440.13 250.35"/><polygon class="cls-2" points="240.3 394.93 240.88 408.22 229.36 401.57 240.3 394.93 240.3 394.93"/><polygon class="cls-2" points="548.64 442.96 560.31 449.36 548.64 455.76 548.64 442.96 548.64 442.96"/><path class="cls-3" d="M579.36,449.44a4.85,4.85,0,1,1-4.85-4.84,4.85,4.85,0,0,1,4.85,4.84Z"/><path class="cls-3" d="M574.51,441.84a7.61,7.61,0,1,0,7.61,7.6,7.61,7.61,0,0,0-7.61-7.6Zm0,18.11A10.51,10.51,0,1,1,585,449.44,10.52,10.52,0,0,1,574.51,460Z"/><polygon class="cls-3" points="325.79 341.63 310.88 326.73 153.67 326.73 153.67 325.04 311.58 325.04 326.98 340.44 325.79 341.63 325.79 341.63"/><polygon class="cls-3" points="253.91 258.47 239 243.57 81.79 243.57 81.79 241.89 239.7 241.89 255.1 257.28 253.91 258.47 253.91 258.47"/><polygon class="cls-3" points="400.54 160.84 399.35 159.65 414.75 144.25 572.66 144.25 572.66 145.94 415.44 145.94 400.54 160.84 400.54 160.84"/><polygon class="cls-3" points="265.44 491.69 71.35 491.69 71.35 449.44 73.04 449.44 73.04 490.01 265.44 490.01 265.44 491.69 265.44 491.69"/><polygon class="cls-3" points="329.41 475.87 158.22 475.87 158.22 449.44 159.9 449.44 159.9 474.19 329.41 474.19 329.41 475.87 329.41 475.87"/><path class="cls-3" d="M259.65,259.22a4,4,0,1,1-4-4,4,4,0,0,1,4,4Z"/><path class="cls-3" d="M330.35,341a4,4,0,1,1-4-4,4,4,0,0,1,4,4Z"/><path class="cls-3" d="M163,449.44a4,4,0,1,1-4-4,4,4,0,0,1,4,4Z"/><path class="cls-3" d="M76.17,449.44a4,4,0,1,1-4-4,4,4,0,0,1,4,4Z"/><path class="cls-3" d="M403.07,161.59a4,4,0,1,1-4-4,4,4,0,0,1,4,4Z"/><path class="cls-2" d="M453,140.09a173.75,173.75,0,0,0,20.31-7.21,40.72,40.72,0,0,0,8.05-4.31,21,21,0,0,0,3.41-3,8.91,8.91,0,0,0,2.3-4.11,4.25,4.25,0,0,0-1.1-3.8,3.39,3.39,0,0,0-4-.42,16.87,16.87,0,0,0-3.75,3.2l-4,3.9c-1.25,1.21-2.53,2.39-3.72,3.65a13,13,0,0,0-2.76,3.94,7.14,7.14,0,0,0-.43,4.44,5.37,5.37,0,0,0,2.52,3.3c2.9,1.72,6.33.83,9.2-.46a34.07,34.07,0,0,0,8.11-5.2c.6-.52,1.18-1.06,1.75-1.63a.63.63,0,0,0-.28-1.05,5.93,5.93,0,0,0-6.71,4,3.74,3.74,0,0,0-.09,2.17,2.12,2.12,0,0,0,1.8,1.41,9.76,9.76,0,0,0,4.7-.45,10,10,0,0,0,4.38-2.94l-1.05-.61a2.48,2.48,0,0,0,1.81,2.71c1.36.45,2.8-.24,4-.86a33.46,33.46,0,0,0,6.92-4.75c.5-.44,0-1.18-.61-1a5.13,5.13,0,0,0-3,2.08,4.16,4.16,0,0,0-.72,3.75c.54,1.29,2,1.47,3.26,1.37a12.9,12.9,0,0,0,8-3.65.63.63,0,0,0-.76-1,4,4,0,0,0-2.18,3.66.64.64,0,0,0,.46.61,9.29,9.29,0,0,0,10-2.95l-1.06-.61a3.45,3.45,0,0,0,0,2.37.68.68,0,0,0,.61.46,52.13,52.13,0,0,0,16.52-1.07c.79-.18.46-1.39-.33-1.21a51,51,0,0,1-16.19,1l.61.46a2.29,2.29,0,0,1,0-1.69c.22-.58-.67-1.1-1-.62a8.07,8.07,0,0,1-8.74,2.62l.47.61a2.77,2.77,0,0,1,1.55-2.57l-.76-1a11.83,11.83,0,0,1-5.92,3.12c-.86.17-2.16.45-3-.05s-.32-1.95.06-2.61a3.91,3.91,0,0,1,2.54-1.91l-.61-1.05a32,32,0,0,1-5.62,4,9.74,9.74,0,0,1-3.1,1.36c-.71.11-2.06-.25-1.9-1.23.09-.55-.6-1.14-1.06-.61a9,9,0,0,1-6.75,3.13,3.31,3.31,0,0,1-1.79-.28c-.42-.31-.34-1-.25-1.43a4.63,4.63,0,0,1,5.27-3.45c-.1-.35-.19-.71-.28-1.06a32.4,32.4,0,0,1-7.08,5.35,25.2,25.2,0,0,1-4.18,1.94,8.77,8.77,0,0,1-4.33.51,5.14,5.14,0,0,1-3.18-1.77,4.71,4.71,0,0,1-.74-3.77c.59-3,3.06-5.06,5.12-7.07,2.44-2.36,4.84-4.77,7.32-7.09.89-.83,2.19-1.93,3.5-1.46a2.63,2.63,0,0,1,1.47,2.67,6.64,6.64,0,0,1-1.88,3.72,19.13,19.13,0,0,1-3.06,2.84,37.27,37.27,0,0,1-7.39,4.09A163.42,163.42,0,0,1,455,138.19l-2.34.69a.63.63,0,0,0,.34,1.21Z"/><path class="cls-3" d="M140.24,208.58a1.44,1.44,0,0,0,.51.5,2,2,0,0,0,.71.27,4.28,4.28,0,0,0,.81.08,5.29,5.29,0,0,0,.67-.05,2.29,2.29,0,0,0,.66-.18,1.28,1.28,0,0,0,.49-.37,1,1,0,0,0,.19-.64.9.9,0,0,0-.4-.8,3.5,3.5,0,0,0-1-.45c-.4-.11-.84-.21-1.31-.3a6.46,6.46,0,0,1-1.31-.39,2.7,2.7,0,0,1-1-.7,1.86,1.86,0,0,1-.4-1.25,2.06,2.06,0,0,1,.28-1.08,2.21,2.21,0,0,1,.73-.73,3.15,3.15,0,0,1,1-.42,4.69,4.69,0,0,1,1.11-.14,6.61,6.61,0,0,1,1.3.12,2.89,2.89,0,0,1,1.05.42,2.23,2.23,0,0,1,.74.81,3,3,0,0,1,.32,1.26H144a1.36,1.36,0,0,0-.21-.67,1.42,1.42,0,0,0-.45-.43,2.27,2.27,0,0,0-.6-.23,3.05,3.05,0,0,0-.67-.07,3.31,3.31,0,0,0-.62.05,2,2,0,0,0-.57.17,1.12,1.12,0,0,0-.42.32.79.79,0,0,0-.16.52.76.76,0,0,0,.25.59,2.16,2.16,0,0,0,.63.38,5,5,0,0,0,.87.26l1,.22a8.17,8.17,0,0,1,1,.27,3.21,3.21,0,0,1,.87.43,2,2,0,0,1,.61.67,1.89,1.89,0,0,1,.24,1,2.31,2.31,0,0,1-.32,1.26,2.41,2.41,0,0,1-.82.8,3.25,3.25,0,0,1-1.14.43,6.72,6.72,0,0,1-1.26.12,6.28,6.28,0,0,1-1.32-.14,3.28,3.28,0,0,1-1.11-.48,2.4,2.4,0,0,1-.77-.87,3,3,0,0,1-.33-1.31H140a1.48,1.48,0,0,0,.21.76Z"/><path class="cls-3" d="M156.68,203.57a2.05,2.05,0,0,0-1.38-.43,2.58,2.58,0,0,0-1.24.27,2.14,2.14,0,0,0-.79.73,3.07,3.07,0,0,0-.43,1,5.49,5.49,0,0,0-.13,1.22,4.64,4.64,0,0,0,.14,1.12,3.09,3.09,0,0,0,.42,1,2.18,2.18,0,0,0,1.87.94,2.23,2.23,0,0,0,1.58-.53,2.33,2.33,0,0,0,.7-1.5h1.4a3.79,3.79,0,0,1-1.15,2.38,3.58,3.58,0,0,1-2.51.84,4.25,4.25,0,0,1-1.69-.31,3.34,3.34,0,0,1-1.22-.86,3.84,3.84,0,0,1-.74-1.35,5.79,5.79,0,0,1-.25-1.71,6.17,6.17,0,0,1,.24-1.75,4,4,0,0,1,.74-1.41,3.24,3.24,0,0,1,1.23-.95,4,4,0,0,1,1.72-.35,5.21,5.21,0,0,1,1.33.17,3.33,3.33,0,0,1,1.09.52,2.82,2.82,0,0,1,.78.9,3.44,3.44,0,0,1,.39,1.28h-1.42a2.08,2.08,0,0,0-.68-1.23Z"/><path class="cls-3" d="M166.06,202.12v1.76h0a3.67,3.67,0,0,1,1.22-1.5,3.08,3.08,0,0,1,1.83-.45v1.45a3.91,3.91,0,0,0-1.4.23,2.33,2.33,0,0,0-.93.65,2.62,2.62,0,0,0-.51,1.06,5.53,5.53,0,0,0-.17,1.42v3.7h-1.36v-8.32Z"/><path class="cls-3" d="M180.25,210.44v-1.32h0a2.78,2.78,0,0,1-1.11,1.14,3.33,3.33,0,0,1-1.59.36,3.64,3.64,0,0,1-1.37-.22,2.1,2.1,0,0,1-.88-.62,2.19,2.19,0,0,1-.48-.95,5.22,5.22,0,0,1-.13-1.23v-5.48H176v5.64a1.65,1.65,0,0,0,.45,1.22,1.69,1.69,0,0,0,1.24.45,2.8,2.8,0,0,0,1.09-.19,2,2,0,0,0,.76-.55,2.25,2.25,0,0,0,.46-.83,3.44,3.44,0,0,0,.15-1v-4.7h1.37v8.32Z"/><path class="cls-3" d="M189.36,202.12v1.23h0a3,3,0,0,1,2.69-1.42,3.07,3.07,0,0,1,1.4.32,1.8,1.8,0,0,1,.88,1.1,2.94,2.94,0,0,1,1.11-1,3.14,3.14,0,0,1,1.5-.37,4.45,4.45,0,0,1,1.14.14,2.38,2.38,0,0,1,.86.42,2,2,0,0,1,.57.75,2.86,2.86,0,0,1,.2,1.11v6.09h-1.37V205a4.23,4.23,0,0,0-.06-.73,1.69,1.69,0,0,0-.24-.58,1.25,1.25,0,0,0-.5-.4,2,2,0,0,0-.81-.14,2.15,2.15,0,0,0-1.59.58,2.06,2.06,0,0,0-.58,1.54v5.18h-1.37V205a3.38,3.38,0,0,0-.07-.74,1.57,1.57,0,0,0-.25-.59,1.26,1.26,0,0,0-.47-.38,1.74,1.74,0,0,0-.77-.14,2,2,0,0,0-1,.24,2.32,2.32,0,0,0-.69.58,2.22,2.22,0,0,0-.39.7,2,2,0,0,0-.12.6v5.18h-1.37v-8.32Z"/><polygon class="cls-4" points="279.7 230.18 255.81 230.18 255.81 200.55 285.44 200.55 285.44 225.71 279.7 230.18"/><polygon class="cls-5" points="280.56 222.65 279.24 229.9 285.18 225.29 280.56 222.65"/><polygon class="cls-4" points="296.55 266.46 272.66 266.46 272.66 236.83 302.29 236.83 302.29 261.99 296.55 266.46"/><polygon class="cls-5" points="297.4 258.93 296.09 266.18 302.02 261.57 297.4 258.93"/><polygon class="cls-6" points="124.38 307.79 100.48 307.79 100.48 278.15 130.12 278.15 130.12 303.32 124.38 307.79"/><polygon class="cls-7" points="125.23 300.26 123.92 307.51 129.85 302.9 125.23 300.26"/><polygon class="cls-6" points="165.8 338.84 141.9 338.84 141.9 309.2 171.53 309.2 171.53 334.37 165.8 338.84"/><polygon class="cls-7" points="166.65 331.31 165.33 338.56 171.27 333.94 166.65 331.31"/><polygon class="cls-6" points="307.8 491.84 283.9 491.84 283.9 462.2 313.54 462.2 313.54 487.37 307.8 491.84"/><polygon class="cls-7" points="308.65 484.31 307.33 491.56 313.27 486.94 308.65 484.31"/><polygon class="cls-6" points="282.8 536.84 258.9 536.84 258.9 507.2 288.54 507.2 288.54 532.37 282.8 536.84"/><polygon class="cls-7" points="283.65 529.31 282.33 536.56 288.27 531.94 283.65 529.31"/><polygon class="cls-6" points="362.8 523.84 338.9 523.84 338.9 494.2 368.54 494.2 368.54 519.37 362.8 523.84"/><polygon class="cls-7" points="363.65 516.31 362.33 523.56 368.27 518.94 363.65 516.31"/><polygon class="cls-6" points="405.56 220.28 381.67 220.28 381.67 190.64 411.3 190.64 411.3 215.8 405.56 220.28"/><polygon class="cls-7" points="406.42 212.75 405.1 220 411.04 215.38 406.42 212.75"/><polygon class="cls-6" points="452.44 232.64 428.55 232.64 428.55 203 458.18 203 458.18 228.16 452.44 232.64"/><polygon class="cls-7" points="453.29 225.1 451.98 232.36 457.91 227.74 453.29 225.1"/><path class="cls-8" d="M471.52,691.88c-58.93,0-132.52-3.85-132.52-8.6s73.59-8.61,132.52-8.61,80.89,3.86,80.89,8.61-22,8.6-80.89,8.6"/><path class="cls-2" d="M481.88,467.27s-19.17,98.52-20,106.18,1.62,45.17-7.23,80l-16.88.56c-.64-23-1.73-66.09-1.88-75.45-.21-13.28-.64-88.57-.64-88.57s39-41.11,46.61-22.68Z"/><polygon class="cls-9" points="453.12 667.02 445.42 674.03 440.19 664.23 440.19 653.97 453.12 653.47 453.12 667.02 453.12 667.02"/><polygon class="cls-9" points="488.42 670.96 500.59 667.64 500.31 652.05 487.42 652.06 488.42 670.96 488.42 670.96"/><path class="cls-2" d="M509.78,489.15s-4.31,46.14-5.9,88.73a505.15,505.15,0,0,1-.28,75.2l-18,0c-.15-9.32-2.16-43.06-6.11-73.43-5.81-44.6-14.23-93.67-14.23-93.67s37.14-15.37,44.54,3.13Z"/><path class="cls-10" d="M481.88,361c8.29.82,22.59,7.82,24.94,10.16,4.08,28.12,4.84,135.92,4.84,135.92l-78.91.58c-.55-33.61,2-49.6,2.63-66.15.56-15.37-1.22-31.16,7.89-63.5,3.79-6.32,19.12-14.34,23.45-15.59.34-.1,14.93-1.44,15.16-1.42Z"/><path class="cls-10" d="M505.69,370.24c20.2,11.86,30.16,52.14,26.35,74.36-3.66,21.38-35.81,49.51-35.81,49.51s-.38-108,9.46-123.87Z"/><path class="cls-2" d="M454.27,665.42c.94.26,3.47,16.82,2,17.68s-43.79,1.54-46.25-.87c-1.28-1.26.09-6.84,1-7.09A98.06,98.06,0,0,0,439.13,662s4.18,1.49,3.69,3.73l-.49.94s2.63,2.46,5.18,2.22,4.38-4.1,6.76-3.46Z"/><path class="cls-2" d="M500.46,661.94a10.73,10.73,0,0,0-6.42-1.81,11.42,11.42,0,0,0-5.9,1.78l-4.46,17.51.1,3.41s0,.1.06.29a25.52,25.52,0,0,0,10.72,1.7c4.75-.13,8.9-1.19,11.28-2.68l-.09-3.33-5.29-16.87Z"/><path class="cls-11" d="M386.6,405.71l-11.45-8.78a3.72,3.72,0,0,1,4-1.73c2.74.58,6.54,3.83,6.54,3.83a39,39,0,0,1,6.07.29c1.92.39,5.14,2.56,5.68,5.13s-4.06,5.17-10.85,1.26Z"/><path class="cls-12" d="M383.24,406.17c-2.78-.46-5.74-.74-5.74-.74l-14.42-5.94s.39-2.35,3.21-1.94,10.09,3,10.09,3l6.05-.27s2.4,6.12.81,5.86Z"/><path class="cls-11" d="M378.07,407.06c-2.78-.45-5.74-.74-5.74-.74l-14.42-5.58s.39-2.35,3.21-1.94,10.09,2.67,10.09,2.67l6-.26s2.41,6.11.82,5.85Z"/><path class="cls-9" d="M403.53,433.57c7.16-13.59-10.19-20.37-12.5-21.24-3-1.16-9.14-1.95-11.55-2.92s-9.75-1.67-9.75-1.67l-9.42-3.8a2.56,2.56,0,0,1,3.21-1.93,76.18,76.18,0,0,1,8,1.95l3.19-1.34s2.65-2.07,4.61-2.18,11.68-.31,13.13.22a15.46,15.46,0,0,1,7,5.36c2,2.64,23,10.67,17.4,24.49l-13.28,3.06Z"/><path class="cls-10" d="M393.76,419,409,410.68l19.89,16.17s1.78-32,14.35-48.87c17.56,1.17,4.65,65.9,4.65,65.9s-11,29.8-20.7,26.18c-7.81-2.93-33.46-51.07-33.46-51.07Z"/><path class="cls-9" d="M476.26,485.84c-.61.41-18.65,6.84-19.54,7.39s-8.78,7.55-9.17,8.39-2.87,12.62-2.87,12.62a1.54,1.54,0,0,0,2.58.4c1.61-1.47,1.52-.06,2.39-.33s5.61-8.19,5.61-8.19l4.52-3.8,1.92.37-6.92,10.61s.2,1.45,1.54,1,9.34-10,9.34-10,7.83-3.5,9.56-4.39,5.59-4.63,5.59-4.63-3.94-9.83-4.55-9.43Z"/><polygon class="cls-13" points="434.05 468.32 433.19 468.32 433.23 449.65 434.09 449.65 434.05 468.32 434.05 468.32"/><polygon class="cls-13" points="481.32 478.75 480.65 478.2 506.36 446.92 505.08 420.84 505.94 420.8 507.24 447.21 507.13 447.34 481.32 478.75 481.32 478.75"/><path class="cls-3" d="M495.32,324.84c0,10.92-8.67,20.91-19.68,20.91s-19.95-10-19.95-20.91a19.87,19.87,0,0,1,19.95-19.78,19.36,19.36,0,0,1,14.43,6.41c4.48.33,5.25,8.22,5.25,13.37Z"/><path class="cls-14" d="M484,363.39c0,2.06-19.32,12.26-18.91,8l2.83-24.59,13.27-7.26s2.29,18.18,2.81,23.87Z"/><path class="cls-15" d="M479.74,343.28l-11.89,3.05-1.29,12.08c9.54-1.12,13.18-11.33,13.18-15.13Z"/><path class="cls-16" d="M457.5,319.17c-3.31-1.79-5.48-12.28-3.95-14.51.93-1.36,5.25,2.56,6.42,2.44-.12-.62-3.83-4-4.32-5.42,4.16-5.6,30.53-1.9,34.69,9.79,1.71,4.8-25.42,11.72-32.84,7.7Z"/><path class="cls-2" d="M451.59,329.24h0c-.17,0-.51.44-.67,1.85a21,21,0,0,0,.15,4.66c.51,3.81,1.61,6.15,2.19,6.15h0c.18,0,.52-.44.67-1.85a19.82,19.82,0,0,0-.15-4.66c-.5-3.81-1.61-6.15-2.18-6.15Zm1.65,13.19c-1.21,0-2.28-3.33-2.72-6.61s-.26-6.94,1-7.11h.09c1.2,0,2.27,3.32,2.71,6.61a20.85,20.85,0,0,1,.15,4.78c-.16,1.47-.54,2.25-1.12,2.32Z"/><path class="cls-3" d="M453.82,328.35s6.13-.61,7.32-.5a2.92,2.92,0,0,1,2.69,2.17c.11.23-8,1-9.18.6s-.83-2.27-.83-2.27Z"/><path class="cls-14" d="M477.27,333.26c-3.14-9.89-6.93-19.24-13.92-19.24-8.22,0-9.58,11.74-8.83,16.4,0,0,.21,8.1.21,8.61,0,1.39,0,3.06.21,4.8,0,0,1.33,11.69,4.16,11.89,3.87.27,13-2,17.88-5.74,3.69-2.86,4.38-5.24,4.38-7.82,0-.37-2.11-3.11-3.09-5.93-.36-1-.71-2.08-1-3Z"/><path class="cls-3" d="M455.87,328.2s6.14-.61,7.32-.5a3,3,0,0,1,2.7,2.16c.1.24-8,1-9.19.61s-.83-2.27-.83-2.27Z"/><polygon class="cls-14" points="454.52 330.43 451.63 342.38 455.92 344.26 454.52 330.43 454.52 330.43"/><path class="cls-2" d="M456.68,329.28h0c-.17,0-.51.44-.66,1.85a20.32,20.32,0,0,0,.14,4.66c.51,3.81,1.62,6.15,2.19,6.15h0c.17,0,.51-.43.66-1.84a20.4,20.4,0,0,0-.14-4.67c-.51-3.8-1.62-6.14-2.19-6.14Zm1.65,13.19c-1.2,0-2.28-3.33-2.71-6.61s-.27-6.94,1-7.11h.09c1.2,0,2.27,3.32,2.71,6.6a20.39,20.39,0,0,1,.15,4.79c-.16,1.46-.54,2.24-1.12,2.32Z"/><path class="cls-2" d="M455.48,334.16a1.3,1.3,0,0,0-1.08-.63,1.2,1.2,0,0,0-.7.23l-.31-.43a1.69,1.69,0,0,1,1-.33,1.85,1.85,0,0,1,1.53.88l-.45.28Z"/><polygon class="cls-2" points="459.02 334.88 459.01 334.35 478.13 333.7 478.15 334.24 459.02 334.88 459.02 334.88"/><path class="cls-14" d="M479.5,329.86c.68-.83,2.37-1.43,4.21.85s.62,10.88-4,10.88-2.11-9.47-.24-11.73Z"/><path class="cls-16" d="M490.17,312.48a18.34,18.34,0,0,0-6.06-8.43,26,26,0,0,0-8.38-4.26,38.14,38.14,0,0,0-10.67-1.69v-.54a38.55,38.55,0,0,1,10.81,1.72,26.43,26.43,0,0,1,8.56,4.35,18.81,18.81,0,0,1,6.24,8.67l-.5.18Z"/><path class="cls-16" d="M496.63,311.82a18.25,18.25,0,0,0-10.35.73c-2.74,1-3,.52-.19-.5a18.85,18.85,0,0,1,10.65-.75l-.11.52Z"/><path class="cls-1" d="M196.12,732.74c-49,0-153.35-3.15-153.35-7.51S147.15,717,196.12,717s115.75,3.53,115.75,7.9-66.79,7.89-115.75,7.89"/><path class="cls-3" d="M145.63,520s14.32,91.75,15.09,99-5.64,23.86,3.19,74.33l11.76.59c.6-21.8,1.63-60,1.78-68.91.19-12.58,2.55-79.25,2.55-79.25S152.84,502.58,145.63,520Z"/><polygon class="cls-17" points="177.54 716 165.92 714.12 163.91 693.38 175.67 693.97 177.54 716 177.54 716"/><path class="cls-3" d="M115.28,544.26s4.28,29.36,5.76,67.39c1.3,33.35-5.76,33.51.27,80.41h11.46c.51-30.83,1.25-30.74,13.78-155.8,0,0-24.26-9.53-31.27,8Z"/><polygon class="cls-17" points="121.31 713.28 132.77 714.65 132.77 692.06 121.31 692.06 121.31 713.28 121.31 713.28"/><path class="cls-18" d="M213.68,495.51s5.3-4,5.77-4.21,10.7-9.63,11.36-10a68.41,68.41,0,0,1,8.48-3c.67,0,9.06,2.44,9.06,2.44a1.12,1.12,0,0,1-.62,1.79c-1.49.54-.55,1-1,1.42s-7.15.82-7.15.82l-4,1.6-.42,1.36,9.14-.83a.84.84,0,0,1,.14,1.33c-.72.71-9.6,2.58-9.6,2.58s-4.9,3.82-6.06,4.63a29.36,29.36,0,0,1-4.85,2L219,503.18l-5.32-7.67Z"/><path class="cls-2" d="M164.82,709.51c-.81.22-3,14.54-1.68,15.28s37.85,1.31,40-.77c1.11-1.1-.08-5.92-.84-6.13a84.9,84.9,0,0,1-24.36-11.36s-3.62,1.3-3.19,3.23l.43.81s-2.28,2.12-4.48,1.92-3.79-3.54-5.85-3Z"/><path class="cls-2" d="M119.23,713.78A5.88,5.88,0,0,1,120.9,711c.62-.6.88-1,1.58-2.88.62-1.71,3-2.23,4.49-2.29h.11c1.48.06,3.87.58,4.49,2.29.7,1.89,1,2.28,1.58,2.88a5.88,5.88,0,0,1,1.67,2.75c.14,1,1.06,12.16-1.1,12.34-1,.08-3.88-.09-6.64,0H127c-2.76-.05-5.6.12-6.64,0-2.16-.18-1.24-11.37-1.1-12.34Z"/><path class="cls-18" d="M148.13,374.05c7.65-1.93,18.22-.39,20.4,12.44,1.53,9,3.36,24.57-2.31,26.56-2.51.88-12.13,0-12.13,0l2,10.68H138.5l2.89-15.3s-18.48-28,6.74-34.38Z"/><path class="cls-19" d="M162.93,375.74l-11.57,17c-2.05-3.84-5.15-2.83-6.78.28-2,3.82,2.52,7.09,2.1,8.37s-4.29,6.9-5.29,7-20.14-8.56-11.34-30.46c4.06-10.1,21.48-13.64,32.88-2.23Z"/><path class="cls-19" d="M150.45,358.74c1.42,6.07-1.49,10.74-7,12s-9-2.09-10.38-8.16.44-11.31,6-12.6,10,2.66,11.44,8.73Z"/><path d="M171,388.26h0c.15,0,.43.37.56,1.57a16.89,16.89,0,0,1-.12,3.95c-.43,3.22-1.37,5.2-1.85,5.2h0c-.15,0-.43-.37-.56-1.56a16.86,16.86,0,0,1,.12-3.95c.43-3.23,1.37-5.21,1.85-5.21Zm-1.39,11.18c1,0,1.93-2.82,2.3-5.6s.22-5.89-.83-6H171c-1,0-1.92,2.82-2.3,5.6a17.81,17.81,0,0,0-.12,4.06c.13,1.23.45,1.89.95,2Z"/><path d="M166.72,388.29h0c.14,0,.43.37.56,1.57a17,17,0,0,1-.13,3.95c-.43,3.23-1.36,5.21-1.85,5.21h0c-.14,0-.43-.38-.56-1.57a18,18,0,0,1,.12-3.95c.44-3.23,1.38-5.21,1.86-5.21Zm-1.4,11.18c1,0,1.93-2.82,2.3-5.6s.23-5.88-.83-6h-.07c-1,0-1.93,2.82-2.3,5.6a17.25,17.25,0,0,0-.12,4.06c.13,1.24.45,1.9.94,2Z"/><path d="M167.74,392.43a1.09,1.09,0,0,1,.91-.54,1,1,0,0,1,.59.2l.26-.37a1.47,1.47,0,0,0-.85-.28,1.54,1.54,0,0,0-1.29.75l.38.24Z"/><polygon points="164.73 393.04 164.75 392.59 148.54 392.04 148.53 392.49 164.73 393.04 164.73 393.04"/><path class="cls-20" d="M169.05,421.23l-63.83-13.61s-11,34.45,16.32,36.06c16.38,1,34.94-3.66,43.38-10.42,5.65-4.54,4.13-12,4.13-12"/><path class="cls-20" d="M119.75,429.44c-3.87,26.64-10.48,129.4-10.48,129.4,12.73,13.68,74.75.55,74.75.55s-4.59-89.64-13.94-129.14c-2.58-10.88-45.29-15.58-50.33-.81"/><path class="cls-20" d="M116.57,435.05s-33.23,51.26-25.5,67.37S129,525,129,525l-3.12-81.23-9.34-8.7"/><path class="cls-21" d="M128.08,444.53c-.73,0-1.45,0-2.14,0a35.52,35.52,0,0,1-13.35-3c4.31,4.74,9,6.83,13.52,7.32a20.64,20.64,0,0,0,2.22.12c11.89,0,22.35-10,22.35-10A50.61,50.61,0,0,1,128.08,444.53Z"/><path class="cls-20" d="M167.29,424s19.25,5.76,29.38,73.94c2.55,0,18.83-7.17,18.83-7.17l7.35,12.09s-47,38.85-53.23,20.71c-6.28-18.33-6.22-37.48-7.31-50.81-1-12.54,5-48.76,5-48.76Z"/></svg>