<svg id="圖層_1" data-name="圖層 1" xmlns="http://www.w3.org/2000/svg" viewBox="0 0 640 800"><defs><style>.cls-1{fill:#dedede;}.cls-2{fill:#5b73b7;}.cls-3{fill:#6c8fdd;}.cls-4{fill:#fff;}.cls-5{fill:#5f894c;}.cls-6{fill:#547742;}.cls-7{fill:#486636;}.cls-8{fill:#e0bd96;}.cls-9{fill:#ffedc5;}.cls-10{fill:#2a3756;}.cls-11{fill:#52a1d8;}.cls-12{fill:#ef5353;}.cls-13{fill:#b0b5c1;}.cls-14{fill:#b2b7c3;}.cls-15{fill:#283558;}.cls-16{fill:#e4837a;}.cls-17{fill:#e8e2e2;}.cls-18{fill:#f48d7e;}.cls-19{fill:#ffe2a9;}.cls-20{fill:#192133;}.cls-21{fill:#10161e;}.cls-22{fill:#2d3b5d;}.cls-23{fill:#b2b2b3;}.cls-24{fill:#efefef;}.cls-25{fill:#e2857e;}</style></defs><ellipse class="cls-1" cx="320" cy="335.39" rx="292" ry="278"/><path class="cls-2" d="M172.05,176.93H503.3V416.25H172.05V176.93m-9.33-8.76V424.76h349.9V168.17H162.72"/><polyline class="cls-3" points="172.54 178.37 502.8 178.37 502.8 413.37 172.54 413.37 172.54 178.37"/><path class="cls-4" d="M174.68,180.11h52.75V256H174.68v-75.9m0,77.7h52.75v75.9H174.68v-75.9m0,77.7h52.75V411.4H174.68V335.51m54.64-155.4h52.75V256H229.32v-75.9m0,77.7h52.75v75.9H229.32v-75.9m0,77.7h52.75V411.4H229.32V335.51M284,180.11h52.75V256H284v-75.9m0,77.7h52.75v75.9H284v-75.9m0,77.7h52.75V411.4H284V335.51m54.65-155.4h52.75V256H338.62v-75.9m0,77.7h52.75v75.9H338.62v-75.9m0,77.7h52.75V411.4H338.62V335.51m54.65-155.4H446V256H393.27v-75.9m0,77.7H446v75.9H393.27v-75.9m0,77.7H446V411.4H393.27V335.51m54.64-155.4h52.75V256H447.91v-75.9m0,77.7h52.75v75.9H447.91v-75.9m0,77.7h52.75V411.4H447.91V335.51M169.17,416.66h337V174.86h-337v241.8"/><path class="cls-5" d="M531.79,395.56c3-19,5.45-39.66,4.83-43.46-1.18-7.26-6.07-49.84-6.07-49.84l-2.72-26.74s-12.3,47.81-12,59.87,7.58,44.47,7.58,44.47l2.07,35.76,6.26-20.06Z"/><path class="cls-5" d="M547,392.4c.32-7.46.59-13.45.59-13.45l1.59-22.06s-16.74,37-18.16,46.84c-.71,4.92-.75,14.19-.61,22.24L547,392.4Z"/><path class="cls-5" d="M524.59,418.26l-4.66-40.57L510,343.8l-9.6-23.92s1.56,40.53,3.6,53.87c1.41,9.21,5.62,27.46,8.78,36.23,1.75,4.88,8.51,18.9,8.51,18.9l3.27-10.62Z"/><path class="cls-6" d="M527.44,315.36l-10.16,7.42c.46-2.68,1-5.58,1.6-8.58l7.33-5.35,5.26,1.39c.22,1.9.48,4.06.75,6.38l-4.78-1.26Z"/><path class="cls-7" d="M540.18,377.79c.92-2.23,1.84-4.41,2.72-6.48l2.19-.34,3,1.48-.46,6.45-3.49-1.73-4,.62Z"/><path class="cls-6" d="M502.68,325.47l-2,1.16c-.18-4.12-.29-6.75-.29-6.75l2.25,5.59Z"/><path class="cls-6" d="M533.65,328.73c.26,2.16.51,4.3.77,6.37l-10,5.33-8.26-1.18c-.14-1.44-.23-2.74-.26-3.86,0-.64,0-1.39,0-2.22l7.38,1.06,10.34-5.5Z"/><path class="cls-6" d="M533.78,394.25c.62-1.77,1.32-3.65,2.06-5.61l3.6,1.27,7.73-.76c0,1-.09,2.13-.14,3.25l-1.44,2.91-6.89.69-4.92-1.75Z"/><path class="cls-6" d="M508.85,340.88l-7.24,3.56c-.12-2.21-.24-4.4-.35-6.49l5.36-2.63,2.23,5.56Z"/><path class="cls-7" d="M531.09,349.66l4.75-3.17c.33,2.52.6,4.49.78,5.61a8.09,8.09,0,0,1,.08,1L532,356.23,521.72,353l-3.26,2c-.38-2.14-.74-4.27-1.07-6.33l3.57-2.13,10.13,3.21Z"/><path class="cls-6" d="M530.49,411.16c.1-2.63.25-5,.48-6.82l4.44-2.07,5.42,2.68-2.65,5.36-2.85-1.41-4.84,2.26Z"/><path class="cls-6" d="M511.64,352l.67-.4,2.06,7-1.73,2.55-10.05-1.72c-.15-2-.3-4.05-.43-6.14l7.69,1.31,1.79-2.64Z"/><path class="cls-6" d="M525,365.71l-4.11,2.12c-.39-1.92-.79-4-1.2-6.11l4.76-2.46,6.88,2.18,4.91-.14c-.17,1.82-.37,3.84-.61,6l-5.14.15L525,365.71Z"/><path class="cls-7" d="M515.85,363.72l1.71,5.85-6.4,3.32-7.33-.55c-.23-1.72-.46-3.77-.67-6l6.75.51,5.94-3.08Z"/><path class="cls-6" d="M523.64,382.94l-.18-3.08-.67-3.07,7.41-3.16,4.63.61q-.36,2.88-.78,5.93l-3-.4-7.4,3.17Z"/><path class="cls-6" d="M516.31,379.56,520,378l.71,6.2-3.2,1.37-5.69-.12-5.12,1.84c-.45-2-.87-4-1.25-5.9l5.38-1.94,5.51.11Z"/><path class="cls-7" d="M524.61,399.79l-.4-6.93,4.63-3.1,3.76.56-.81,5.24-.21.65-1.33-.2-5.64,3.78Z"/><path class="cls-6" d="M521.86,394.43l.77,6.69-6.57,4.39-4.78-.23c-.57-1.87-1.14-3.92-1.71-6.07l4.8.23,7.49-5Z"/><polygon class="cls-6" points="527.42 409.54 525.58 415.46 525.52 415.46 525.17 409.47 527.42 409.54 527.42 409.54"/><path class="cls-7" d="M523.58,409.42l.69,6-4.27-.14-4.09,2c-.91-2-1.75-3.93-2.39-5.49l5.18-2.55,4.88.16Z"/><path class="cls-6" d="M524.12,290.57l5.21-.34.6,6-7.23.47c.49-2.11,1-4.15,1.42-6.09Z"/><path class="cls-8" d="M538.58,430.74V411.1H512.22v19.64A13.13,13.13,0,0,0,516,440h18.77a13.16,13.16,0,0,0,3.79-9.25Z"/><polygon class="cls-4" points="511.89 427.27 539.1 427.27 539.1 426.1 511.89 426.1 511.89 427.27 511.89 427.27"/><polygon class="cls-4" points="563.43 543.8 564.8 543.8 538.95 426.54 537.95 426.83 563.43 543.8 563.43 543.8"/><polygon class="cls-4" points="487.74 543.8 513.18 426.83 512.17 426.54 486.37 543.8 487.74 543.8 487.74 543.8"/><polygon class="cls-4" points="512.69 543.8 522.16 426.74 521.13 426.63 511.29 543.8 512.69 543.8 512.69 543.8"/><path class="cls-9" d="M135,336.68c4.18.67,1.67,3,.67,3-.33,0-2.5.5-2.5.5s.83.83.66,1.5a1.56,1.56,0,0,1-1,1.17,6.36,6.36,0,0,1-1.33,0,2.7,2.7,0,0,1,0,1.67,8.73,8.73,0,0,1-3.68,3.84c-1,.16-5.07.94-5.07.94l1.74-2.45-4.68-2.17,6.18-5.34,6.17.17s-2.83-.17-2.67-1.67,4.1-1.39,5.51-1.17Z"/><polygon class="cls-4" points="398.13 569.39 382.11 445.89 386.13 445.31 402.23 569.39 398.13 569.39 398.13 569.39"/><polygon class="cls-4" points="344.75 562.19 340.69 562.19 340.69 445.6 344.75 445.6 344.75 562.19 344.75 562.19"/><polygon class="cls-4" points="282.82 568.16 298.92 444.08 302.94 444.66 286.92 568.16 282.82 568.16 282.82 568.16"/><polyline class="cls-4" points="412.53 442.65 272.12 442.65 272.12 236.81 412.53 236.81 412.53 442.65"/><polygon class="cls-10" points="369.83 236.98 316.45 236.98 316.45 233.44 369.83 233.44 369.83 236.98 369.83 236.98"/><polygon class="cls-2" points="384.24 261.97 354.67 261.97 354.67 254.99 384.24 254.99 388.21 258.48 384.24 261.97 384.24 261.97"/><polygon class="cls-11" points="355.13 261.97 325.56 261.97 325.56 254.99 355.13 254.99 359.1 258.48 355.13 261.97 355.13 261.97"/><polygon class="cls-12" points="326.02 261.97 296.45 261.97 296.45 254.99 326.02 254.99 329.99 258.48 326.02 261.97 326.02 261.97"/><polyline class="cls-13" points="354.5 373.07 330.32 360.16 306.07 366.54 305.69 365.09 330.51 358.56 354.69 371.47 378.58 365.09 378.96 366.54 354.5 373.07"/><path class="cls-12" d="M310,365.88a4,4,0,1,1-4-4,4,4,0,0,1,4,4Z"/><path class="cls-11" d="M334.23,359.43a4,4,0,1,1-4-4,4,4,0,0,1,4,4Z"/><path class="cls-12" d="M316.81,384.47h-15a5.33,5.33,0,0,0-5.33,5.33v2h25.69v-2a5.33,5.33,0,0,0-5.33-5.33Z"/><path class="cls-14" d="M316.89,398.66h-15.2a1,1,0,0,1,0-2h15.2a1,1,0,0,1,0,2"/><path class="cls-14" d="M316.89,402.48h-15.2a1,1,0,0,1,0-2h15.2a1,1,0,0,1,0,2"/><path class="cls-14" d="M316.89,406.3h-15.2a1,1,0,0,1,0-2h15.2a1,1,0,0,1,0,2"/><path class="cls-14" d="M316.89,410.12h-15.2a1,1,0,1,1,0-2h15.2a1,1,0,0,1,0,2"/><path class="cls-14" d="M316.89,417.76h-15.2a1,1,0,0,1,0-2h15.2a1,1,0,0,1,0,2"/><path class="cls-14" d="M311.33,421.58h-9.64a1,1,0,0,1,0-2h9.64a1,1,0,0,1,0,2"/><path class="cls-14" d="M344.75,327.87H301.91a1,1,0,1,1,0-2h42.84a1,1,0,0,1,0,2"/><path class="cls-14" d="M344.75,331.69h-47.3a1,1,0,0,1,0-2h47.3a1,1,0,0,1,0,2"/><path class="cls-14" d="M344.75,339.29H301.91a1,1,0,0,1,0-2h42.84a1,1,0,0,1,0,2"/><path class="cls-14" d="M344.75,343.11h-47.3a1,1,0,1,1,0-2h47.3a1,1,0,0,1,0,2"/><path class="cls-14" d="M315.77,346.93H297.45a1,1,0,0,1,0-2h18.32a1,1,0,0,1,0,2"/><path class="cls-2" d="M310.67,290.58a5.7,5.7,0,0,1,5.7-5.7V270.66a19.93,19.93,0,0,0,0,39.85V296.29a5.71,5.71,0,0,1-5.7-5.71Z"/><path class="cls-12" d="M321.24,287.61l12.13-7.43a19.93,19.93,0,0,0-17-9.52v14.22a5.71,5.71,0,0,1,4.87,2.73Z"/><path class="cls-11" d="M336.3,290.58a19.9,19.9,0,0,0-2.93-10.4l-12.13,7.43a5.64,5.64,0,0,1,.83,3,5.71,5.71,0,0,1-5.7,5.71v14.22a19.93,19.93,0,0,0,19.93-19.93Z"/><path class="cls-14" d="M387.21,276.48h-33a1,1,0,0,1,0-2h33a1,1,0,1,1,0,2"/><path class="cls-14" d="M387.21,280.3h-37.5a1,1,0,0,1,0-2h37.5a1,1,0,0,1,0,2"/><path class="cls-14" d="M387.21,284.12h-37.5a1,1,0,1,1,0-2h37.5a1,1,0,0,1,0,2"/><path class="cls-14" d="M387.21,287.94h-37.5a1,1,0,0,1,0-2h37.5a1,1,0,0,1,0,2"/><path class="cls-14" d="M384.42,291.76H349.71a1,1,0,0,1,0-2h34.71a1,1,0,1,1,0,2"/><path class="cls-14" d="M387.21,299.51h-33a1,1,0,0,1,0-2h33a1,1,0,1,1,0,2"/><path class="cls-14" d="M387.21,303.33h-37.5a1,1,0,0,1,0-2h37.5a1,1,0,0,1,0,2"/><path class="cls-14" d="M375.51,307.15h-25.8a1,1,0,1,1,0-2h25.8a1,1,0,0,1,0,2"/><polygon class="cls-10" points="287.51 446.65 287.51 442.47 398.77 442.47 398.77 446.65 287.51 446.65 287.51 446.65"/><path class="cls-2" d="M358.34,371.79a4,4,0,1,1-4-4,4,4,0,0,1,4,4Z"/><path class="cls-12" d="M382.59,365.34a4,4,0,1,1-4-4,4,4,0,0,1,4,4Z"/><path class="cls-11" d="M349.7,383.93h-15a5.33,5.33,0,0,0-5.33,5.33v2H355v-2a5.32,5.32,0,0,0-5.33-5.33Z"/><path class="cls-14" d="M349.79,398.11h-15.2a1,1,0,0,1,0-2h15.2a1,1,0,1,1,0,2"/><path class="cls-14" d="M349.79,405.75h-15.2a1,1,0,1,1,0-2h15.2a1,1,0,0,1,0,2"/><path class="cls-14" d="M349.79,409.57h-15.2a1,1,0,0,1,0-2h15.2a1,1,0,0,1,0,2"/><path class="cls-14" d="M349.79,413.39h-15.2a1,1,0,0,1,0-2h15.2a1,1,0,1,1,0,2"/><path class="cls-14" d="M349.79,417.21h-15.2a1,1,0,0,1,0-2h15.2a1,1,0,0,1,0,2"/><path class="cls-14" d="M347,421H334.59a1,1,0,1,1,0-2H347a1,1,0,0,1,0,2"/><path class="cls-2" d="M382.74,383.93h-15a5.32,5.32,0,0,0-5.33,5.33v2h25.69v-2a5.33,5.33,0,0,0-5.33-5.33Z"/><path class="cls-14" d="M375.86,398.11h-8.24a1,1,0,0,1,0-2h8.24a1,1,0,0,1,0,2"/><path class="cls-14" d="M382.82,401.93h-15.2a1,1,0,0,1,0-2h15.2a1,1,0,0,1,0,2"/><path class="cls-14" d="M382.82,405.75h-15.2a1,1,0,0,1,0-2h15.2a1,1,0,0,1,0,2"/><path class="cls-14" d="M382.82,409.57h-15.2a1,1,0,0,1,0-2h15.2a1,1,0,0,1,0,2"/><path class="cls-14" d="M382.82,413.39h-15.2a1,1,0,0,1,0-2h15.2a1,1,0,1,1,0,2"/><path class="cls-14" d="M382.82,421h-15.2a1,1,0,0,1,0-2h15.2a1,1,0,0,1,0,2"/><path class="cls-1" d="M369.6,557.45c0,4.27-141.63,7.72-193.16,7.72s-74.92-3.45-74.92-7.72,23.39-7.71,74.92-7.71,193.16,3.45,193.16,7.71Z"/><path class="cls-15" d="M195.16,402.61s-3.69,57.64-3.85,68.17c-.09,5.34.56,39.28.92,57.85a28,28,0,0,1-5.78.59,28.38,28.38,0,0,1-5.16-.46c-1.35-10.85-3.15-24.86-4.12-30.86-3.36-20.93,0-27-.68-33.06-.35-3.31-5.69-27.6-10.49-49-1.74-7.75-3.4-15.13-4.73-21-1.75-7.73-2.92-12.88-2.92-12.88,6-14.61,36.81,20.72,36.81,20.72Z"/><path class="cls-16" d="M192.23,528.63c.14,7.22.25,12.11.25,12.11l-3.55,7.49-5.86-5.08s-.77-6.33-1.78-14.39a28.38,28.38,0,0,0,5.16.46,28,28,0,0,0,5.78-.59Z"/><path class="cls-4" d="M181.86,541.39c-.73.2-2.7,13.06-1.53,13.73s34,1.19,35.92-.68c1-1-.07-5.31-.76-5.51a80,80,0,0,1-22.58-10.69s-2.54,1.64-2.17,3.37l.39.74s-2,1.9-4,1.72-3.41-3.19-5.25-2.68Z"/><path class="cls-17" d="M198.15,541.53a6.77,6.77,0,0,0-2.46,3.64l.51.14a6.24,6.24,0,0,1,2.37-3.44l.09,0-.51-.29Z"/><path class="cls-17" d="M201,543.11a6.83,6.83,0,0,0-2.28,3.51l.51.14a6.18,6.18,0,0,1,2.3-3.38l-.53-.27Z"/><path class="cls-15" d="M144,459.9a541.49,541.49,0,0,0-5.07-56.39c3.79-9.5,15-9.74,22.37-8.74,4,.55,8.26,1.47,8.26,1.47q-1,10.15-2.22,19.55c-2.15,17.3-5.8,32.73-7.08,46.37-2.94,31.19-4.83,53-5.95,66.51a28.54,28.54,0,0,1-5.61.55,29.41,29.41,0,0,1-4.39-.33l-.08-1.7c-5-39.25.86-39.38-.23-67.29Z"/><path class="cls-16" d="M144.86,541.73l-.58-12.84a29.41,29.41,0,0,0,4.39.33,28.54,28.54,0,0,0,5.61-.55c-1,11.53-1.35,17-1.35,17l-8.07-3.92Z"/><path class="cls-4" d="M140.74,552c-.57,4.12,3.54,6.57,7.91,6.57s8.7-2.26,7.92-6.57c-.45-2.52-1.22-5.76-1.93-9s-2.86-5.55-5.67-5.55-4.8,2.22-5.71,5.15c-1.22,4-2.09,6.23-2.52,9.38Z"/><path class="cls-17" d="M152.23,544.31l.35-.39a5.68,5.68,0,0,0-3.71-1.54,5.88,5.88,0,0,0-3.62,1.45l.35.4a4.72,4.72,0,0,1,6.63.08Z"/><path class="cls-17" d="M152.84,547.37l.36-.38a6.59,6.59,0,0,0-4.34-1.76,6.72,6.72,0,0,0-4.22,1.65l.34.4a6.23,6.23,0,0,1,3.88-1.52,6,6,0,0,1,4,1.61Z"/><path class="cls-12" d="M159.75,302.2c-6.55.4-18.58,5.89-20.59,12.72-1.35,9.32,5.63,34.9,0,65.38-7.19,28.7-4.42,38.46-4.42,38.46s9.14-1.08,19-8.59c7.81,4.86,25.79,14.6,44.23,12.69.19-6.76-7.17-79.91-6.19-105.18-1.9-6.12-14.73-14.4-18.95-15.21a95.73,95.73,0,0,0-13.06-.27Z"/><path class="cls-9" d="M140.18,407.75l7.32-3.11s5.38,4.36,6.22,5.53c-2.42,4.21-8.61,5.81-8.61,5.81l-4.93-8.23Z"/><path class="cls-12" d="M147.71,402.33,137.28,409s-18.13-16.19-22-32.78,8.58-49.23,28.37-67.3c13.08,3.6-.25,59.15-.25,59.15l4.33,34.26Z"/><path class="cls-18" d="M138.41,408.33c7-.73,13.91-6.42,14.2-6.66l.27-.23-.19-.29c-.17-.27-17.66-27.23-18.62-30.38-.22-.71.3-3.83,6.16-16.82,3.36-7.45,6.89-14.59,6.92-14.66l-.71-.35C145,341.87,132.3,367.71,133.31,371c.95,3.1,16.5,27.15,18.53,30.28-1.35,1.06-7.5,5.64-13.51,6.26l.08.79Z"/><path class="cls-18" d="M133.56,371.26l.25-.75c-4.41-1.47-7.18-.83-7.29-.8l.18.77-.09-.39.09.39a13.77,13.77,0,0,1,6.86.78Z"/><path class="cls-12" d="M172.09,321.69c-6.16,0-26.47-5-30.66-13.17s1.42-14.33,10.34-17.2,26.47,0,30.14,8.21-1.29,22.21-9.82,22.16Z"/><polygon class="cls-9" points="159.62 301.83 169.56 312.14 172.72 303.49 171.66 288.87 160.68 286.85 159.62 301.83 159.62 301.83"/><path class="cls-19" d="M160.19,293.79l.42-5.94,11,1,.73,10.06c-.39,0-.7,0-1.1,0-4.19,0-8.92-2.86-11.1-5.13Z"/><path class="cls-15" d="M152.57,271.92c0,7.83,6.4,15,14.29,15s14.29-7.16,14.29-15a14.29,14.29,0,0,0-28.58,0Z"/><path class="cls-19" d="M179.3,276.16a1.86,1.86,0,0,1,2.53.55c1.1,1.47.37,7-2.39,7s-.14-7.53-.14-7.53Z"/><path class="cls-9" d="M157.46,276.06c-.51-.62-1.77-1.07-3.15.64s-.46,8.15,3,8.15,1.57-7.1.17-8.79Z"/><path class="cls-9" d="M158.6,274.63c1-6.74,6.79-10.23,13-10.23s9.23,4.05,9.23,10.23c0,0-.05,7.88-.05,8.27,0,4.62-4,13.32-8.45,13.32-5.14,0-13.89-6.83-13.89-11.28a103,103,0,0,1,.21-10.31Z"/><path class="cls-15" d="M170.25,274.42s-4.6-.46-5.48-.37a2.19,2.19,0,0,0-2,1.62c-.08.18,6,.77,6.88.45s.62-1.7.62-1.7Z"/><path class="cls-15" d="M174.83,274.42s4.59-.46,5.48-.37a2.1,2.1,0,0,1,.46.08c.49.1.49,1.74.1,1.8a25.35,25.35,0,0,1-5.42.19c-.88-.32-.62-1.7-.62-1.7Z"/><polygon class="cls-19" points="174.79 285.98 170.73 285.98 173.14 286.91 174.79 285.98 174.79 285.98"/><path d="M182,279.72c-.33-2.55-2.11-4.48-4.14-4.48a2.7,2.7,0,0,0-.49,0,3.72,3.72,0,0,0-2.63,1.93,5.78,5.78,0,0,0-.75,2.84,2,2,0,0,0-1.38-.62,2,2,0,0,0-1.43.66,5.72,5.72,0,0,0-.74-2.88,3.72,3.72,0,0,0-2.63-1.93,2.7,2.7,0,0,0-.49,0c-2,0-3.81,1.93-4.14,4.48-.36,2.79,1.14,5.34,3.33,5.68a4,4,0,0,0,.49,0h0c2,0,3.81-1.93,4.14-4.49,0-.07,0-.15,0-.23a1.9,1.9,0,0,1,1.46-.88,1.83,1.83,0,0,1,1.41.83c0,.1,0,.19,0,.28.33,2.56,2.11,4.49,4.14,4.49a4,4,0,0,0,.49,0,3.75,3.75,0,0,0,2.63-1.93A5.94,5.94,0,0,0,182,279.72Zm-11.23,1.18c-.3,2.35-1.92,4.12-3.77,4.12l-.44,0c-2-.31-3.34-2.65-3-5.21.3-2.35,1.92-4.13,3.77-4.13a2.25,2.25,0,0,1,.44,0,3.4,3.4,0,0,1,2.36,1.74A5.5,5.5,0,0,1,170.77,280.9ZM181,283.24a3.36,3.36,0,0,1-2.36,1.75l-.44,0c-1.85,0-3.47-1.77-3.77-4.12a5.5,5.5,0,0,1,.65-3.47,3.38,3.38,0,0,1,2.36-1.74,2.25,2.25,0,0,1,.44,0c1.85,0,3.47,1.78,3.77,4.13A5.46,5.46,0,0,1,181,283.24Z"/><path class="cls-15" d="M156,251.5c-.18,5.33,3,8.76,7.89,8.93s7.17-3.25,7.35-8.58-2.25-9.41-7.09-9.57-8,3.89-8.15,9.22Z"/><path class="cls-15" d="M157.37,245.23a10.18,10.18,0,0,0-2.09,6.13,8.29,8.29,0,0,0,1.91,6,7.42,7.42,0,0,0,5.42,2.35,5.82,5.82,0,0,0,5.09-2.15,9.9,9.9,0,0,0,1.71-5.83,10.27,10.27,0,0,0-1.54-6.28,6.13,6.13,0,0,0-5-2.64h-.26a6.53,6.53,0,0,0-5.21,2.46ZM162.6,260a7.68,7.68,0,0,1-5.64-2.44,8.64,8.64,0,0,1-2-6.19,10.56,10.56,0,0,1,2.16-6.32,6.87,6.87,0,0,1,5.46-2.58h.27a6.42,6.42,0,0,1,5.28,2.77,10.66,10.66,0,0,1,1.6,6.47c-.18,5.34-2.6,8.29-6.82,8.29Z"/><path class="cls-18" d="M171.14,322.94c2.27,0,4.9-2.23,7.84-6.64a57,57,0,0,0,3.7-6.51l-.72-.33a56.14,56.14,0,0,1-3.64,6.41c-2.74,4.11-5.22,6.28-7.18,6.28-6.52,0-26.82-11.53-27-11.64l-.39.68c.84.48,20.69,11.75,27.42,11.75Z"/><path class="cls-4" d="M175.22,356c1.08-3.1,1.41-11.08,1-23.73-.32-9.39-1-18-1-18.08l-.79.06c0,.34,2.54,34.29,0,41.49l.75.26Z"/><path class="cls-4" d="M163.64,362.19l.78-.14c-1.43-7.83.47-47.46.49-47.86l-.79,0c-.08,1.64-1.92,40.12-.48,48Z"/><path class="cls-12" d="M191.12,316.2c8.15,9,20.37,40.59,20.37,40.59l27.87-7.05,5.45,12.3s-29.27,19.56-38.41,17.38-16-20.07-16-20.07-9.82-40.12.68-43.15Z"/><path class="cls-9" d="M240.27,351.79a75.48,75.48,0,0,0,6.11-4.72,29.21,29.21,0,0,1,4.91-3.56c.83-.33,10.68-2.67,10.68-2.67s.5,2.17-2.17,3.51a38.59,38.59,0,0,0-3.7,2.58s-5.86,6.8-8.15,8.6c-.79.62-4.19,4.14-4.19,4.14l-3.49-7.88Z"/><polygon class="cls-20" points="229.42 372.56 232.59 375.89 305.58 300.98 304.77 300.17 229.42 372.56 229.42 372.56"/><polygon class="cls-18" points="193.24 368.69 190.6 344.01 191.38 343.93 194.02 368.61 193.24 368.69 193.24 368.69"/><path class="cls-1" d="M113.22,735c0,4.23,106.58,7.66,238.05,7.66s238.05-3.43,238.05-7.66-106.58-7.65-238.05-7.65-238,3.43-238,7.65Z"/><polygon class="cls-9" points="195.76 482.77 187.86 489.15 181.15 489.15 182.33 468.31 194.57 466.06 195.76 482.77 195.76 482.77"/><path class="cls-9" d="M193.41,452.58c-1.13-7.51-7.56-11.41-14.43-11.41s-10.3,4.51-10.3,11.4c0,0,0,.54,0,1.35,0,1,.46,2.49.46,3.88,0,2-.4,3.26-.42,4.35,0,4.42,4.45,14.51,9.42,14.51,5.72,0,15.49-7.62,15.5-12.58,0-.43.19-8.65-.24-11.5Z"/><path class="cls-21" d="M202.9,450.58c0,5.84-3,14.89-8.1,19.15,0,0-6.89,2.85-15.32-10.74-1-1.66-5.29-6.36-8-14.93,2.74-4.81,8.62-8.33,15.44-8.33,8.8,0,16,6.12,16,14.85Z"/><path class="cls-19" d="M178.13,456.06c.34-.83,1.53-1.73,3.57-.37s3.21,8.52-.45,9.67-4.05-7-3.12-9.3Z"/><path class="cls-19" d="M181.93,473.16l-.23,2.78a11.59,11.59,0,0,1-3.73.72l4-3.5Z"/><path class="cls-21" d="M170.55,453.41a10.09,10.09,0,0,0-1.87-.17c-.86,0-.82,2.17,0,2.17a4.28,4.28,0,0,0,1.16-.1c1-.36.69-1.9.69-1.9Z"/><path class="cls-21" d="M188.73,438.13a1.23,1.23,0,0,1-.07-2.45h0a1.22,1.22,0,1,1,.14,2.44h-.1Z"/><path class="cls-21" d="M203.27,456l-.28,0a1.24,1.24,0,0,1-.91-1.47l0-.07a1.25,1.25,0,0,1,.37-.64,1.17,1.17,0,0,1-.12-.72V453a1.3,1.3,0,0,1,.31-.67,1.21,1.21,0,0,1-.2-.71v-.06a1.25,1.25,0,0,1,.24-.69,1.28,1.28,0,0,1-.27-.69v-.06a1,1,0,0,0-.18-1.36v-.07a1.2,1.2,0,0,1,.09-.73,1.19,1.19,0,0,1-.41-.61l0-.06a1.21,1.21,0,0,1,0-.73,1.24,1.24,0,0,1-.47-.56l0-.06a1.2,1.2,0,0,1-.07-.72,1.22,1.22,0,0,1-.53-.5l0-.06a1.15,1.15,0,0,1-.15-.71,1.28,1.28,0,0,1-.59-.44l0-.06a1.19,1.19,0,0,1-.23-.69,1.17,1.17,0,0,1-.63-.37l-.05,0a1.34,1.34,0,0,1-.31-.66,1.24,1.24,0,0,1-.66-.3l-.05-.05a1.2,1.2,0,0,1-.38-.62,1.27,1.27,0,0,1-.69-.23l-.06,0a1.3,1.3,0,0,1-.45-.57,1.22,1.22,0,0,1-.71-.15l-.06,0a1.22,1.22,0,0,1-.51-.52,1.2,1.2,0,0,1-.72-.06l-.06,0a1.18,1.18,0,0,1-.57-.46,1.21,1.21,0,0,1-.73,0l-.06,0a1.22,1.22,0,0,1-.62-.39,1.26,1.26,0,0,1-.72.1h-.07a1,1,0,0,0-1.36-.15h-.07a1.22,1.22,0,1,1,.12-2.44h.08a1.19,1.19,0,0,1,.78.34,1.21,1.21,0,0,1,.84-.16h.08a1.43,1.43,0,0,0,1.58.35l.08,0a1.19,1.19,0,0,1,.69.5,1.24,1.24,0,0,1,.85,0l.08,0a1.28,1.28,0,0,1,.63.58,1.18,1.18,0,0,1,.84.12l.08,0a1.22,1.22,0,0,1,.55.64,1.25,1.25,0,0,1,.83.22l.07.05a1.21,1.21,0,0,1,.48.7,1.14,1.14,0,0,1,.79.31l.06.05a1.16,1.16,0,0,1,.4.75,1.3,1.3,0,0,1,.76.39l0,.06a1.22,1.22,0,0,1,.32.79,1.3,1.3,0,0,1,.71.47l.05.07a1.23,1.23,0,0,1,.22.82,1.22,1.22,0,0,1,.66.55l0,.07a1.19,1.19,0,0,1,.14.84,1.21,1.21,0,0,1,.59.61l0,.08a1.25,1.25,0,0,1,0,.85,1.18,1.18,0,0,1,.51.68l0,.08a1.4,1.4,0,0,0,.38,1.57l0,.08a1.26,1.26,0,0,1-.15.84,1.21,1.21,0,0,1,.36.77V450a1.39,1.39,0,0,0,0,1.62v.08a1.24,1.24,0,0,1-.32.79,1.21,1.21,0,0,1,.19.82v.08a1.23,1.23,0,0,1-.4.75,1.21,1.21,0,0,1,.11.84l0,.08a1.22,1.22,0,0,1-1.19.94Z"/><path class="cls-21" d="M202.85,457.43a1.07,1.07,0,0,1-.39-.07,1.22,1.22,0,0,1-.77-1.54v0a1.22,1.22,0,0,1,2.32.78v0a1.23,1.23,0,0,1-1.16.84Z"/><path class="cls-21" d="M186.58,436.56a1.24,1.24,0,0,1-.27,0h0a1.22,1.22,0,0,1-.93-1.45,1.24,1.24,0,0,1,1.46-.94h0a1.23,1.23,0,0,1-.27,2.42Z"/><path class="cls-21" d="M168.76,451.72h0a1.23,1.23,0,0,1-1.2-1.25v-.08a1.26,1.26,0,0,1,.31-.78,1.29,1.29,0,0,1-.2-.82v-.08A1.26,1.26,0,0,1,168,448a1.21,1.21,0,0,1-.13-.84l0-.08a1.39,1.39,0,0,0,.39-1.55l0-.08a1.24,1.24,0,0,1,.51-.67,1.19,1.19,0,0,1,0-.85l0-.07a1.21,1.21,0,0,1,.57-.63,1.24,1.24,0,0,1,.11-.84l0-.07a1.39,1.39,0,0,0,.82-1.39l.05-.07a1.23,1.23,0,0,1,.69-.5,1.21,1.21,0,0,1,.27-.8l.05-.06a1.23,1.23,0,0,1,.74-.43,1.2,1.2,0,0,1,.36-.77l.06-.05a1.43,1.43,0,0,0,1.22-1.08l.06-.05a1.25,1.25,0,0,1,.82-.26,1.18,1.18,0,0,1,.52-.67l.07,0a1.2,1.2,0,0,1,.84-.16,1.23,1.23,0,0,1,.6-.61l.07,0a1.22,1.22,0,0,1,.86-.07,1.19,1.19,0,0,1,.66-.54l.08,0a1.3,1.3,0,0,1,.85,0,1.25,1.25,0,0,1,.71-.46l.08,0a1.27,1.27,0,0,1,.84.12,1.23,1.23,0,0,1,.76-.38h.08a1.42,1.42,0,0,0,1.61-.1h.08a1.27,1.27,0,0,1,.8.29,1.17,1.17,0,0,1,.82-.23h.08a1.22,1.22,0,0,1-.21,2.43h-.08a1.34,1.34,0,0,1-.68-.28,1.2,1.2,0,0,1-.7.23h-.07a1.26,1.26,0,0,1-.71-.21,1.21,1.21,0,0,1-.67.3H182a1.25,1.25,0,0,1-.72-.14,1.28,1.28,0,0,1-.64.36l-.07,0a1.21,1.21,0,0,1-.73-.07,1.17,1.17,0,0,1-.59.43l-.07,0a1.14,1.14,0,0,1-.73,0,1.17,1.17,0,0,1-.54.49l-.06,0a1,1,0,0,0-1.2.65l-.06,0a1.3,1.3,0,0,1-.71.18,1.23,1.23,0,0,1-.41.6l0,0a1.23,1.23,0,0,1-.69.26,1.21,1.21,0,0,1-.34.65l-.05,0a1.2,1.2,0,0,1-.66.34,1.26,1.26,0,0,1-.27.68l0,.05a1.19,1.19,0,0,1-.61.41,1.3,1.3,0,0,1-.21.7l0,.06a1.16,1.16,0,0,1-.57.46,1.27,1.27,0,0,1-.13.73l0,.06a1.19,1.19,0,0,1-.52.52,1.23,1.23,0,0,1-.06.73l0,.07a1.15,1.15,0,0,1-.47.57,1.17,1.17,0,0,1,0,.74l0,.06a1.14,1.14,0,0,1-.42.62,1.16,1.16,0,0,1,.08.74v.07a1.34,1.34,0,0,1-.36.65,1.26,1.26,0,0,1,.14.73v.07a1.28,1.28,0,0,1-.3.68,1.21,1.21,0,0,1,.21.71v.07a1.23,1.23,0,0,1-1.22,1.2Z"/><path class="cls-21" d="M168.82,453.25a1.22,1.22,0,0,1-1.2-1v-.06a1.22,1.22,0,1,1,2.42-.35h0a1.22,1.22,0,0,1-1,1.41Z"/><path class="cls-21" d="M185.49,440.09a1.22,1.22,0,0,1-.62-2.28l0,0a1.22,1.22,0,0,1,1.24,2.11l0,0a1.13,1.13,0,0,1-.61.17Z"/><path class="cls-21" d="M174,456h-.13a1.23,1.23,0,0,1-1.09-1.35v-.08a1.29,1.29,0,0,1,.38-.76,1.24,1.24,0,0,1-.13-.83l0-.08a1.2,1.2,0,0,1,.44-.71,1.27,1.27,0,0,1-.05-.84l0-.08a1.17,1.17,0,0,1,.5-.67,1.19,1.19,0,0,1,0-.83l0-.08a1.22,1.22,0,0,1,.54-.62,1.2,1.2,0,0,1,.08-.83l0-.07a1.28,1.28,0,0,1,.58-.59,1.22,1.22,0,0,1,.13-.81l0-.07a1.2,1.2,0,0,1,.61-.55,1.24,1.24,0,0,1,.17-.81l0-.06a1.27,1.27,0,0,1,.65-.52,1.22,1.22,0,0,1,.23-.81l0-.06a1.17,1.17,0,0,1,.71-.47,1.21,1.21,0,0,1,.3-.8l.06-.06a1.2,1.2,0,0,1,.75-.39,1.17,1.17,0,0,1,.39-.76l.06-.06a1.41,1.41,0,0,0,1.25-1l.06-.05a1.22,1.22,0,0,1,.81-.24,1.2,1.2,0,0,1,.53-.65l.06-.05a1.24,1.24,0,0,1,.81-.16,1.3,1.3,0,0,1,.55-.61l.07,0a1.22,1.22,0,1,1,1.16,2.15l-.07,0a1.16,1.16,0,0,0-1.25.71l-.06,0a1.25,1.25,0,0,1-.72.18,1.29,1.29,0,0,1-.44.6l-.05,0a1.31,1.31,0,0,1-.7.24,1.17,1.17,0,0,1-.37.63l-.05.05a1.19,1.19,0,0,1-.67.31,1.24,1.24,0,0,1-.3.67l0,0a1.13,1.13,0,0,1-.63.38,1.2,1.2,0,0,1-.23.7l0,.06a1.29,1.29,0,0,1-.6.44,1.24,1.24,0,0,1-.18.74l0,.06a1.27,1.27,0,0,1-.58.5,1.18,1.18,0,0,1-.14.75l0,.06a1.25,1.25,0,0,1-.55.52,1.16,1.16,0,0,1-.1.75l0,.07a1.19,1.19,0,0,1-.51.55,1.28,1.28,0,0,1,0,.75l0,.07a1.2,1.2,0,0,1-.47.59,1.27,1.27,0,0,1,0,.75l0,.06a1.25,1.25,0,0,1-.42.62,1.23,1.23,0,0,1,.07.74v.07a1.2,1.2,0,0,1-.36.65,1.25,1.25,0,0,1,.14.72v.07A1.22,1.22,0,0,1,174,456Z"/><path class="cls-21" d="M174,457.51a1.21,1.21,0,0,1-1.22-1.2v0a1.23,1.23,0,0,1,2.45,0v0a1.22,1.22,0,0,1-1.2,1.24Z"/><path class="cls-21" d="M187.82,439.82h-.16a1.23,1.23,0,0,1,.25-2.44h0a1.22,1.22,0,0,1-.13,2.44Z"/><path class="cls-21" d="M200.44,456.77h-.17a1.23,1.23,0,0,1-1-1.38v-.07a1.23,1.23,0,0,1,.31-.67,1.19,1.19,0,0,1-.19-.7v-.07a1.31,1.31,0,0,1,.24-.7,1.19,1.19,0,0,1-.26-.69v-.06a1.25,1.25,0,0,1,.18-.72,1.19,1.19,0,0,1-.33-.66V451a1.17,1.17,0,0,1,.1-.72,1.15,1.15,0,0,1-.39-.63l0-.06a1.24,1.24,0,0,1,0-.74,1.18,1.18,0,0,1-.46-.57l0-.07a1.15,1.15,0,0,1,0-.73,1.19,1.19,0,0,1-.51-.53l0-.06a1.21,1.21,0,0,1-.12-.72,1.29,1.29,0,0,1-.56-.48l0-.06a1.18,1.18,0,0,1-.19-.7,1.21,1.21,0,0,1-.61-.4l0-.05a1.26,1.26,0,0,1-.27-.68,1.23,1.23,0,0,1-.65-.33l-.05,0a1,1,0,0,0-1-.9l0,0a1.18,1.18,0,0,1-.42-.59,1.22,1.22,0,0,1-.71-.18l-.06,0a1.22,1.22,0,0,1-.48-.55,1.25,1.25,0,0,1-.73-.1l-.06,0a1.17,1.17,0,0,1-.54-.49,1.25,1.25,0,0,1-.74,0l-.06,0a1.26,1.26,0,0,1-.6-.43,1.28,1.28,0,0,1-.73.05l-.07,0a1.22,1.22,0,0,1,.56-2.38l.08,0a1.25,1.25,0,0,1,.71.47,1.21,1.21,0,0,1,.84,0l.08,0a1.41,1.41,0,0,0,1.5.61l.07,0a1.4,1.4,0,0,0,1.43.76l.07,0a1.24,1.24,0,0,1,.53.67,1.27,1.27,0,0,1,.81.25l.07.05a1.26,1.26,0,0,1,.45.73,1.2,1.2,0,0,1,.78.34l.06.05a1.27,1.27,0,0,1,.37.78,1.21,1.21,0,0,1,.73.43l.06.06a1.24,1.24,0,0,1,.27.81,1.27,1.27,0,0,1,.68.51l0,.07a1.42,1.42,0,0,0,.8,1.41l0,.07a1.23,1.23,0,0,1,.09.84,1.18,1.18,0,0,1,.56.64l0,.07a1.24,1.24,0,0,1,0,.85,1.21,1.21,0,0,1,.49.69l0,.08a1.21,1.21,0,0,1-.08.84,1.23,1.23,0,0,1,.42.73v.09a1.22,1.22,0,0,1-.16.82,1.19,1.19,0,0,1,.34.77v.08a1.42,1.42,0,0,0,0,1.61V454a1.22,1.22,0,0,1-.32.79,1.25,1.25,0,0,1,.18.83v.07a1.22,1.22,0,0,1-1.21,1.06Z"/><path class="cls-21" d="M200.12,458.27a1.14,1.14,0,0,1-.41-.07,1.24,1.24,0,1,1,1.58-.8l0,.06a1.22,1.22,0,0,1-1.15.81Z"/><path class="cls-21" d="M186.58,437.3a1.24,1.24,0,0,1-1.08-.65A1.22,1.22,0,0,1,186,435l0,0a1.22,1.22,0,0,1,1.15,2.16h0a1.22,1.22,0,0,1-.58.15Z"/><path class="cls-21" d="M205.65,447a1.23,1.23,0,0,1-1.2-1V446a1.18,1.18,0,0,1,.05-.7,1.21,1.21,0,0,1-.4-.58l0-.06a1.15,1.15,0,0,1,0-.71,1.27,1.27,0,0,1-.48-.52l0-.06a1.24,1.24,0,0,1-.11-.7,1.22,1.22,0,0,1-.53-.48l0-.05a1.25,1.25,0,0,1-.18-.69,1.17,1.17,0,0,1-.58-.41l0,0a1.14,1.14,0,0,1-.26-.67,1.21,1.21,0,0,1-.63-.35l0,0a1.2,1.2,0,0,1-.33-.64,1.33,1.33,0,0,1-.66-.28l0-.05a1.13,1.13,0,0,1-.39-.6,1.15,1.15,0,0,1-.68-.22l-.06,0a1.16,1.16,0,0,1-.44-.55,1.24,1.24,0,0,1-.7-.15l-.06,0a1.23,1.23,0,0,1-.5-.51,1.17,1.17,0,0,1-.71-.07l-.06,0a1.22,1.22,0,0,1-.55-.45,1.11,1.11,0,0,1-.7,0l-.07,0a1.24,1.24,0,0,1-.59-.37,1.27,1.27,0,0,1-.7.1h-.06a1.19,1.19,0,0,1-.64-.3,1.15,1.15,0,0,1-.68.19h-.06a1.18,1.18,0,0,1-.67-.21,1.16,1.16,0,0,1-.64.27h-.07a1.2,1.2,0,0,1-.68-.12,1.26,1.26,0,0,1-.61.36h-.06a1.19,1.19,0,0,1-.7,0,1.26,1.26,0,0,1-.56.43l-.06,0a1.22,1.22,0,0,1-.89-2.28l.07,0a1.21,1.21,0,0,1,.84,0,1.25,1.25,0,0,1,.7-.48l.07,0a1.2,1.2,0,0,1,.84.1,1.27,1.27,0,0,1,.76-.39h.08a1.24,1.24,0,0,1,.82.21,1.22,1.22,0,0,1,.79-.29h.09a1.2,1.2,0,0,1,.78.3,1.22,1.22,0,0,1,.82-.17h.08a1.18,1.18,0,0,1,.74.4,1.26,1.26,0,0,1,.84-.07l.08,0a1.31,1.31,0,0,1,.68.49,1.25,1.25,0,0,1,.83,0l.08,0a1.28,1.28,0,0,1,.61.56,1.25,1.25,0,0,1,.82.13l.07,0a1.19,1.19,0,0,1,.55.62,1.2,1.2,0,0,1,.81.21l.06,0a1.21,1.21,0,0,1,.48.68,1.18,1.18,0,0,1,.77.28l.06.05a1.22,1.22,0,0,1,.42.72,1.23,1.23,0,0,1,.74.36l.06.06a1.22,1.22,0,0,1,.33.76,1.18,1.18,0,0,1,.71.44l.05.06a1.22,1.22,0,0,1,.25.79,1.2,1.2,0,0,1,.66.52l0,.06a1.43,1.43,0,0,0,.76,1.4l0,.08a1.26,1.26,0,0,1,.07.83,1.23,1.23,0,0,1,.53.65l0,.07a1.47,1.47,0,0,0,.43,1.56v.07a1.22,1.22,0,0,1-1,1.45l-.24,0Z"/><path class="cls-21" d="M205.82,448.44h0a1.24,1.24,0,0,1,0-2.48h0a1.22,1.22,0,0,1,1.2,1.24v.07a1.21,1.21,0,0,1-1.22,1.17Z"/><path class="cls-21" d="M171.46,452.19h-.14a1.22,1.22,0,0,1-1.08-1.35v-.07a1.16,1.16,0,0,1,.36-.74,1.18,1.18,0,0,1-.12-.81v-.08a1.28,1.28,0,0,1,.43-.7,1.18,1.18,0,0,1-.05-.81l0-.08a1.24,1.24,0,0,1,.48-.66,1.22,1.22,0,0,1,0-.82l0-.07a1.26,1.26,0,0,1,.54-.62,1.16,1.16,0,0,1,.11-.81l0-.07a1.21,1.21,0,0,1,.6-.56,1.25,1.25,0,0,1,.19-.81l0-.06a1.2,1.2,0,0,1,.66-.5,1.23,1.23,0,0,1,.28-.78l0-.06a1.17,1.17,0,0,1,.71-.42,1.23,1.23,0,0,1,.36-.75l0-.05a1.22,1.22,0,0,1,.76-.35,1.17,1.17,0,0,1,.44-.7l.06-.05a1.27,1.27,0,0,1,.79-.26,1.16,1.16,0,0,1,.5-.64l.07,0a1.22,1.22,0,0,1,.8-.18,1.19,1.19,0,0,1,.56-.59l.07,0a1.21,1.21,0,0,1,.81-.1,1.16,1.16,0,0,1,.61-.54l.07,0a1.16,1.16,0,0,1,.82,0,1.22,1.22,0,0,1,.66-.49l.07,0a1.27,1.27,0,0,1,.82,0,1.2,1.2,0,0,1,.7-.42l.08,0a1.39,1.39,0,0,0,1.55-.24h.08a1.24,1.24,0,0,1,1.34,1.1,1.22,1.22,0,0,1-1.1,1.33h-.06a1.19,1.19,0,0,1-.7-.13,1.29,1.29,0,0,1-.63.34h-.07a1.23,1.23,0,0,1-.71-.07,1.14,1.14,0,0,1-.6.4l-.06,0a1.26,1.26,0,0,1-.72,0,1.32,1.32,0,0,1-.56.45l-.07,0a1.16,1.16,0,0,1-.71.06,1.2,1.2,0,0,1-.52.5l-.06,0a1.19,1.19,0,0,1-.71.13,1.21,1.21,0,0,1-.47.54l0,0a1.06,1.06,0,0,0-1.1.77l-.05,0a1.21,1.21,0,0,1-.66.26,1.23,1.23,0,0,1-.34.62l-.05,0a1.18,1.18,0,0,1-.62.33,1.26,1.26,0,0,1-.28.65l0,.06a1.23,1.23,0,0,1-.59.39,1.15,1.15,0,0,1-.2.68l0,.06a1.2,1.2,0,0,1-.55.45,1.15,1.15,0,0,1-.13.7l0,.06a1.23,1.23,0,0,1-.49.52,1.25,1.25,0,0,1-.06.71l0,.06a1.1,1.1,0,0,0-.44,1.28v.06a1.27,1.27,0,0,1-.4.6,1.25,1.25,0,0,1,.07.72v.07a1.23,1.23,0,0,1-.35.63,1.14,1.14,0,0,1,.14.71v.07a1.23,1.23,0,0,1-1.21,1.09Z"/><path class="cls-21" d="M187,438.18h-.11a1.22,1.22,0,1,1,.14-2.44h0a1.22,1.22,0,0,1-.07,2.44Z"/><path class="cls-21" d="M171.36,453.88a1.22,1.22,0,0,1-1.22-1.2v0a1.23,1.23,0,0,1,2.45,0v0a1.22,1.22,0,0,1-1.21,1.24Z"/><path class="cls-21" d="M187,440.69a1.22,1.22,0,0,1-.93-2l0,0a1.23,1.23,0,0,1,1.84,1.62l0,0a1.21,1.21,0,0,1-.92.42Z"/><path class="cls-21" d="M182.34,457.28a1.22,1.22,0,0,1-1.22-1.17V456a1.26,1.26,0,0,1,.25-.79,1.24,1.24,0,0,1-.28-.78v-.08a1.31,1.31,0,0,0,0-1.58v-.07a1.33,1.33,0,0,1,.32-.78,1.18,1.18,0,0,1-.21-.81v-.08a1.24,1.24,0,0,1,.36-.75,1.3,1.3,0,0,1-.17-.83v-.08a1.3,1.3,0,0,1,.41-.74,1.18,1.18,0,0,1-.13-.83l0-.08a1.24,1.24,0,0,1,.45-.72,1.21,1.21,0,0,1-.07-.84l0-.08a1.16,1.16,0,0,1,.5-.68,1.27,1.27,0,0,1,0-.86l0-.07a1.24,1.24,0,0,1,.56-.65,1.2,1.2,0,0,1,.06-.85l0-.08a1.25,1.25,0,0,1,.62-.6,1.22,1.22,0,0,1,.13-.85l0-.07a1.26,1.26,0,0,1,.67-.54A1.19,1.19,0,0,1,185,440l0-.07a1.22,1.22,0,1,1,2,1.42l0,.06a1.2,1.2,0,0,1-.6.45,1.29,1.29,0,0,1-.16.74l0,.06a1.2,1.2,0,0,1-.56.51,1.22,1.22,0,0,1-.09.75l0,.07a1.18,1.18,0,0,1-.52.56,1.17,1.17,0,0,1,0,.76l0,.07a1.15,1.15,0,0,1-.48.6,1.26,1.26,0,0,1,0,.77l0,.07a1.26,1.26,0,0,1-.44.64,1.19,1.19,0,0,1,.09.77v.07a1.26,1.26,0,0,1-.39.67,1.22,1.22,0,0,1,.13.76v.08a1.13,1.13,0,0,0-.17,1.45v.07a1.15,1.15,0,0,0-.09,1.47v.07a1.21,1.21,0,0,1-.28.74,1.18,1.18,0,0,1,.25.74v.08a1.12,1.12,0,0,1-.25.74,1.23,1.23,0,0,1,.28.74V456a1.23,1.23,0,0,1-1.18,1.26Z"/><path class="cls-21" d="M182.4,458.85a1.22,1.22,0,0,1-1.22-1.21v0a1.22,1.22,0,0,1,2.44-.05v.05a1.23,1.23,0,0,1-1.2,1.24Z"/><path class="cls-21" d="M186.86,436.06a1.09,1.09,0,0,1-.43-.08l-.06,0a1.22,1.22,0,0,1,.92-2.27h0a1.22,1.22,0,0,1-.44,2.36Z"/><path class="cls-21" d="M166.76,445.71a1,1,0,0,1-.3,0,1.22,1.22,0,0,1-.89-1.48l0-.08a1.2,1.2,0,0,1,.49-.71,1.27,1.27,0,0,1,0-.86l0-.08a1.18,1.18,0,0,1,.57-.65,1.22,1.22,0,0,1,.07-.86l0-.08a1.29,1.29,0,0,1,.63-.59,1.16,1.16,0,0,1,.17-.84l0-.07a1.24,1.24,0,0,1,.69-.53,1.19,1.19,0,0,1,.25-.82l.05-.07a1.25,1.25,0,0,1,.74-.44,1.23,1.23,0,0,1,.34-.8l.06-.06a1.24,1.24,0,0,1,.78-.37,1.19,1.19,0,0,1,.42-.75l.06,0a1.45,1.45,0,0,0,1.33-1l.07,0a1.2,1.2,0,0,1,.86-.18,1.23,1.23,0,0,1,.6-.65l.08,0a1.51,1.51,0,0,0,1.57-.62l.07,0a1.49,1.49,0,0,0,1.63-.4l.08,0a1.22,1.22,0,0,1,.86.17,1.19,1.19,0,0,1,.79-.36H179a1.23,1.23,0,0,1,.82.27,1.25,1.25,0,0,1,.82-.27h.09a1.23,1.23,0,0,1,.78.35,1.17,1.17,0,0,1,.84-.18h.08a1.19,1.19,0,0,1,.75.41,1.23,1.23,0,0,1,.85-.11l.08,0a1.35,1.35,0,0,0,1.56.44l.08,0a1.21,1.21,0,0,1,.77,1.54,1.22,1.22,0,0,1-1.54.78l-.06,0a1.3,1.3,0,0,1-.62-.45,1.23,1.23,0,0,1-.76.06l-.07,0a1.21,1.21,0,0,1-.65-.39,1.26,1.26,0,0,1-.75.13l-.07,0a1.1,1.1,0,0,1-.67-.33,1.22,1.22,0,0,1-.73.2h-.07a1.2,1.2,0,0,1-.7-.26,1.34,1.34,0,0,1-.7.27h-.07a1.19,1.19,0,0,1-.72-.18,1.28,1.28,0,0,1-.65.34h-.07a1.2,1.2,0,0,1-.73-.09,1.29,1.29,0,0,1-.6.42l-.07,0a1.21,1.21,0,0,1-.73,0,1.19,1.19,0,0,1-.54.5l-.06,0a1,1,0,0,0-1.19.66l-.05,0a1.25,1.25,0,0,1-.71.21,1.2,1.2,0,0,1-.4.63l-.05,0a1.24,1.24,0,0,1-.69.29,1.29,1.29,0,0,1-.33.67l0,0a1.31,1.31,0,0,1-.66.36,1.23,1.23,0,0,1-.26.7l0,.06a1.21,1.21,0,0,1-.61.42,1.29,1.29,0,0,1-.19.73l0,.05a1.17,1.17,0,0,1-.57.49,1.21,1.21,0,0,1-.11.74l0,.07a1.18,1.18,0,0,1-.52.54,1.14,1.14,0,0,1,0,.75l0,.06a1.24,1.24,0,0,1-.46.59,1.27,1.27,0,0,1,.05.75l0,.07a1.22,1.22,0,0,1-1.18.93Z"/><path class="cls-21" d="M166.49,447.1h-.08a1.23,1.23,0,0,1-1.14-1.3v-.05a1.22,1.22,0,1,1,2.44.18v0a1.22,1.22,0,0,1-1.22,1.14Z"/><path class="cls-21" d="M187.59,435.13a1.19,1.19,0,0,1-.81-.31,1.22,1.22,0,0,1-.1-1.72l.06-.07a1.24,1.24,0,0,1,.79-.39,1.19,1.19,0,0,1,.45-.75l.07-.06a1.22,1.22,0,0,1,.85-.24,1.26,1.26,0,0,1,.59-.66l.07,0a1.23,1.23,0,0,1,.88-.09,1.2,1.2,0,0,1,.68-.54l.08,0a1.48,1.48,0,0,0,1.61-.37h.08a1.25,1.25,0,0,1,.83.18,1.22,1.22,0,0,1,.78-.32h.08a1.25,1.25,0,0,1,.8.27,1.17,1.17,0,0,1,.8-.23h.08a1.22,1.22,0,0,1,.76.34,1.18,1.18,0,0,1,.81-.16h.08a1.19,1.19,0,0,1,.72.39,1.24,1.24,0,0,1,.81-.1l.08,0a1.26,1.26,0,0,1,.69.44,1.21,1.21,0,0,1,.82-.05l.07,0a1.16,1.16,0,0,1,.66.48,1.21,1.21,0,0,1,.82,0l.07,0a1.21,1.21,0,0,1,.63.52,1.26,1.26,0,0,1,.83.07l.09,0a1.22,1.22,0,1,1-1,2.21l-.05,0a1.15,1.15,0,0,1-.54-.48,1.28,1.28,0,0,1-.75,0l-.07,0a1.18,1.18,0,0,1-.59-.46,1.2,1.2,0,0,1-.75,0l-.06,0a1.25,1.25,0,0,1-.62-.42,1.27,1.27,0,0,1-.75.06h-.06a1.3,1.3,0,0,1-.65-.38,1.13,1.13,0,0,1-.73.11h-.07a1.21,1.21,0,0,1-.66-.32,1.23,1.23,0,0,1-.71.17H196a1.16,1.16,0,0,1-.68-.26,1.25,1.25,0,0,1-.69.24h-.06a1.14,1.14,0,0,1-.69-.19,1.27,1.27,0,0,1-.65.31h-.07a1.16,1.16,0,0,1-.69-.1,1.22,1.22,0,0,1-.58.39l-.06,0a1.25,1.25,0,0,1-.69,0,1.23,1.23,0,0,1-.5.46l-.06,0a1.24,1.24,0,0,1-.67.13,1.18,1.18,0,0,1-.4.54l-.05,0a1.19,1.19,0,0,1-.63.25,1.25,1.25,0,0,1-.3.61l0,.05a1.24,1.24,0,0,1-.92.4Z"/><path class="cls-21" d="M198.19,453.33a1.23,1.23,0,0,1-1.19-.95v-.05a1.22,1.22,0,0,1,0-.71,1.24,1.24,0,0,1-.45-.58l0-.06a1.25,1.25,0,0,1,0-.74,1.19,1.19,0,0,1-.5-.54l0-.06a1.25,1.25,0,0,1-.1-.73,1.3,1.3,0,0,1-.54-.5l0-.06a1.17,1.17,0,0,1-.15-.72,1.23,1.23,0,0,1-.58-.45l0-.06a1.06,1.06,0,0,0-.84-1.09l0,0a1.29,1.29,0,0,1-.29-.68,1.2,1.2,0,0,1-.64-.33l0-.05a1.28,1.28,0,0,1-.35-.63,1.23,1.23,0,0,1-.67-.27l0,0a1.23,1.23,0,0,1-.41-.6,1.2,1.2,0,0,1-.7-.19l-.06,0a1.22,1.22,0,0,1-.46-.55,1.21,1.21,0,0,1-.72-.11l0,0a1.28,1.28,0,0,1-.53-.5,1.19,1.19,0,0,1-.72,0l-.06,0a1.22,1.22,0,1,1,.84-2.29l.08,0a1.16,1.16,0,0,1,.63.54,1.26,1.26,0,0,1,.83.09l.08,0a1.17,1.17,0,0,1,.57.61,1.2,1.2,0,0,1,.82.18l.07,0a1.21,1.21,0,0,1,.51.67,1.26,1.26,0,0,1,.8.26l.06.05a1.23,1.23,0,0,1,.43.72,1.18,1.18,0,0,1,.76.34l.06.06a1.16,1.16,0,0,1,.36.75,1.22,1.22,0,0,1,.72.42l.06.06a1.23,1.23,0,0,1,.28.78,1.26,1.26,0,0,1,.68.48l.05.07a1.29,1.29,0,0,1,.21.8,1.22,1.22,0,0,1,.63.54l0,.06a1.35,1.35,0,0,0,.73,1.4l0,.07a1.2,1.2,0,0,1,.08.83,1.24,1.24,0,0,1,.54.63l0,.08a1.19,1.19,0,0,1,0,.83,1.23,1.23,0,0,1,.48.71l0,.1a1.23,1.23,0,0,1-.93,1.46l-.27,0Z"/><polygon class="cls-22" points="192.27 719.07 203.48 717.79 205.34 703.97 193.95 702.22 192.27 719.07 192.27 719.07"/><path class="cls-1" d="M218.56,638.86a451.16,451.16,0,0,1-10.45,66.47l-15.94-2.42c1.13-8.26,3.93-38.36,4.56-65.75.91-40.23,29-35.74,21.83,1.7Z"/><polygon class="cls-22" points="167.77 719.52 156.89 716.55 157.14 702.61 168.66 702.61 167.77 719.52 167.77 719.52"/><path class="cls-1" d="M153.64,607.62c.42,9.16.58,18.8.25,28.21-1.13,31.66-.13,63.42.3,67.7l16.12,0c.14-8.34,1.93-38.49,5.46-65.63,1.27-9.76,2.68-19.76,4.09-29.29,4.35-29.48-27.5-28.52-26.22-1Z"/><path class="cls-4" d="M154.28,718.05a6,6,0,0,1,1.69-2.78c.63-.61.89-1,1.6-2.92.63-1.74,3.05-2.26,4.55-2.32h.11c1.5.06,3.92.58,4.55,2.32.71,1.91,1,2.31,1.6,2.92a6,6,0,0,1,1.69,2.78c.14,1,2.74,12.32.14,12.5-1.25.09-4.66-.09-8,0h-.13c-3.31-.06-6.72.12-8,0-2.6-.18,0-11.51.14-12.5Z"/><path class="cls-4" d="M189.68,716.55a6,6,0,0,1,2.21-2.4c.73-.47,1.07-.81,2.13-2.55,1-1.58,3.44-1.62,4.93-1.38h0l.05,0h.05c1.46.35,3.73,1.34,4,3.17.32,2,.5,2.45,1,3.17a5.93,5.93,0,0,1,1.12,3.06c-.06,1,.27,12.62-2.31,12.29-1.25-.16-4.55-1-7.82-1.6h-.12c-3.24-.7-6.62-1.19-7.83-1.52-2.51-.69,2.26-11.29,2.59-12.23Z"/><path class="cls-23" d="M225.4,616c11.2-27.23-5.06-118.75-5.22-119.38h0a2.25,2.25,0,0,0-.76-1.24c-4.23-3.18-16.55-10.52-23.33-12.79-2.13.75-8.43,1.49-14.87,0-6.78,2.27-19.35,9.32-23.58,12.49a2.18,2.18,0,0,0-.75,1.25h0c-.16.62-15.37,95.22-4.93,119.67,7.29,17.08,67.52,14.43,73.45,0Z"/><path class="cls-23" d="M157.64,495c-6.86,5.15-16.68,29.53-19.6,45.47-5.4,29.56,5.21,53.44,11.8,58,2.39.92,3,14.68,3,14.68l6.35-45,4.94-43.61s-2.3-32.7-6.53-29.53Z"/><path class="cls-23" d="M219.47,495.34c6.83,5.13,15.9,25.87,18.86,41.35,5.6,29.3-2.39,51.66-2.77,57.61-2.42,1-.26,18.93-4.45,19.05a56.58,56.58,0,0,1-6.59-.21l-6.35-45-4.93-43.61s2-32.41,6.23-29.23Z"/><path class="cls-23" d="M324.45,559.11s-4,27.72-5.44,63.64c-1.23,31.49,5.44,31.64-.26,75.93l-.73,16.4-9.12,4.43s-2.16-49.86-14-168c0,0,22.9-9,29.53,7.55Z"/><path class="cls-23" d="M267.93,622.75c-1.4-35.92-5.43-63.64-5.43-63.64,6.62-16.56,29.52-7.55,29.52-7.55-11.83,118.09-14,168-14,168L269,716.84l-.78-18.16c-5.69-44.29,1-44.44-.26-75.93Z"/><path class="cls-24" d="M316.33,487.41S336,500.78,341.6,558.33c3.95,40.31-13.85,52.39-13.85,52.39L312.65,613s2.18-56.48.13-81.53c-1-11.84,3.55-44,3.55-44Z"/><path class="cls-24" d="M274.11,486.88s-22.76,8.9-27.74,69.82c-3.3,40.37,18.56,59.09,18.56,59.09l8.45-9.35s.45-49.94,2.5-75c1-11.84-1.77-44.57-1.77-44.57Z"/><path class="cls-24" d="M301.21,482.6c7.39.46,15.53,1.75,17.8,9.46,1.53,10.52-3.5,44.13,2.86,78.53,8.95,48.41,5.64,53.2,5.64,53.2H262.62s-5.2-4.79,2-52.68c4.9-32.43.84-64.43,5.4-79.06,2.39-7.7,13.93-8.46,17.86-9.45,4.73-2,7-.39,13.29,0Z"/><path class="cls-10" d="M279.32,445.19c.51-2.32,2.62-7.41,4.26-8.88,8.54-7.63,20.48-2.75,23.74,4.63,15.51,35.07-1.77,82.93,27,91.75-75.88,14.09-60.53-62.09-55-87.5Z"/><path class="cls-4" d="M265.67,718.05a6,6,0,0,1,1.69-2.78c.63-.61.89-1,1.6-2.92.63-1.74,3.05-2.26,4.55-2.32h.11c1.5.06,3.92.58,4.56,2.32.7,1.91,1,2.31,1.59,2.92a6,6,0,0,1,1.69,2.78c.14,1,2.74,12.32.14,12.5-1.25.09-4.66-.09-8,0h-.13c-3.31-.06-6.72.12-8,0-2.6-.18,0-11.51.14-12.5Z"/><path class="cls-4" d="M305.58,718.05a6,6,0,0,1,1.69-2.78c.63-.61.89-1,1.59-2.92.64-1.74,3.06-2.26,4.56-2.32h.11c1.5.06,3.91.58,4.55,2.32.7,1.91,1,2.31,1.59,2.92a6,6,0,0,1,1.7,2.78c.14,1,2.74,12.32.14,12.5-1.25.09-4.66-.09-8,0h-.13c-3.32-.06-6.73.12-8,0-2.59-.18,0-11.51.15-12.5Z"/><path class="cls-15" d="M518.4,467.4c0,9.26-7.57,17.72-16.9,17.72s-16.9-8.46-16.9-17.72a16.9,16.9,0,0,1,33.8,0Z"/><path class="cls-9" d="M508.57,500.06C504.05,503.4,493.81,512,491.5,513l3.44-27,11.24-6.15s1.95,15.4,2.39,20.22Z"/><path class="cls-19" d="M505,483l-10.07,2.58-1.09,10.23c8.08-.94,11.16-9.6,11.16-12.81Z"/><path d="M481.12,471.13h0c-.14,0-.43.37-.56,1.57a17.45,17.45,0,0,0,.12,3.95c.43,3.22,1.37,5.2,1.86,5.2h0c.15,0,.43-.37.57-1.56a17.49,17.49,0,0,0-.13-4c-.43-3.23-1.37-5.21-1.85-5.21Zm1.4,11.18c-1,0-1.93-2.82-2.3-5.61s-.23-5.88.82-6h.08c1,0,1.93,2.81,2.3,5.6a17.18,17.18,0,0,1,.12,4.05c-.13,1.24-.45,1.9-1,2Z"/><path class="cls-15" d="M483,470.38s5.2-.52,6.2-.43a2.51,2.51,0,0,1,2.29,1.84c.08.2-6.79.87-7.79.51s-.7-1.92-.7-1.92Z"/><path class="cls-9" d="M502.88,474.54c-2.66-8.38-5.87-16.31-11.79-16.31-7,0-8.12,9.95-7.48,13.9,0,0,.17,6.86.17,7.3,0,1.18,0,2.59.18,4.06,0,0,1.12,9.9,3.52,10.07,3.29.24,11.07-1.67,15.16-4.85,3.12-2.43,3.7-4.45,3.7-6.63,0-.32-1.78-2.64-2.61-5-.31-.88-.61-1.76-.85-2.51Z"/><path class="cls-15" d="M484.75,470.25s5.2-.52,6.2-.42a2.47,2.47,0,0,1,2.28,1.83c.09.2-6.78.87-7.78.51s-.7-1.92-.7-1.92Z"/><polygon class="cls-9" points="483.61 472.13 481.15 482.26 484.79 483.86 483.61 472.13 483.61 472.13"/><path d="M485.44,471.16h0c-.15,0-.43.37-.56,1.57a16.89,16.89,0,0,0,.12,3.95c.43,3.23,1.37,5.21,1.85,5.21h0c.15,0,.43-.38.56-1.57a16.87,16.87,0,0,0-.12-3.95c-.43-3.23-1.37-5.21-1.85-5.21Zm1.39,11.18c-1,0-1.93-2.82-2.3-5.6s-.22-5.88.83-6h.08c1,0,1.92,2.82,2.3,5.6a17.81,17.81,0,0,1,.12,4.06c-.14,1.24-.46,1.9-.95,2Z"/><path d="M484.41,475.3a1.08,1.08,0,0,0-.91-.54,1,1,0,0,0-.59.2l-.26-.37a1.49,1.49,0,0,1,.85-.28,1.57,1.57,0,0,1,1.3.75l-.39.24Z"/><polygon points="487.42 475.91 487.41 475.46 503.61 474.91 503.63 475.36 487.42 475.91 487.42 475.91"/><path class="cls-9" d="M504.77,471.65c.58-.7,2-1.21,3.57.73s.52,9.22-3.38,9.22-1.78-8-.19-10Z"/><polygon class="cls-25" points="497.81 720.71 507.51 718.07 507.29 703.49 497.02 703.49 497.81 720.71 497.81 720.71"/><path class="cls-1" d="M515.73,556.78s-3.86,41.27-5.29,79.37a452,452,0,0,1-.24,67.28l-16.12,0c-.14-8.34-1.93-38.52-5.47-65.69-5.19-39.9-12.73-83.79-12.73-83.79s33.23-13.76,39.85,2.8Z"/><polygon class="cls-25" points="467.38 720.71 457.68 718.07 457.91 703.49 468.18 703.49 467.38 720.71 467.38 720.71"/><path class="cls-1" d="M487.2,613s-33.34-14.93-31.91,23.17a452,452,0,0,0,.24,67.28l16.12,0c.14-8.34,1.93-38.52,5.47-65.69,5.19-39.9,12.73-83.79,12.73-83.79s4,42.44-2.65,59Z"/><path class="cls-24" d="M478.85,504.56s-28.22,6.25-33.2,67.17c-3.3,40.36,33.79,41.25,33.79,41.25s.09-39.37,2.13-64.43c1-11.84-2.72-44-2.72-44Z"/><path class="cls-24" d="M507.53,499.75c7.42.73,20.65,7.92,22.75,10,3.65,25.15,4.32,121.59,4.32,121.59l-70.59.52s-1.74-85.56,8.66-122.46c3.39-5.64,16.33-8.37,20.21-9.48.3-.09,14.44-.21,14.65-.19Z"/><path class="cls-24" d="M527.14,507.58c18.07,10.61,29.1,48,25.7,67.91-3.27,19.13-34.5,31.72-34.5,31.72s0-85.41,8.8-99.63Z"/><path class="cls-10" d="M515.63,460.79c11.7-7.88,9.89,70.83,9.89,70.83l17.77,17s2.13-82.22-13.42-96.08c-6.56-5.85-14.07.58-15.79,2.62a7.56,7.56,0,0,0-.74,1l2.29,4.6Z"/><path class="cls-4" d="M455.14,718.05a6,6,0,0,1,1.69-2.78c.63-.61.89-1,1.59-2.92.64-1.74,3.06-2.26,4.56-2.32h.11c1.5.06,3.92.58,4.55,2.32.7,1.91,1,2.31,1.6,2.92a6,6,0,0,1,1.69,2.78c.14,1,2.74,12.32.14,12.5-1.25.09-4.66-.09-8,0H463c-3.31-.06-6.73.12-8,0-2.6-.18,0-11.51.14-12.5Z"/><path class="cls-4" d="M494.35,718.05a6,6,0,0,1,1.69-2.78c.63-.61.9-1,1.6-2.92.63-1.74,3.05-2.26,4.55-2.32h.11c1.5.06,3.92.58,4.56,2.32.7,1.91,1,2.31,1.59,2.92a5.88,5.88,0,0,1,1.69,2.78c.14,1,2.74,12.32.14,12.5-1.24.09-4.66-.09-8,0h-.13c-3.31-.06-6.72.12-8,0-2.6-.18,0-11.51.14-12.5Z"/><polygon class="cls-9" points="405.88 491 397.87 497.48 391.06 497.48 392.26 476.33 404.68 474.05 405.88 491 405.88 491"/><path class="cls-9" d="M403.51,460.38c-1.15-7.62-7.68-11.58-14.65-11.58s-10.44,4.57-10.45,11.57c0,0,0,.54,0,1.36,0,1,.47,2.53.47,3.95,0,2-.41,3.3-.42,4.41-.06,4.48,4.51,14.71,9.55,14.72,5.81,0,15.72-7.73,15.72-12.77,0-.43.2-8.78-.23-11.66Z"/><path class="cls-15" d="M413.58,458.34c0,5.93-3.48,15.11-8.67,19.44,0,0-6,1.82-15.77-11-.23-2-3.49-13.83-7.92-15.06,2.78-4.88,8.75-8.45,15.67-8.45a16.56,16.56,0,0,1,13.22,6.09c3,1,3.47,5.5,3.47,9Z"/><path class="cls-19" d="M388,463.91c.34-.84,1.56-1.76,3.62-.38s3.26,8.65-.46,9.81-4.1-7.13-3.16-9.43Z"/><path class="cls-19" d="M391.86,481.26l-.23,2.82a11.87,11.87,0,0,1-3.79.73l4-3.55Z"/><path class="cls-15" d="M380.31,461.22a10.83,10.83,0,0,0-1.89-.18c-.87,0-.84,2.21,0,2.21a4,4,0,0,0,1.18-.11c1-.36.7-1.92.7-1.92Z"/><path class="cls-15" d="M410.11,449.38c-3.8-7.34-20.81-14.18-27.58-11.32-.67,3.21,3.8,6.93,3.68,7.36-1.65-.22-3.31-2.7-4.35-4.15-8.62,11.14,6.08,13.44,6.08,13.44l13.35,1.73s9.65-6.3,8.82-7.06Z"/><path class="cls-15" d="M407.86,447.29l.38-.24a22.82,22.82,0,0,0-10.61-8.61,27.33,27.33,0,0,0-6.34-1.81l-.05.45a25.8,25.8,0,0,1,6.23,1.79,22.24,22.24,0,0,1,10.39,8.42Z"/><path class="cls-15" d="M416.05,450.19l.11-.43a22.79,22.79,0,0,0-13.62,1.14,27.4,27.4,0,0,0-5.82,3.09l.27.36a26.69,26.69,0,0,1,5.73-3,22.35,22.35,0,0,1,13.33-1.13Z"/><path class="cls-23" d="M430.73,557.1s-3.86,41.28-5.28,79.38a381,381,0,0,1-.25,62.41l-16.12,0c-.14-8.33-1.93-33.65-5.47-60.81-5.19-39.9-12.73-83.8-12.73-83.8s33.23-13.75,39.85,2.8Z"/><polygon class="cls-4" points="411.63 719.75 422.51 716.77 422.25 705.27 410.73 705.27 411.63 719.75 411.63 719.75"/><polygon class="cls-25" points="422.25 705.27 410.73 705.27 410.21 698.91 422.25 698.91 422.25 705.27 422.25 705.27"/><path class="cls-23" d="M357.58,640.43a381.33,381.33,0,0,0,16.56,60.17l15.56-4.19c-2-8.09-6.93-33-10.63-60.13-5.42-39.87-34.45-29.07-21.49,4.15Z"/><polygon class="cls-4" points="392.7 717.18 381.42 717.16 378.65 705.98 389.77 702.97 392.7 717.18 392.7 717.18"/><polygon class="cls-25" points="378.65 705.98 389.77 702.97 388.62 696.7 376.99 699.86 378.65 705.98 378.65 705.98"/><path class="cls-23" d="M400.82,487.31c7.38.46,16.93-2,21.69,12,3.65,25.15,9.9,132.93,9.9,132.93l-70.59.53s6.4-103.88,15.24-141.18c2.72-4.42,17.48-4.64,23.76-4.26Z"/><path class="cls-23" d="M377.57,497.47s-26.38,5.53-31.36,66.45C342.91,604.29,370.9,620,370.9,620l20-4.25s-13.58-52.06-11.53-77.12c1-11.84-1.81-41.2-1.81-41.2Z"/><path class="cls-23" d="M382.37,488.52l51.34-12.58S444.14,508.47,418.3,510s-35.93-21.47-35.93-21.47Z"/><path class="cls-23" d="M423.2,502.58s33.27,52.33,30,68.15-30,30.43-30,30.43V502.58Z"/><path class="cls-23" d="M395.31,505.32C411,514.55,426.55,508,426.55,508s-13.69,13.85-31.24-2.68Z"/><path class="cls-10" d="M409.33,718.05a6,6,0,0,1,1.7-2.78c.62-.61.89-1,1.59-2.92.64-1.74,3.05-2.26,4.55-2.32h.11c1.5.06,3.92.58,4.56,2.32.7,1.91,1,2.31,1.59,2.92a5.88,5.88,0,0,1,1.69,2.78c.14,1,2.74,12.32.15,12.5-1.25.09-4.66-.09-8,0h-.13c-3.31-.06-6.72.12-8,0-2.6-.18,0-11.51.14-12.5Z"/><path class="cls-10" d="M379.88,719.82a6,6,0,0,1,1.05-3.09c.48-.73.65-1.17.93-3.19.24-1.84,2.49-2.87,3.94-3.25h.11c1.48-.26,3.95-.28,4.94,1.28,1.11,1.72,1.45,2,2.19,2.5a6,6,0,0,1,2.26,2.35c.35.94,5.35,11.43,2.85,12.17-1.2.36-4.57.92-7.79,1.7h-.07l-.06,0h0c-3.25.66-6.54,1.58-7.77,1.76-2.58.39-2.5-11.24-2.58-12.23Z"/><polygon class="cls-10" points="159.65 732.06 155.83 732.06 162.38 628.65 168.38 628.65 159.65 732.06 159.65 732.06"/><polygon class="cls-10" points="225.93 732.06 229.74 732.06 223.18 628.65 217.19 628.65 225.93 732.06 225.93 732.06"/><path class="cls-11" d="M242.14,624.13l-18-81a8,8,0,0,0-7.74-6H176.11a8,8,0,0,0-7.74,6l-24.94,81a6,6,0,0,0,3.33,7.68c19.62,8.06,43.34,7.85,46,7.85s26.4.21,46-7.85a6,6,0,0,0,3.33-7.68Z"/><polygon class="cls-4" points="262.71 732.06 258.89 732.06 265.45 628.65 271.44 628.65 262.71 732.06 262.71 732.06"/><polygon class="cls-4" points="328.99 732.06 332.81 732.06 326.25 628.65 320.25 628.65 328.99 732.06 328.99 732.06"/><path class="cls-2" d="M345.2,624.13l-18-81a8,8,0,0,0-7.74-6H279.17a8,8,0,0,0-7.74,6l-24.94,81a6,6,0,0,0,3.33,7.68c19.62,8.06,43.34,7.85,46,7.85s26.41.21,46-7.85a6,6,0,0,0,3.33-7.68Z"/><polygon class="cls-4" points="365.77 732.06 361.95 732.06 368.51 628.65 374.51 628.65 365.77 732.06 365.77 732.06"/><polygon class="cls-4" points="432.05 732.06 435.87 732.06 429.31 628.65 423.32 628.65 432.05 732.06 432.05 732.06"/><path class="cls-11" d="M448.27,624.13l-14.54-81a8,8,0,0,0-7.73-6H385.71a8,8,0,0,0-7.74,6l-28.42,81a6,6,0,0,0,3.34,7.68c19.61,8.06,43.33,7.85,46,7.85s26.41.21,46-7.85a6,6,0,0,0,3.34-7.68Z"/><polygon class="cls-10" points="468.83 732.06 465.02 732.06 471.57 628.65 477.57 628.65 468.83 732.06 468.83 732.06"/><polygon class="cls-10" points="535.11 732.06 538.93 732.06 532.37 628.65 526.38 628.65 535.11 732.06 535.11 732.06"/><path class="cls-2" d="M551.33,624.13l-11.06-81a8,8,0,0,0-7.74-6H492.24a8,8,0,0,0-7.74,6l-31.89,81a6,6,0,0,0,3.34,7.68c19.62,8.06,43.33,7.85,46,7.85s26.41.21,46-7.85a6,6,0,0,0,3.34-7.68Z"/><polygon points="460.76 161.09 270.86 161.09 270.86 159.31 460.76 159.31 460.76 161.09 460.76 161.09"/><polygon points="283.91 160.61 281.68 160.61 281.68 147.1 283.91 147.1 283.91 160.61 283.91 160.61"/><polygon points="449.94 160.61 447.71 160.61 447.71 147.1 449.94 147.1 449.94 160.61 449.94 160.61"/><polygon points="316.84 162.88 300.75 162.88 300.75 161.09 316.84 161.09 316.84 162.88 316.84 162.88"/><polygon points="309.91 178.07 307.68 178.07 307.68 161.09 309.91 161.09 309.91 178.07 309.91 178.07"/><path d="M307.67,172c0-.81-2.33-1.47-5.21-1.47s-5.09.63-5.19,1.42h0v11.73h10.43V172Z"/><path d="M307.67,183.77c0,.82-2.33,1.48-5.21,1.48s-5.2-.66-5.2-1.48,2.33-1.47,5.2-1.47,5.21.66,5.21,1.47Z"/><polygon points="434.39 162.88 418.3 162.88 418.3 161.09 434.39 161.09 434.39 162.88 434.39 162.88"/><polygon points="427.46 178.07 425.23 178.07 425.23 161.09 427.46 161.09 427.46 178.07 427.46 178.07"/><path d="M425.22,172c0-.81-2.33-1.47-5.21-1.47s-5.09.63-5.19,1.42h0v11.73h10.43V172Z"/><path d="M425.22,183.77c0,.82-2.33,1.48-5.21,1.48s-5.2-.66-5.2-1.48,2.33-1.47,5.2-1.47,5.21.66,5.21,1.47Z"/><polygon points="390.86 162.88 374.77 162.88 374.77 161.09 390.86 161.09 390.86 162.88 390.86 162.88"/><polygon points="380.84 177.99 378.64 177.56 381.89 160.9 384.08 161.32 380.84 177.99 380.84 177.99"/><path d="M379.79,171.64c.16-.8-2-1.89-4.83-2.44s-5.11-.36-5.37.4h0l-2.25,11.51,10.24,2,2.22-11.4,0-.06Z"/><path d="M377.55,183.15c-.16.8-2.57,1-5.4.46s-5-1.65-4.82-2.45,2.57-1,5.39-.45,5,1.64,4.83,2.44Z"/><polygon points="503.31 147.7 370.34 147.7 370.34 146.39 503.31 146.39 503.31 147.7 503.31 147.7"/><polygon points="298.64 147.7 239.69 147.7 239.69 146.39 298.64 146.39 298.64 147.7 298.64 147.7"/></svg>