<svg id="圖層_1" data-name="圖層 1" xmlns="http://www.w3.org/2000/svg" viewBox="0 0 952 800"><defs><style>.cls-1{fill:#eaeaea;}.cls-2{fill:#3a4e8c;}.cls-3{fill:#4b5d8c;}.cls-4{fill:#263c72;}.cls-5{fill:#e4837a;}.cls-6{fill:#2a3756;}.cls-7{fill:#dedede;}.cls-8{fill:#1d273f;}.cls-9{fill:#e2857e;}.cls-10{fill:#fff;}.cls-11{fill:#d8be03;}.cls-12{fill:#edd600;}.cls-13{fill:#e8e8e8;}.cls-14{fill:#4e5eaf;}.cls-15{fill:#52a1d8;}</style></defs><path class="cls-1" d="M596.28,564.4A256.26,256.26,0,0,1,415.05,126.94a256.27,256.27,0,1,1,362.43,362.4A254.6,254.6,0,0,1,596.28,564.4Zm0-501.39C461.11,63,351.14,173,351.14,308.14s110,245.12,245.14,245.12,245.13-110,245.13-245.12S731.45,63,596.28,63Z"/><rect class="cls-1" x="590.71" y="57.44" width="11.14" height="60.25"/><rect class="cls-1" x="590.71" y="499.36" width="11.14" height="60.27"/><rect class="cls-1" x="345.19" y="302.97" width="60.28" height="11.14"/><rect class="cls-1" x="787.09" y="302.97" width="60.26" height="11.14"/><rect class="cls-1" x="409.88" y="459.21" width="60.28" height="11.14" transform="translate(-199.76 446.97) rotate(-44.97)"/><rect class="cls-1" x="722.37" y="146.73" width="60.25" height="11.14" transform="translate(112.8 576.85) rotate(-45.01)"/><rect class="cls-1" x="746.94" y="434.65" width="11.14" height="60.26" transform="translate(-108.2 668.42) rotate(-45.01)"/><rect class="cls-1" x="434.43" y="122.17" width="11.14" height="60.25" transform="translate(21.22 355.8) rotate(-45.01)"/><path class="cls-1" d="M633.22,316.18a37.59,37.59,0,1,1-28.94-44.59A37.61,37.61,0,0,1,633.22,316.18Z"/><rect class="cls-1" x="519.1" y="259.46" width="237.34" height="11.14" transform="translate(-0.61 528.6) rotate(-45)"/><polyline class="cls-2" points="919.57 673.22 781.6 673.22 781.6 69.34 919.57 131.01 919.57 673.22"/><polyline class="cls-3" points="919.57 734.89 431.15 673.22 781.6 673.22 919.57 734.89 919.57 673.22 919.57 734.89"/><polyline class="cls-4" points="919.57 734.89 781.6 673.22 919.57 673.22 919.57 734.89"/><path class="cls-5" d="M775.46,246.33c10.19-2.57,24.86,4.64,27.17,16.56s4.47,32.73-3.08,35.38c-3.35,1.17-16.15,0-16.15,0l2.7,14.22H762.63l3.85-20.37s-24.61-37.3,9-45.79Z"/><path class="cls-6" d="M799.48,255.75s-10.8,2.21-13.09,8.12-1,17.8-6.62,7.35c-2.74-5.11-6.87-3.77-9,.37-2.67,5.09,3.36,9.44,2.78,11.16s-5.7,9.17-7,9.37-14.84-21.39-8.69-35.55c5.77-13.29,37.19-17.79,41.69-.82Z"/><path class="cls-6" d="M799.48,255.75s10.6-10.15,8.31-13.34c-1.41-2-7.82,4.07-9.38,2.23-1.26-1.48,4.2-5.63,3-7.16-6.23-8-37.65,5.64-38.49,13s36.56,5.26,36.56,5.26Z"/><path class="cls-7" d="M790.73,308.79,718.31,291s-14.7,45.88,21.74,48c24.79,1.46,42-6.57,48.78-16,3.17-4.45,1.9-14.26,1.9-14.26Z"/><path class="cls-8" d="M752.89,568.7c2-3,5.11-8.72,5.37-10,6.64-21.8,33.15-88.12,33.15-88.12s-39.48-64.4-54-43.86c0,0-8.93,90.69-15.7,120a162.6,162.6,0,0,0-29.52,4.4c-16.4,3.95-44,9.92-57.19,14.1l1.22,25.94c29-1.43,106.47-7.66,116.67-22.53Z"/><polygon class="cls-9" points="621.33 570.18 613.32 581.9 626.63 586.93 635.97 586.05 635.14 568.12 621.33 570.18 621.33 570.18"/><path class="cls-6" d="M728.39,461.3s63.6,97.28,67.93,106,1.36,20.65,13,54.49c5.49,16,17.35,41.91,25,53.44l24.59-8.35c-9.41-27.48-16.67-84.5-20.63-95.63-5.62-15.78-29-114.42-29-114.42s-80.09-20.65-80.93,4.49Z"/><polygon class="cls-9" points="842.84 687 857.46 695.15 857.46 677.26 854.03 668.53 837.03 674.3 842.84 687 842.84 687"/><path class="cls-7" d="M750.61,322.35c13.36-5.08,27.74,16.47,40.78,79.53l54-25.6,13.69,14.86s-62,52.46-80.94,36.5S726,331.73,750.61,322.35Z"/><polygon class="cls-5" points="845.38 376.28 856.68 369.6 862 376.48 853.89 385.1 845.38 376.28 845.38 376.28"/><path class="cls-5" d="M869.2,365c-8.76.33-15.69,5-15.49,10.46a7,7,0,0,0,1.84,4.34c1.13,1.29,8.08.26,11-.43a20.17,20.17,0,0,1,5-.53c3.83,0,8-3.42,7.86-6.14-.2-5.45-1.5-8-10.26-7.7Z"/><path class="cls-7" d="M763.82,306.22c-10.42.65-17.29,4.46-24,24.13-5.15,35.47-15,159.91-15,159.91h94.4s-12.4-162.43-31-176.81c-1.23.62-15.48-7.77-24.34-7.23Z"/><path class="cls-1" d="M776.64,309.26c9.91,10.3-4,48.42-56.86,85.16l41.5,36.74L753,449.6s-72.58-36.43-65.34-60.14,70.69-99.2,89-80.2Z"/><polygon class="cls-5" points="761.28 431.16 771.85 438.94 767.62 446.53 756.51 442.45 761.28 431.16 761.28 431.16"/><path class="cls-5" d="M782.72,443.81c-6-6.37-14.12-8.51-18.08-4.76a7,7,0,0,0-2.06,4.24c-.22,1.69,5.14,6.25,7.59,8a20.75,20.75,0,0,1,3.71,3.43c2.49,2.91,8.94,4.53,10.92,2.65,4-3.74,3.94-7.2-2.08-13.57Z"/><path class="cls-10" d="M841,684.48c-1,.61,1.58,20.48,3.6,21s50.86-12.75,52.88-16.33c1.06-1.87-2.37-7.84-3.47-7.83a117.08,117.08,0,0,1-36.75-5.79s-4.31,3.11-3,5.52l.89.91s-2.21,3.7-5.23,4.27-6.4-3.26-8.91-1.73Z"/><path class="cls-10" d="M622.58,569.52c-.41-1.09-20.42-2.31-21.28-.42s2.94,52.35,6.07,55c1.64,1.4,8.14-.85,8.34-1.93a117.25,117.25,0,0,1,12.61-35s-2.23-4.82-4.85-4l-1.07.7s-3.21-2.87-3.2-5.93,4.41-5.67,3.38-8.43Z"/><path class="cls-11" d="M322.29,276.14a2.5,2.5,0,0,1-2.51,2.5l-96.26-.09A2.52,2.52,0,0,1,221,276l.07-61.2a2.51,2.51,0,0,1,2.51-2.51l61.34.06c1.93,0,10.82-8.51,12.74-8.51l22.18,0a2.51,2.51,0,0,1,2.51,2.51l-.07,69.74Z"/><path class="cls-10" d="M243.23,246.4a2.51,2.51,0,0,0,2.51,2.51l68.77.07a2.51,2.51,0,0,0,2.51-2.51l0-36.46a2.51,2.51,0,0,0-2.5-2.51l-68.77-.07a2.51,2.51,0,0,0-2.51,2.51l0,36.46Z"/><path class="cls-12" d="M221,276a2.52,2.52,0,0,0,2.51,2.52l96.26.09a2.5,2.5,0,0,0,2.51-2.5l.06-61.21a2.5,2.5,0,0,0-2.5-2.51l-61.35-.06c-1.93,0-10.79-8.54-12.72-8.54l-22.18,0a2.51,2.51,0,0,0-2.51,2.51L221,276Z"/><path class="cls-11" d="M450.24,334.38a2.51,2.51,0,0,1-2.51,2.5l-96.26-.09a2.51,2.51,0,0,1-2.51-2.52l.06-61.2a2.52,2.52,0,0,1,2.51-2.51l61.35.06c1.93,0,10.81-8.51,12.74-8.51l22.18,0a2.51,2.51,0,0,1,2.51,2.51l-.07,69.74Z"/><path class="cls-10" d="M371.18,304.64a2.5,2.5,0,0,0,2.5,2.51l68.77.07a2.51,2.51,0,0,0,2.51-2.51l0-36.46a2.51,2.51,0,0,0-2.51-2.51l-68.77-.07a2.52,2.52,0,0,0-2.51,2.51l0,36.46Z"/><path class="cls-12" d="M349,334.27a2.51,2.51,0,0,0,2.51,2.52l96.26.09a2.51,2.51,0,0,0,2.51-2.5l.06-61.21a2.51,2.51,0,0,0-2.51-2.51l-61.34-.06c-1.93,0-10.8-8.54-12.72-8.54l-22.19,0a2.52,2.52,0,0,0-2.51,2.51L349,334.27Z"/><path class="cls-11" d="M356.2,418.33a2.51,2.51,0,0,1-2.52,2.51l-96.25-.1a2.51,2.51,0,0,1-2.51-2.51L255,357a2.51,2.51,0,0,1,2.51-2.5l61.35.06c1.93,0,10.81-8.51,12.74-8.51l22.18,0a2.51,2.51,0,0,1,2.51,2.51l-.07,69.73Z"/><path class="cls-10" d="M277.14,388.6a2.49,2.49,0,0,0,2.5,2.5l68.77.08a2.52,2.52,0,0,0,2.51-2.51l0-36.46a2.51,2.51,0,0,0-2.51-2.51l-68.77-.07a2.51,2.51,0,0,0-2.51,2.51l0,36.46Z"/><path class="cls-12" d="M254.92,418.23a2.51,2.51,0,0,0,2.51,2.51l96.25.1a2.51,2.51,0,0,0,2.52-2.51l.06-61.2a2.51,2.51,0,0,0-2.51-2.52l-61.34-.06c-1.93,0-10.8-8.54-12.73-8.54l-22.18,0A2.51,2.51,0,0,0,255,348.5l-.07,69.73Z"/><path class="cls-11" d="M448,456.29a2.51,2.51,0,0,1-2.51,2.51l-96.26-.1a2.51,2.51,0,0,1-2.51-2.51l.06-61.21a2.52,2.52,0,0,1,2.51-2.51l61.35.07c1.93,0,10.82-8.52,12.74-8.52l22.18,0a2.52,2.52,0,0,1,2.51,2.52L448,456.29Z"/><path class="cls-10" d="M368.9,426.55a2.5,2.5,0,0,0,2.5,2.51l68.78.07a2.51,2.51,0,0,0,2.51-2.51l0-36.45a2.52,2.52,0,0,0-2.5-2.52l-68.78-.06a2.52,2.52,0,0,0-2.51,2.5l0,36.46Z"/><path class="cls-12" d="M346.68,456.19a2.51,2.51,0,0,0,2.51,2.51l96.26.1a2.51,2.51,0,0,0,2.51-2.51l.06-61.21a2.51,2.51,0,0,0-2.51-2.51l-61.34-.06c-1.93,0-10.79-8.54-12.72-8.54l-22.19,0a2.5,2.5,0,0,0-2.5,2.5l-.08,69.74Z"/><path class="cls-11" d="M505.92,497.33a2.5,2.5,0,0,1-2.51,2.5l-96.26-.1a2.5,2.5,0,0,1-2.5-2.51l.06-61.21a2.51,2.51,0,0,1,2.51-2.5l61.35.06c1.93,0,10.81-8.51,12.74-8.51l22.18,0a2.51,2.51,0,0,1,2.51,2.51l-.08,69.74Z"/><path class="cls-10" d="M426.86,467.58a2.52,2.52,0,0,0,2.51,2.52l68.77.06a2.51,2.51,0,0,0,2.51-2.5l0-36.46a2.51,2.51,0,0,0-2.51-2.51l-68.77-.07a2.51,2.51,0,0,0-2.51,2.51l0,36.45Z"/><path class="cls-12" d="M404.65,497.22a2.5,2.5,0,0,0,2.5,2.51l96.26.1a2.5,2.5,0,0,0,2.51-2.5l.07-61.22a2.51,2.51,0,0,0-2.51-2.51l-61.34-.06c-1.93,0-10.8-8.54-12.73-8.54l-22.18,0a2.51,2.51,0,0,0-2.51,2.51l-.07,69.73Z"/><path class="cls-11" d="M131.38,603.34a2.52,2.52,0,0,1-2.52,2.51l-96.26-.1a2.51,2.51,0,0,1-2.5-2.51L30.16,542a2.51,2.51,0,0,1,2.51-2.51s47.26.06,61.34.06c1.93,0,10.82-8.51,12.75-8.51l22.18,0a2.52,2.52,0,0,1,2.51,2.51l-.07,69.74Z"/><path class="cls-10" d="M52.31,573.6a2.51,2.51,0,0,0,2.51,2.51l68.77.07a2.51,2.51,0,0,0,2.51-2.5l0-36.46a2.51,2.51,0,0,0-2.51-2.52l-68.77-.06a2.51,2.51,0,0,0-2.51,2.5l0,36.46Z"/><path class="cls-12" d="M30.1,603.24a2.51,2.51,0,0,0,2.5,2.51l96.26.1a2.52,2.52,0,0,0,2.52-2.51l.06-61.21a2.51,2.51,0,0,0-2.51-2.51l-61.34-.06c-1.93,0-10.8-8.54-12.73-8.54l-22.18,0a2.5,2.5,0,0,0-2.51,2.5l-.07,69.74Z"/><path class="cls-11" d="M525.61,367.9a2.5,2.5,0,0,1-2.51,2.5l-96.26-.09a2.52,2.52,0,0,1-2.51-2.52l.07-61.2a2.51,2.51,0,0,1,2.51-2.51l61.34.06c1.93,0,10.82-8.51,12.74-8.51l22.18,0a2.51,2.51,0,0,1,2.52,2.51l-.08,69.74Z"/><path class="cls-10" d="M446.55,338.16a2.51,2.51,0,0,0,2.51,2.51l68.77.07a2.51,2.51,0,0,0,2.51-2.51l0-36.46a2.51,2.51,0,0,0-2.5-2.51l-68.77-.07a2.52,2.52,0,0,0-2.52,2.51l0,36.46Z"/><path class="cls-12" d="M424.33,367.79a2.52,2.52,0,0,0,2.51,2.52l96.26.09a2.5,2.5,0,0,0,2.51-2.5l.07-61.21a2.51,2.51,0,0,0-2.51-2.51l-61.35-.07c-1.92,0-10.79-8.53-12.72-8.53l-22.18,0a2.51,2.51,0,0,0-2.51,2.51l-.08,69.73Z"/><path class="cls-11" d="M466.43,320.44a13.25,13.25,0,0,0-13.23,13.23c0,.38,0,.77.06,1.19l.11,1.21-1.22.11a9.4,9.4,0,0,0-8.57,9.35,9.4,9.4,0,0,0,9.39,9.39h45.65a7.82,7.82,0,0,0,0-15.64h-2.38l-.13-1.07a9.76,9.76,0,0,0-15-7l-1.43.93-.41-1.66a13.19,13.19,0,0,0-12.84-10.05Z"/><path class="cls-11" d="M646.34,471.05a2.51,2.51,0,0,1-2.51,2.51l-96.26-.1a2.51,2.51,0,0,1-2.51-2.51l.06-61.21a2.51,2.51,0,0,1,2.51-2.5s47.26.05,61.35.05c1.93,0,10.81-8.51,12.74-8.51l22.18,0a2.51,2.51,0,0,1,2.51,2.51l-.07,69.73Z"/><path class="cls-10" d="M567.28,441.31a2.49,2.49,0,0,0,2.5,2.51l68.77.08a2.52,2.52,0,0,0,2.51-2.51l0-36.46a2.51,2.51,0,0,0-2.51-2.51l-68.77-.07a2.51,2.51,0,0,0-2.51,2.51l0,36.45Z"/><path class="cls-12" d="M545.06,471a2.51,2.51,0,0,0,2.51,2.51l96.26.1a2.51,2.51,0,0,0,2.51-2.51l.06-61.2a2.51,2.51,0,0,0-2.51-2.52l-61.34-.06c-1.93,0-10.8-8.54-12.72-8.54l-22.19,0a2.51,2.51,0,0,0-2.51,2.51L545.06,471Z"/><path class="cls-11" d="M587.15,423.6a13.23,13.23,0,0,0-13.22,13.22c0,.38,0,.77.05,1.19l.12,1.22-1.22.1a9.39,9.39,0,0,0,.82,18.75h45.65a7.83,7.83,0,0,0,0-15.65H617l-.12-1.06a9.79,9.79,0,0,0-15-7l-1.43.94-.41-1.66a13.18,13.18,0,0,0-12.84-10Z"/><path class="cls-11" d="M420.26,562.41a2.5,2.5,0,0,1-2.51,2.5l-96.26-.1a2.5,2.5,0,0,1-2.5-2.51l.06-61.21a2.51,2.51,0,0,1,2.51-2.5l61.35.06c1.92,0,10.81-8.51,12.74-8.51l22.18,0a2.51,2.51,0,0,1,2.51,2.51l-.08,69.74Z"/><path class="cls-10" d="M341.2,532.67a2.52,2.52,0,0,0,2.51,2.51l68.77.07a2.51,2.51,0,0,0,2.51-2.51l0-36.46a2.51,2.51,0,0,0-2.51-2.51l-68.77-.07a2.51,2.51,0,0,0-2.51,2.51l0,36.46Z"/><path class="cls-12" d="M319,562.3a2.5,2.5,0,0,0,2.5,2.51l96.26.1a2.5,2.5,0,0,0,2.51-2.5l.07-61.21a2.51,2.51,0,0,0-2.51-2.52l-61.34-.06c-1.93,0-10.8-8.53-12.73-8.53l-22.18,0a2.51,2.51,0,0,0-2.51,2.51L319,562.3Z"/><path class="cls-11" d="M361.08,515a13.25,13.25,0,0,0-13.23,13.23c0,.37,0,.76.06,1.19l.11,1.21-1.21.1a9.4,9.4,0,0,0-6.09,3,9.3,9.3,0,0,0-2.49,6.36,9.4,9.4,0,0,0,9.39,9.39h45.65a7.82,7.82,0,0,0,0-15.64h-2.38l-.13-1.07a9.76,9.76,0,0,0-15-7l-1.43.93-.41-1.66a13.19,13.19,0,0,0-12.84-10Z"/><path class="cls-11" d="M210.44,380.91a2.51,2.51,0,0,1-2.51,2.51l-96.26-.1a2.51,2.51,0,0,1-2.5-2.51l.06-61.21a2.51,2.51,0,0,1,2.51-2.51l61.34.06c1.93,0,10.82-8.51,12.75-8.51l22.18,0a2.51,2.51,0,0,1,2.51,2.51l-.08,69.74Z"/><path class="cls-10" d="M131.38,351.17a2.51,2.51,0,0,0,2.51,2.51l68.77.07a2.51,2.51,0,0,0,2.51-2.51l0-36.46a2.52,2.52,0,0,0-2.51-2.51l-68.77-.07a2.52,2.52,0,0,0-2.51,2.51l0,36.46Z"/><path class="cls-12" d="M109.17,380.81a2.51,2.51,0,0,0,2.5,2.51l96.26.1a2.51,2.51,0,0,0,2.51-2.51l.07-61.21a2.51,2.51,0,0,0-2.51-2.51l-61.34-.06c-1.93,0-10.8-8.54-12.73-8.54l-22.18,0a2.51,2.51,0,0,0-2.51,2.51l-.07,69.74Z"/><polygon class="cls-10" points="292.41 529.15 352.29 529.15 352.29 472.57 331.96 452.23 292.41 452.23 292.41 529.15 292.41 529.15"/><polygon class="cls-13" points="331.96 472.57 352.29 472.57 331.96 452.23 331.96 472.57 331.96 472.57"/><path class="cls-14" d="M317.93,475.46a6.17,6.17,0,1,1-6.11-6.22,6.17,6.17,0,0,1,6.11,6.22Z"/><polygon class="cls-14" points="345.89 518.58 300.85 518.58 312.37 495.84 317.93 508.12 331.1 484.72 345.89 518.58 345.89 518.58"/><polygon class="cls-10" points="168.29 436.14 228.18 436.14 228.18 379.55 207.84 359.21 168.29 359.21 168.29 436.14 168.29 436.14"/><polygon class="cls-13" points="207.84 379.55 228.18 379.55 207.84 359.21 207.84 379.55 207.84 379.55"/><path class="cls-14" d="M193.81,382.44a6.17,6.17,0,1,1-6.11-6.22,6.16,6.16,0,0,1,6.11,6.22Z"/><polygon class="cls-14" points="221.78 425.56 176.74 425.56 188.25 402.81 193.81 415.1 206.98 391.7 221.78 425.56 221.78 425.56"/><polygon class="cls-10" points="127.76 258.9 187.65 258.9 187.65 202.32 167.31 181.98 127.76 181.98 127.76 258.9 127.76 258.9"/><polygon class="cls-13" points="167.31 202.32 187.65 202.32 167.31 181.98 167.31 202.32 167.31 202.32"/><path class="cls-14" d="M153.28,205.21a6.17,6.17,0,1,1-6.11-6.22,6.17,6.17,0,0,1,6.11,6.22Z"/><polygon class="cls-14" points="181.24 248.33 136.2 248.33 147.72 225.59 153.28 237.87 166.45 214.47 181.24 248.33 181.24 248.33"/><polygon class="cls-10" points="512.18 435.31 572.06 435.31 572.06 378.72 551.73 358.39 512.18 358.39 512.18 435.31 512.18 435.31"/><polygon class="cls-13" points="551.73 378.72 572.06 378.72 551.73 358.39 551.73 378.72 551.73 378.72"/><polygon class="cls-14" points="545.06 372.42 520.91 372.42 520.91 368.55 545.06 368.55 545.06 372.42 545.06 372.42"/><polygon class="cls-14" points="545.06 378.72 520.91 378.72 520.91 374.85 545.06 374.85 545.06 378.72 545.06 378.72"/><polygon class="cls-14" points="563.17 390.12 520.91 390.12 520.91 387.26 563.17 387.26 563.17 390.12 563.17 390.12"/><polygon class="cls-14" points="563.17 395.33 520.91 395.33 520.91 392.47 563.17 392.47 563.17 395.33 563.17 395.33"/><polygon class="cls-14" points="563.17 400.54 520.91 400.54 520.91 397.67 563.17 397.67 563.17 400.54 563.17 400.54"/><polygon class="cls-14" points="563.17 405.75 520.91 405.75 520.91 402.88 563.17 402.88 563.17 405.75 563.17 405.75"/><polygon class="cls-14" points="563.17 410.96 520.91 410.96 520.91 408.09 563.17 408.09 563.17 410.96 563.17 410.96"/><polygon class="cls-14" points="563.17 416.16 520.91 416.16 520.91 413.3 563.17 413.3 563.17 416.16 563.17 416.16"/><polygon class="cls-14" points="563.17 421.37 520.91 421.37 520.91 418.51 563.17 418.51 563.17 421.37 563.17 421.37"/><polygon class="cls-10" points="404.32 613.6 464.21 613.6 464.21 557.02 443.88 536.68 404.32 536.68 404.32 613.6 404.32 613.6"/><polygon class="cls-13" points="443.88 557.02 464.21 557.02 443.88 536.68 443.88 557.02 443.88 557.02"/><polygon class="cls-14" points="437.21 550.72 413.06 550.72 413.06 546.85 437.21 546.85 437.21 550.72 437.21 550.72"/><polygon class="cls-14" points="437.21 557.02 413.06 557.02 413.06 553.15 437.21 553.15 437.21 557.02 437.21 557.02"/><polygon class="cls-14" points="455.32 568.42 413.06 568.42 413.06 565.56 455.32 565.56 455.32 568.42 455.32 568.42"/><polygon class="cls-14" points="455.32 573.63 413.06 573.63 413.06 570.77 455.32 570.77 455.32 573.63 455.32 573.63"/><polygon class="cls-14" points="455.32 578.84 413.06 578.84 413.06 575.97 455.32 575.97 455.32 578.84 455.32 578.84"/><polygon class="cls-14" points="455.32 584.05 413.06 584.05 413.06 581.18 455.32 581.18 455.32 584.05 455.32 584.05"/><polygon class="cls-14" points="455.32 589.26 413.06 589.26 413.06 586.39 455.32 586.39 455.32 589.26 455.32 589.26"/><polygon class="cls-14" points="455.32 594.46 413.06 594.46 413.06 591.6 455.32 591.6 455.32 594.46 455.32 594.46"/><polygon class="cls-14" points="455.32 599.67 413.06 599.67 413.06 596.81 455.32 596.81 455.32 599.67 455.32 599.67"/><polygon class="cls-10" points="20.35 379.2 80.23 379.2 80.23 322.61 59.9 302.28 20.35 302.28 20.35 379.2 20.35 379.2"/><polygon class="cls-13" points="59.9 322.61 80.23 322.61 59.9 302.28 59.9 322.61 59.9 322.61"/><polygon class="cls-14" points="53.23 316.31 29.08 316.31 29.08 312.44 53.23 312.44 53.23 316.31 53.23 316.31"/><polygon class="cls-14" points="53.23 322.61 29.08 322.61 29.08 318.74 53.23 318.74 53.23 322.61 53.23 322.61"/><polygon class="cls-14" points="71.34 334.02 29.08 334.02 29.08 331.15 71.34 331.15 71.34 334.02 71.34 334.02"/><polygon class="cls-14" points="71.34 339.22 29.08 339.22 29.08 336.36 71.34 336.36 71.34 339.22 71.34 339.22"/><polygon class="cls-14" points="71.34 344.43 29.08 344.43 29.08 341.57 71.34 341.57 71.34 344.43 71.34 344.43"/><polygon class="cls-14" points="71.34 349.64 29.08 349.64 29.08 346.78 71.34 346.78 71.34 349.64 71.34 349.64"/><polygon class="cls-14" points="71.34 354.85 29.08 354.85 29.08 351.99 71.34 351.99 71.34 354.85 71.34 354.85"/><polygon class="cls-14" points="71.34 360.06 29.08 360.06 29.08 357.19 71.34 357.19 71.34 360.06 71.34 360.06"/><polygon class="cls-14" points="71.34 365.27 29.08 365.27 29.08 362.4 71.34 362.4 71.34 365.27 71.34 365.27"/><polygon class="cls-10" points="99.04 549.49 158.93 549.49 158.93 492.9 138.59 472.57 99.04 472.57 99.04 549.49 99.04 549.49"/><polygon class="cls-13" points="138.59 492.9 158.93 492.9 138.59 472.57 138.59 492.9 138.59 492.9"/><polygon class="cls-14" points="131.93 486.61 107.77 486.61 107.77 482.74 131.93 482.74 131.93 486.61 131.93 486.61"/><polygon class="cls-14" points="131.93 492.9 107.77 492.9 107.77 489.04 131.93 489.04 131.93 492.9 131.93 492.9"/><polygon class="cls-14" points="150.04 504.31 107.77 504.31 107.77 501.44 150.04 501.44 150.04 504.31 150.04 504.31"/><polygon class="cls-14" points="150.04 509.51 107.77 509.51 107.77 506.65 150.04 506.65 150.04 509.51 150.04 509.51"/><polygon class="cls-14" points="150.04 514.72 107.77 514.72 107.77 511.86 150.04 511.86 150.04 514.72 150.04 514.72"/><polygon class="cls-14" points="150.04 519.93 107.77 519.93 107.77 517.07 150.04 517.07 150.04 519.93 150.04 519.93"/><polygon class="cls-14" points="150.04 525.14 107.77 525.14 107.77 522.28 150.04 522.28 150.04 525.14 150.04 525.14"/><polygon class="cls-14" points="150.04 530.35 107.77 530.35 107.77 527.48 150.04 527.48 150.04 530.35 150.04 530.35"/><polygon class="cls-14" points="150.04 535.56 107.77 535.56 107.77 532.69 150.04 532.69 150.04 535.56 150.04 535.56"/><path class="cls-10" d="M805,268.5h0c.17,0,.48.42.63,1.75a19.11,19.11,0,0,1-.14,4.39c-.48,3.59-1.52,5.8-2.06,5.8h0c-.16,0-.48-.41-.63-1.74a19.19,19.19,0,0,1,.14-4.4c.48-3.59,1.53-5.8,2.07-5.8Zm-1.56,12.44c1.13,0,2.15-3.13,2.56-6.23s.25-6.55-.92-6.7H805c-1.14,0-2.15,3.14-2.56,6.23a19.11,19.11,0,0,0-.14,4.52q.23,2.07,1.05,2.19Z"/><path class="cls-10" d="M800.18,268.54h0c.16,0,.48.41.63,1.74a19.19,19.19,0,0,1-.14,4.4c-.48,3.59-1.52,5.8-2.07,5.8h0c-.17,0-.48-.42-.63-1.75a19.11,19.11,0,0,1,.14-4.39c.48-3.6,1.52-5.8,2.06-5.8ZM798.62,281c1.14,0,2.15-3.14,2.57-6.24s.25-6.54-.92-6.7h-.09c-1.13,0-2.15,3.13-2.56,6.23a20.23,20.23,0,0,0-.14,4.52c.16,1.37.51,2.11,1.06,2.18Z"/><path class="cls-10" d="M801.32,273.15a1.2,1.2,0,0,1,1-.6,1.09,1.09,0,0,1,.66.22l.29-.41a1.57,1.57,0,0,0-.95-.31,1.73,1.73,0,0,0-1.44.83l.43.27Z"/><polygon class="cls-10" points="797.97 273.82 797.99 273.32 779.95 272.71 779.93 273.22 797.97 273.82 797.97 273.82"/><path class="cls-15" d="M767.11,235.24s-3.6-12.36-9-7.21S764.42,235,767.11,235.24Z"/><path class="cls-15" d="M759.25,239.08s-8.3-9.85-11.19-2.94S756.67,239.91,759.25,239.08Z"/></svg>